STARTFONT 2.1
FONT -Kadoma-k6x8Gothic-Regular-R-Normal--8-80-75-75-C-60-ISO10646-1
SIZE 8 75 75
FONTBOUNDINGBOX 6 8 0 -1
STARTPROPERTIES 19
FONTNAME_REGISTRY ""
FOUNDRY "Kadoma"
FAMILY_NAME "k6x8Gothic"
WEIGHT_NAME "Regular"
SLANT "R"
SETWIDTH_NAME "Normal"
ADD_STYLE_NAME ""
PIXEL_SIZE 8
POINT_SIZE 80
RESOLUTION_X 75
RESOLUTION_Y 75
SPACING "C"
AVERAGE_WIDTH 60
CHARSET_REGISTRY "ISO10646"
CHARSET_ENCODING "1"
DEFAULT_CHAR 3000
FONT_DESCENT 1
FONT_ASCENT 7
COPYRIGHT "Copyright (C) 2000-2023 Num Kadoma"
ENDPROPERTIES
CHARS 7096
STARTCHAR space
ENCODING 32
SWIDTH 375 0
DWIDTH 3 0
BBX 0 0 0 0
BITMAP
ENDCHAR
STARTCHAR exclam
ENCODING 33
SWIDTH 375 0
DWIDTH 3 0
BBX 1 7 1 0
BITMAP
80
80
80
80
80
00
80
ENDCHAR
STARTCHAR quotedbl
ENCODING 34
SWIDTH 375 0
DWIDTH 3 0
BBX 3 2 0 5
BITMAP
A0
A0
ENDCHAR
STARTCHAR numbersign
ENCODING 35
SWIDTH 375 0
DWIDTH 3 0
BBX 3 7 0 0
BITMAP
A0
E0
A0
A0
A0
E0
A0
ENDCHAR
STARTCHAR dollar
ENCODING 36
SWIDTH 375 0
DWIDTH 3 0
BBX 3 7 0 0
BITMAP
40
E0
80
E0
20
E0
40
ENDCHAR
STARTCHAR percent
ENCODING 37
SWIDTH 375 0
DWIDTH 3 0
BBX 3 5 0 1
BITMAP
80
20
40
80
20
ENDCHAR
STARTCHAR ampersand
ENCODING 38
SWIDTH 375 0
DWIDTH 3 0
BBX 3 7 0 0
BITMAP
40
A0
A0
40
A0
80
60
ENDCHAR
STARTCHAR quotesingle
ENCODING 39
SWIDTH 375 0
DWIDTH 3 0
BBX 1 2 1 5
BITMAP
80
80
ENDCHAR
STARTCHAR parenleft
ENCODING 40
SWIDTH 375 0
DWIDTH 3 0
BBX 2 7 1 0
BITMAP
40
80
80
80
80
80
40
ENDCHAR
STARTCHAR parenright
ENCODING 41
SWIDTH 375 0
DWIDTH 3 0
BBX 2 7 0 0
BITMAP
80
40
40
40
40
40
80
ENDCHAR
STARTCHAR asterisk
ENCODING 42
SWIDTH 375 0
DWIDTH 3 0
BBX 3 5 0 1
BITMAP
A0
40
E0
40
A0
ENDCHAR
STARTCHAR plus
ENCODING 43
SWIDTH 375 0
DWIDTH 3 0
BBX 3 5 0 1
BITMAP
40
40
E0
40
40
ENDCHAR
STARTCHAR comma
ENCODING 44
SWIDTH 375 0
DWIDTH 3 0
BBX 2 2 0 0
BITMAP
40
80
ENDCHAR
STARTCHAR hyphen
ENCODING 45
SWIDTH 375 0
DWIDTH 3 0
BBX 3 1 0 3
BITMAP
E0
ENDCHAR
STARTCHAR period
ENCODING 46
SWIDTH 375 0
DWIDTH 3 0
BBX 1 1 1 0
BITMAP
80
ENDCHAR
STARTCHAR slash
ENCODING 47
SWIDTH 375 0
DWIDTH 3 0
BBX 3 3 0 2
BITMAP
20
40
80
ENDCHAR
STARTCHAR zero
ENCODING 48
SWIDTH 375 0
DWIDTH 3 0
BBX 3 7 0 0
BITMAP
40
A0
A0
E0
A0
A0
40
ENDCHAR
STARTCHAR one
ENCODING 49
SWIDTH 375 0
DWIDTH 3 0
BBX 3 7 0 0
BITMAP
40
C0
40
40
40
40
E0
ENDCHAR
STARTCHAR two
ENCODING 50
SWIDTH 375 0
DWIDTH 3 0
BBX 3 7 0 0
BITMAP
40
A0
20
40
40
80
E0
ENDCHAR
STARTCHAR three
ENCODING 51
SWIDTH 375 0
DWIDTH 3 0
BBX 3 7 0 0
BITMAP
40
A0
20
40
20
A0
40
ENDCHAR
STARTCHAR four
ENCODING 52
SWIDTH 375 0
DWIDTH 3 0
BBX 3 7 0 0
BITMAP
20
60
A0
A0
E0
20
20
ENDCHAR
STARTCHAR five
ENCODING 53
SWIDTH 375 0
DWIDTH 3 0
BBX 3 7 0 0
BITMAP
E0
80
C0
A0
20
A0
40
ENDCHAR
STARTCHAR six
ENCODING 54
SWIDTH 375 0
DWIDTH 3 0
BBX 3 7 0 0
BITMAP
40
A0
80
C0
A0
A0
40
ENDCHAR
STARTCHAR seven
ENCODING 55
SWIDTH 375 0
DWIDTH 3 0
BBX 3 7 0 0
BITMAP
E0
A0
20
40
40
40
40
ENDCHAR
STARTCHAR eight
ENCODING 56
SWIDTH 375 0
DWIDTH 3 0
BBX 3 7 0 0
BITMAP
40
A0
A0
40
A0
A0
40
ENDCHAR
STARTCHAR nine
ENCODING 57
SWIDTH 375 0
DWIDTH 3 0
BBX 3 7 0 0
BITMAP
40
A0
A0
60
20
A0
40
ENDCHAR
STARTCHAR colon
ENCODING 58
SWIDTH 375 0
DWIDTH 3 0
BBX 1 4 1 1
BITMAP
80
00
00
80
ENDCHAR
STARTCHAR semicolon
ENCODING 59
SWIDTH 375 0
DWIDTH 3 0
BBX 2 5 0 0
BITMAP
40
00
00
40
80
ENDCHAR
STARTCHAR less
ENCODING 60
SWIDTH 375 0
DWIDTH 3 0
BBX 3 5 0 1
BITMAP
20
40
80
40
20
ENDCHAR
STARTCHAR equal
ENCODING 61
SWIDTH 375 0
DWIDTH 3 0
BBX 3 3 0 2
BITMAP
E0
00
E0
ENDCHAR
STARTCHAR greater
ENCODING 62
SWIDTH 375 0
DWIDTH 3 0
BBX 3 5 0 1
BITMAP
80
40
20
40
80
ENDCHAR
STARTCHAR question
ENCODING 63
SWIDTH 375 0
DWIDTH 3 0
BBX 3 7 0 0
BITMAP
40
A0
20
40
40
00
40
ENDCHAR
STARTCHAR at
ENCODING 64
SWIDTH 375 0
DWIDTH 3 0
BBX 3 7 0 0
BITMAP
40
A0
E0
A0
C0
80
60
ENDCHAR
STARTCHAR A
ENCODING 65
SWIDTH 375 0
DWIDTH 3 0
BBX 3 7 0 0
BITMAP
40
A0
A0
A0
E0
A0
A0
ENDCHAR
STARTCHAR B
ENCODING 66
SWIDTH 375 0
DWIDTH 3 0
BBX 3 7 0 0
BITMAP
C0
A0
A0
C0
A0
A0
C0
ENDCHAR
STARTCHAR C
ENCODING 67
SWIDTH 375 0
DWIDTH 3 0
BBX 3 7 0 0
BITMAP
40
A0
80
80
80
A0
40
ENDCHAR
STARTCHAR D
ENCODING 68
SWIDTH 375 0
DWIDTH 3 0
BBX 3 7 0 0
BITMAP
C0
A0
A0
A0
A0
A0
C0
ENDCHAR
STARTCHAR E
ENCODING 69
SWIDTH 375 0
DWIDTH 3 0
BBX 3 7 0 0
BITMAP
E0
80
80
C0
80
80
E0
ENDCHAR
STARTCHAR F
ENCODING 70
SWIDTH 375 0
DWIDTH 3 0
BBX 3 7 0 0
BITMAP
E0
80
80
C0
80
80
80
ENDCHAR
STARTCHAR G
ENCODING 71
SWIDTH 375 0
DWIDTH 3 0
BBX 3 7 0 0
BITMAP
40
A0
80
A0
A0
A0
60
ENDCHAR
STARTCHAR H
ENCODING 72
SWIDTH 375 0
DWIDTH 3 0
BBX 3 7 0 0
BITMAP
A0
A0
A0
E0
A0
A0
A0
ENDCHAR
STARTCHAR I
ENCODING 73
SWIDTH 375 0
DWIDTH 3 0
BBX 3 7 0 0
BITMAP
E0
40
40
40
40
40
E0
ENDCHAR
STARTCHAR J
ENCODING 74
SWIDTH 375 0
DWIDTH 3 0
BBX 3 7 0 0
BITMAP
20
20
20
20
20
A0
40
ENDCHAR
STARTCHAR K
ENCODING 75
SWIDTH 375 0
DWIDTH 3 0
BBX 3 7 0 0
BITMAP
A0
A0
C0
C0
A0
A0
A0
ENDCHAR
STARTCHAR L
ENCODING 76
SWIDTH 375 0
DWIDTH 3 0
BBX 3 7 0 0
BITMAP
80
80
80
80
80
80
E0
ENDCHAR
STARTCHAR M
ENCODING 77
SWIDTH 375 0
DWIDTH 3 0
BBX 3 7 0 0
BITMAP
A0
E0
E0
E0
A0
A0
A0
ENDCHAR
STARTCHAR N
ENCODING 78
SWIDTH 375 0
DWIDTH 3 0
BBX 3 7 0 0
BITMAP
C0
A0
A0
A0
A0
A0
A0
ENDCHAR
STARTCHAR O
ENCODING 79
SWIDTH 375 0
DWIDTH 3 0
BBX 3 7 0 0
BITMAP
40
A0
A0
A0
A0
A0
40
ENDCHAR
STARTCHAR P
ENCODING 80
SWIDTH 375 0
DWIDTH 3 0
BBX 3 7 0 0
BITMAP
C0
A0
A0
C0
80
80
80
ENDCHAR
STARTCHAR Q
ENCODING 81
SWIDTH 375 0
DWIDTH 3 0
BBX 3 7 0 0
BITMAP
40
A0
A0
A0
E0
A0
60
ENDCHAR
STARTCHAR R
ENCODING 82
SWIDTH 375 0
DWIDTH 3 0
BBX 3 7 0 0
BITMAP
C0
A0
A0
C0
A0
A0
A0
ENDCHAR
STARTCHAR S
ENCODING 83
SWIDTH 375 0
DWIDTH 3 0
BBX 3 7 0 0
BITMAP
40
A0
80
40
20
A0
40
ENDCHAR
STARTCHAR T
ENCODING 84
SWIDTH 375 0
DWIDTH 3 0
BBX 3 7 0 0
BITMAP
E0
40
40
40
40
40
40
ENDCHAR
STARTCHAR U
ENCODING 85
SWIDTH 375 0
DWIDTH 3 0
BBX 3 7 0 0
BITMAP
A0
A0
A0
A0
A0
A0
E0
ENDCHAR
STARTCHAR V
ENCODING 86
SWIDTH 375 0
DWIDTH 3 0
BBX 3 7 0 0
BITMAP
A0
A0
A0
A0
A0
40
40
ENDCHAR
STARTCHAR W
ENCODING 87
SWIDTH 375 0
DWIDTH 3 0
BBX 3 7 0 0
BITMAP
A0
A0
A0
E0
E0
E0
A0
ENDCHAR
STARTCHAR X
ENCODING 88
SWIDTH 375 0
DWIDTH 3 0
BBX 3 7 0 0
BITMAP
A0
A0
40
40
40
A0
A0
ENDCHAR
STARTCHAR Y
ENCODING 89
SWIDTH 375 0
DWIDTH 3 0
BBX 3 7 0 0
BITMAP
A0
A0
A0
40
40
40
40
ENDCHAR
STARTCHAR Z
ENCODING 90
SWIDTH 375 0
DWIDTH 3 0
BBX 3 7 0 0
BITMAP
E0
20
40
40
40
80
E0
ENDCHAR
STARTCHAR bracketleft
ENCODING 91
SWIDTH 375 0
DWIDTH 3 0
BBX 2 7 1 0
BITMAP
C0
80
80
80
80
80
C0
ENDCHAR
STARTCHAR backslash
ENCODING 92
SWIDTH 375 0
DWIDTH 3 0
BBX 3 3 0 2
BITMAP
80
40
20
ENDCHAR
STARTCHAR bracketright
ENCODING 93
SWIDTH 375 0
DWIDTH 3 0
BBX 2 7 0 0
BITMAP
C0
40
40
40
40
40
C0
ENDCHAR
STARTCHAR asciicircum
ENCODING 94
SWIDTH 375 0
DWIDTH 3 0
BBX 3 2 0 5
BITMAP
40
A0
ENDCHAR
STARTCHAR underscore
ENCODING 95
SWIDTH 375 0
DWIDTH 3 0
BBX 3 1 0 0
BITMAP
E0
ENDCHAR
STARTCHAR grave
ENCODING 96
SWIDTH 375 0
DWIDTH 3 0
BBX 2 2 1 5
BITMAP
80
40
ENDCHAR
STARTCHAR a
ENCODING 97
SWIDTH 375 0
DWIDTH 3 0
BBX 3 5 0 0
BITMAP
C0
20
60
A0
60
ENDCHAR
STARTCHAR b
ENCODING 98
SWIDTH 375 0
DWIDTH 3 0
BBX 3 7 0 0
BITMAP
80
80
C0
A0
A0
A0
C0
ENDCHAR
STARTCHAR c
ENCODING 99
SWIDTH 375 0
DWIDTH 3 0
BBX 3 5 0 0
BITMAP
60
80
80
80
60
ENDCHAR
STARTCHAR d
ENCODING 100
SWIDTH 375 0
DWIDTH 3 0
BBX 3 7 0 0
BITMAP
20
20
60
A0
A0
A0
60
ENDCHAR
STARTCHAR e
ENCODING 101
SWIDTH 375 0
DWIDTH 3 0
BBX 3 5 0 0
BITMAP
40
A0
E0
80
60
ENDCHAR
STARTCHAR f
ENCODING 102
SWIDTH 375 0
DWIDTH 3 0
BBX 3 7 0 0
BITMAP
60
40
E0
40
40
40
40
ENDCHAR
STARTCHAR g
ENCODING 103
SWIDTH 375 0
DWIDTH 3 0
BBX 3 5 0 0
BITMAP
60
A0
60
20
C0
ENDCHAR
STARTCHAR h
ENCODING 104
SWIDTH 375 0
DWIDTH 3 0
BBX 3 7 0 0
BITMAP
80
80
C0
A0
A0
A0
A0
ENDCHAR
STARTCHAR i
ENCODING 105
SWIDTH 375 0
DWIDTH 3 0
BBX 1 7 1 0
BITMAP
80
00
80
80
80
80
80
ENDCHAR
STARTCHAR j
ENCODING 106
SWIDTH 375 0
DWIDTH 3 0
BBX 3 7 0 0
BITMAP
20
00
20
20
20
A0
40
ENDCHAR
STARTCHAR k
ENCODING 107
SWIDTH 375 0
DWIDTH 3 0
BBX 3 7 0 0
BITMAP
80
80
A0
A0
C0
A0
A0
ENDCHAR
STARTCHAR l
ENCODING 108
SWIDTH 375 0
DWIDTH 3 0
BBX 2 7 0 0
BITMAP
C0
40
40
40
40
40
40
ENDCHAR
STARTCHAR m
ENCODING 109
SWIDTH 375 0
DWIDTH 3 0
BBX 3 5 0 0
BITMAP
C0
E0
E0
E0
A0
ENDCHAR
STARTCHAR n
ENCODING 110
SWIDTH 375 0
DWIDTH 3 0
BBX 3 5 0 0
BITMAP
C0
A0
A0
A0
A0
ENDCHAR
STARTCHAR o
ENCODING 111
SWIDTH 375 0
DWIDTH 3 0
BBX 3 5 0 0
BITMAP
40
A0
A0
A0
40
ENDCHAR
STARTCHAR p
ENCODING 112
SWIDTH 375 0
DWIDTH 3 0
BBX 3 5 0 0
BITMAP
C0
A0
A0
C0
80
ENDCHAR
STARTCHAR q
ENCODING 113
SWIDTH 375 0
DWIDTH 3 0
BBX 3 5 0 0
BITMAP
60
A0
A0
60
20
ENDCHAR
STARTCHAR r
ENCODING 114
SWIDTH 375 0
DWIDTH 3 0
BBX 3 5 0 0
BITMAP
A0
C0
80
80
80
ENDCHAR
STARTCHAR s
ENCODING 115
SWIDTH 375 0
DWIDTH 3 0
BBX 3 5 0 0
BITMAP
60
80
40
20
C0
ENDCHAR
STARTCHAR t
ENCODING 116
SWIDTH 375 0
DWIDTH 3 0
BBX 3 6 0 0
BITMAP
40
E0
40
40
40
60
ENDCHAR
STARTCHAR u
ENCODING 117
SWIDTH 375 0
DWIDTH 3 0
BBX 3 5 0 0
BITMAP
A0
A0
A0
A0
E0
ENDCHAR
STARTCHAR v
ENCODING 118
SWIDTH 375 0
DWIDTH 3 0
BBX 3 5 0 0
BITMAP
A0
A0
A0
40
40
ENDCHAR
STARTCHAR w
ENCODING 119
SWIDTH 375 0
DWIDTH 3 0
BBX 3 5 0 0
BITMAP
A0
A0
E0
E0
A0
ENDCHAR
STARTCHAR x
ENCODING 120
SWIDTH 375 0
DWIDTH 3 0
BBX 3 5 0 0
BITMAP
A0
A0
40
A0
A0
ENDCHAR
STARTCHAR y
ENCODING 121
SWIDTH 375 0
DWIDTH 3 0
BBX 3 5 0 0
BITMAP
A0
A0
60
20
C0
ENDCHAR
STARTCHAR z
ENCODING 122
SWIDTH 375 0
DWIDTH 3 0
BBX 3 5 0 0
BITMAP
E0
20
40
80
E0
ENDCHAR
STARTCHAR braceleft
ENCODING 123
SWIDTH 375 0
DWIDTH 3 0
BBX 3 7 0 0
BITMAP
20
40
40
80
40
40
20
ENDCHAR
STARTCHAR bar
ENCODING 124
SWIDTH 375 0
DWIDTH 3 0
BBX 1 7 1 0
BITMAP
80
80
80
80
80
80
80
ENDCHAR
STARTCHAR braceright
ENCODING 125
SWIDTH 375 0
DWIDTH 3 0
BBX 3 7 0 0
BITMAP
80
40
40
20
40
40
80
ENDCHAR
STARTCHAR asciitilde
ENCODING 126
SWIDTH 375 0
DWIDTH 3 0
BBX 3 2 0 3
BITMAP
C0
60
ENDCHAR
STARTCHAR cent
ENCODING 162
SWIDTH 375 0
DWIDTH 3 0
BBX 3 7 0 0
BITMAP
40
40
E0
80
E0
40
40
ENDCHAR
STARTCHAR sterling
ENCODING 163
SWIDTH 375 0
DWIDTH 3 0
BBX 3 7 0 0
BITMAP
60
40
E0
40
40
80
E0
ENDCHAR
STARTCHAR yen
ENCODING 165
SWIDTH 375 0
DWIDTH 3 0
BBX 3 7 0 0
BITMAP
A0
40
E0
40
E0
40
40
ENDCHAR
STARTCHAR brokenbar
ENCODING 166
SWIDTH 375 0
DWIDTH 3 0
BBX 1 7 1 0
BITMAP
80
80
80
00
80
80
80
ENDCHAR
STARTCHAR section
ENCODING 167
SWIDTH 750 0
DWIDTH 6 0
BBX 4 7 1 0
BITMAP
70
80
60
90
60
10
E0
ENDCHAR
STARTCHAR dieresis
ENCODING 168
SWIDTH 750 0
DWIDTH 6 0
BBX 3 1 1 6
BITMAP
A0
ENDCHAR
STARTCHAR logicalnot
ENCODING 172
SWIDTH 375 0
DWIDTH 3 0
BBX 3 2 0 2
BITMAP
E0
20
ENDCHAR
STARTCHAR uni00AD
ENCODING 173
SWIDTH 750 0
DWIDTH 6 0
BBX 2 1 2 3
BITMAP
C0
ENDCHAR
STARTCHAR macron
ENCODING 175
SWIDTH 375 0
DWIDTH 3 0
BBX 3 1 0 6
BITMAP
E0
ENDCHAR
STARTCHAR degree
ENCODING 176
SWIDTH 750 0
DWIDTH 6 0
BBX 3 4 0 3
BITMAP
40
A0
A0
40
ENDCHAR
STARTCHAR plusminus
ENCODING 177
SWIDTH 750 0
DWIDTH 6 0
BBX 5 7 0 0
BITMAP
20
20
F8
20
20
00
F8
ENDCHAR
STARTCHAR acute
ENCODING 180
SWIDTH 750 0
DWIDTH 6 0
BBX 2 2 2 5
BITMAP
40
80
ENDCHAR
STARTCHAR paragraph
ENCODING 182
SWIDTH 750 0
DWIDTH 6 0
BBX 5 7 0 0
BITMAP
78
E8
E8
68
28
28
28
ENDCHAR
STARTCHAR multiply
ENCODING 215
SWIDTH 750 0
DWIDTH 6 0
BBX 5 5 0 1
BITMAP
88
50
20
50
88
ENDCHAR
STARTCHAR divide
ENCODING 247
SWIDTH 750 0
DWIDTH 6 0
BBX 5 5 0 1
BITMAP
20
00
F8
00
20
ENDCHAR
STARTCHAR Alpha
ENCODING 913
SWIDTH 750 0
DWIDTH 6 0
BBX 5 7 0 0
BITMAP
20
50
88
88
F8
88
88
ENDCHAR
STARTCHAR Beta
ENCODING 914
SWIDTH 750 0
DWIDTH 6 0
BBX 5 7 0 0
BITMAP
F0
88
88
F0
88
88
F0
ENDCHAR
STARTCHAR Gamma
ENCODING 915
SWIDTH 750 0
DWIDTH 6 0
BBX 5 7 0 0
BITMAP
F8
80
80
80
80
80
80
ENDCHAR
STARTCHAR uni0394
ENCODING 916
SWIDTH 750 0
DWIDTH 6 0
BBX 5 7 0 0
BITMAP
20
20
50
50
88
88
F8
ENDCHAR
STARTCHAR Epsilon
ENCODING 917
SWIDTH 750 0
DWIDTH 6 0
BBX 5 7 0 0
BITMAP
F8
80
80
F0
80
80
F8
ENDCHAR
STARTCHAR Zeta
ENCODING 918
SWIDTH 750 0
DWIDTH 6 0
BBX 5 7 0 0
BITMAP
F8
08
10
20
40
80
F8
ENDCHAR
STARTCHAR Eta
ENCODING 919
SWIDTH 750 0
DWIDTH 6 0
BBX 5 7 0 0
BITMAP
88
88
88
F8
88
88
88
ENDCHAR
STARTCHAR Theta
ENCODING 920
SWIDTH 750 0
DWIDTH 6 0
BBX 5 7 0 0
BITMAP
70
88
D8
F8
D8
88
70
ENDCHAR
STARTCHAR Iota
ENCODING 921
SWIDTH 750 0
DWIDTH 6 0
BBX 3 7 1 0
BITMAP
E0
40
40
40
40
40
E0
ENDCHAR
STARTCHAR Kappa
ENCODING 922
SWIDTH 750 0
DWIDTH 6 0
BBX 5 7 0 0
BITMAP
88
90
A0
C0
A0
90
88
ENDCHAR
STARTCHAR Lambda
ENCODING 923
SWIDTH 750 0
DWIDTH 6 0
BBX 5 7 0 0
BITMAP
20
20
50
50
88
88
88
ENDCHAR
STARTCHAR Mu
ENCODING 924
SWIDTH 750 0
DWIDTH 6 0
BBX 5 7 0 0
BITMAP
88
D8
A8
A8
88
88
88
ENDCHAR
STARTCHAR Nu
ENCODING 925
SWIDTH 750 0
DWIDTH 6 0
BBX 5 7 0 0
BITMAP
88
88
C8
A8
98
88
88
ENDCHAR
STARTCHAR Xi
ENCODING 926
SWIDTH 750 0
DWIDTH 6 0
BBX 5 7 0 0
BITMAP
F8
00
00
70
00
00
F8
ENDCHAR
STARTCHAR Omicron
ENCODING 927
SWIDTH 750 0
DWIDTH 6 0
BBX 5 7 0 0
BITMAP
70
88
88
88
88
88
70
ENDCHAR
STARTCHAR Pi
ENCODING 928
SWIDTH 750 0
DWIDTH 6 0
BBX 5 7 0 0
BITMAP
F8
88
88
88
88
88
88
ENDCHAR
STARTCHAR Rho
ENCODING 929
SWIDTH 750 0
DWIDTH 6 0
BBX 5 7 0 0
BITMAP
F0
88
88
F0
80
80
80
ENDCHAR
STARTCHAR Sigma
ENCODING 931
SWIDTH 750 0
DWIDTH 6 0
BBX 5 7 0 0
BITMAP
F8
80
40
20
40
80
F8
ENDCHAR
STARTCHAR Tau
ENCODING 932
SWIDTH 750 0
DWIDTH 6 0
BBX 5 7 0 0
BITMAP
F8
20
20
20
20
20
20
ENDCHAR
STARTCHAR Upsilon
ENCODING 933
SWIDTH 750 0
DWIDTH 6 0
BBX 5 7 0 0
BITMAP
88
88
50
20
20
20
20
ENDCHAR
STARTCHAR Phi
ENCODING 934
SWIDTH 750 0
DWIDTH 6 0
BBX 5 7 0 0
BITMAP
20
70
A8
A8
A8
70
20
ENDCHAR
STARTCHAR Chi
ENCODING 935
SWIDTH 750 0
DWIDTH 6 0
BBX 5 7 0 0
BITMAP
88
88
50
20
50
88
88
ENDCHAR
STARTCHAR Psi
ENCODING 936
SWIDTH 750 0
DWIDTH 6 0
BBX 5 7 0 0
BITMAP
A8
A8
A8
70
20
20
20
ENDCHAR
STARTCHAR uni03A9
ENCODING 937
SWIDTH 750 0
DWIDTH 6 0
BBX 5 7 0 0
BITMAP
70
88
88
88
50
50
D8
ENDCHAR
STARTCHAR alpha
ENCODING 945
SWIDTH 750 0
DWIDTH 6 0
BBX 5 5 0 0
BITMAP
28
50
90
A0
58
ENDCHAR
STARTCHAR beta
ENCODING 946
SWIDTH 750 0
DWIDTH 6 0
BBX 5 7 0 0
BITMAP
30
48
50
88
C8
B0
80
ENDCHAR
STARTCHAR gamma
ENCODING 947
SWIDTH 750 0
DWIDTH 6 0
BBX 5 5 0 0
BITMAP
C8
30
20
60
40
ENDCHAR
STARTCHAR delta
ENCODING 948
SWIDTH 750 0
DWIDTH 6 0
BBX 5 7 0 0
BITMAP
30
48
20
50
90
90
60
ENDCHAR
STARTCHAR epsilon
ENCODING 949
SWIDTH 750 0
DWIDTH 6 0
BBX 5 5 0 0
BITMAP
30
48
60
88
70
ENDCHAR
STARTCHAR zeta
ENCODING 950
SWIDTH 750 0
DWIDTH 6 0
BBX 4 7 1 0
BITMAP
B0
40
80
80
40
20
C0
ENDCHAR
STARTCHAR eta
ENCODING 951
SWIDTH 750 0
DWIDTH 6 0
BBX 5 5 0 0
BITMAP
D0
28
48
50
10
ENDCHAR
STARTCHAR theta
ENCODING 952
SWIDTH 750 0
DWIDTH 6 0
BBX 5 7 0 0
BITMAP
30
48
48
F8
90
90
60
ENDCHAR
STARTCHAR iota
ENCODING 953
SWIDTH 750 0
DWIDTH 6 0
BBX 3 5 1 0
BITMAP
40
40
80
A0
40
ENDCHAR
STARTCHAR kappa
ENCODING 954
SWIDTH 750 0
DWIDTH 6 0
BBX 5 5 0 0
BITMAP
48
50
60
A0
98
ENDCHAR
STARTCHAR lambda
ENCODING 955
SWIDTH 750 0
DWIDTH 6 0
BBX 5 7 0 0
BITMAP
20
10
10
30
50
50
88
ENDCHAR
STARTCHAR uni03BC
ENCODING 956
SWIDTH 750 0
DWIDTH 6 0
BBX 5 5 0 0
BITMAP
48
48
50
A8
80
ENDCHAR
STARTCHAR nu
ENCODING 957
SWIDTH 750 0
DWIDTH 6 0
BBX 5 5 0 0
BITMAP
88
48
50
60
40
ENDCHAR
STARTCHAR xi
ENCODING 958
SWIDTH 750 0
DWIDTH 6 0
BBX 5 7 0 0
BITMAP
38
40
78
80
60
10
60
ENDCHAR
STARTCHAR omicron
ENCODING 959
SWIDTH 750 0
DWIDTH 6 0
BBX 5 5 0 0
BITMAP
30
48
88
90
60
ENDCHAR
STARTCHAR pi
ENCODING 960
SWIDTH 750 0
DWIDTH 6 0
BBX 5 5 0 0
BITMAP
F8
50
50
90
98
ENDCHAR
STARTCHAR rho
ENCODING 961
SWIDTH 750 0
DWIDTH 6 0
BBX 5 5 0 0
BITMAP
30
48
48
B0
80
ENDCHAR
STARTCHAR sigma
ENCODING 963
SWIDTH 750 0
DWIDTH 6 0
BBX 5 5 0 0
BITMAP
38
50
90
90
60
ENDCHAR
STARTCHAR tau
ENCODING 964
SWIDTH 750 0
DWIDTH 6 0
BBX 5 5 0 0
BITMAP
78
A0
20
28
10
ENDCHAR
STARTCHAR upsilon
ENCODING 965
SWIDTH 750 0
DWIDTH 6 0
BBX 5 5 0 0
BITMAP
68
A8
48
48
30
ENDCHAR
STARTCHAR phi
ENCODING 966
SWIDTH 750 0
DWIDTH 6 0
BBX 5 7 0 0
BITMAP
10
10
70
A8
A8
70
40
ENDCHAR
STARTCHAR chi
ENCODING 967
SWIDTH 750 0
DWIDTH 6 0
BBX 5 5 0 0
BITMAP
68
10
20
60
98
ENDCHAR
STARTCHAR psi
ENCODING 968
SWIDTH 750 0
DWIDTH 6 0
BBX 5 7 0 0
BITMAP
10
10
A0
A8
A8
70
40
ENDCHAR
STARTCHAR omega
ENCODING 969
SWIDTH 750 0
DWIDTH 6 0
BBX 5 5 0 0
BITMAP
48
88
A8
A8
50
ENDCHAR
STARTCHAR afii10023
ENCODING 1025
SWIDTH 750 0
DWIDTH 6 0
BBX 5 7 0 0
BITMAP
50
F8
80
F0
80
80
F8
ENDCHAR
STARTCHAR afii10017
ENCODING 1040
SWIDTH 750 0
DWIDTH 6 0
BBX 5 7 0 0
BITMAP
20
50
88
88
F8
88
88
ENDCHAR
STARTCHAR afii10018
ENCODING 1041
SWIDTH 750 0
DWIDTH 6 0
BBX 5 7 0 0
BITMAP
F8
80
80
F0
88
88
F0
ENDCHAR
STARTCHAR afii10019
ENCODING 1042
SWIDTH 750 0
DWIDTH 6 0
BBX 5 7 0 0
BITMAP
F0
88
88
F0
88
88
F0
ENDCHAR
STARTCHAR afii10020
ENCODING 1043
SWIDTH 750 0
DWIDTH 6 0
BBX 5 7 0 0
BITMAP
F8
80
80
80
80
80
80
ENDCHAR
STARTCHAR afii10021
ENCODING 1044
SWIDTH 750 0
DWIDTH 6 0
BBX 5 7 0 0
BITMAP
70
50
50
50
90
F8
88
ENDCHAR
STARTCHAR afii10022
ENCODING 1045
SWIDTH 750 0
DWIDTH 6 0
BBX 5 7 0 0
BITMAP
F8
80
80
F0
80
80
F8
ENDCHAR
STARTCHAR afii10024
ENCODING 1046
SWIDTH 750 0
DWIDTH 6 0
BBX 5 7 0 0
BITMAP
A8
A8
70
20
70
A8
A8
ENDCHAR
STARTCHAR afii10025
ENCODING 1047
SWIDTH 750 0
DWIDTH 6 0
BBX 5 7 0 0
BITMAP
70
88
08
30
08
88
70
ENDCHAR
STARTCHAR afii10026
ENCODING 1048
SWIDTH 750 0
DWIDTH 6 0
BBX 5 7 0 0
BITMAP
88
88
98
A8
C8
88
88
ENDCHAR
STARTCHAR afii10027
ENCODING 1049
SWIDTH 750 0
DWIDTH 6 0
BBX 5 7 0 0
BITMAP
50
20
88
98
A8
C8
88
ENDCHAR
STARTCHAR afii10028
ENCODING 1050
SWIDTH 750 0
DWIDTH 6 0
BBX 5 7 0 0
BITMAP
98
A0
A0
C0
A0
90
88
ENDCHAR
STARTCHAR afii10029
ENCODING 1051
SWIDTH 750 0
DWIDTH 6 0
BBX 5 7 0 0
BITMAP
78
48
48
48
48
48
88
ENDCHAR
STARTCHAR afii10030
ENCODING 1052
SWIDTH 750 0
DWIDTH 6 0
BBX 5 7 0 0
BITMAP
88
D8
A8
A8
88
88
88
ENDCHAR
STARTCHAR afii10031
ENCODING 1053
SWIDTH 750 0
DWIDTH 6 0
BBX 5 7 0 0
BITMAP
88
88
88
F8
88
88
88
ENDCHAR
STARTCHAR afii10032
ENCODING 1054
SWIDTH 750 0
DWIDTH 6 0
BBX 5 7 0 0
BITMAP
70
88
88
88
88
88
70
ENDCHAR
STARTCHAR afii10033
ENCODING 1055
SWIDTH 750 0
DWIDTH 6 0
BBX 5 7 0 0
BITMAP
F8
88
88
88
88
88
88
ENDCHAR
STARTCHAR afii10034
ENCODING 1056
SWIDTH 750 0
DWIDTH 6 0
BBX 5 7 0 0
BITMAP
F0
88
88
F0
80
80
80
ENDCHAR
STARTCHAR afii10035
ENCODING 1057
SWIDTH 750 0
DWIDTH 6 0
BBX 5 7 0 0
BITMAP
70
88
80
80
80
88
70
ENDCHAR
STARTCHAR afii10036
ENCODING 1058
SWIDTH 750 0
DWIDTH 6 0
BBX 5 7 0 0
BITMAP
F8
20
20
20
20
20
20
ENDCHAR
STARTCHAR afii10037
ENCODING 1059
SWIDTH 750 0
DWIDTH 6 0
BBX 5 7 0 0
BITMAP
88
88
50
50
20
20
C0
ENDCHAR
STARTCHAR afii10038
ENCODING 1060
SWIDTH 750 0
DWIDTH 6 0
BBX 5 7 0 0
BITMAP
20
70
A8
A8
A8
70
20
ENDCHAR
STARTCHAR afii10039
ENCODING 1061
SWIDTH 750 0
DWIDTH 6 0
BBX 5 7 0 0
BITMAP
88
88
50
20
50
88
88
ENDCHAR
STARTCHAR afii10040
ENCODING 1062
SWIDTH 750 0
DWIDTH 6 0
BBX 5 7 0 0
BITMAP
90
90
90
90
90
F8
08
ENDCHAR
STARTCHAR afii10041
ENCODING 1063
SWIDTH 750 0
DWIDTH 6 0
BBX 5 7 0 0
BITMAP
88
88
88
88
78
08
08
ENDCHAR
STARTCHAR afii10042
ENCODING 1064
SWIDTH 750 0
DWIDTH 6 0
BBX 5 7 0 0
BITMAP
A8
A8
A8
A8
A8
A8
F8
ENDCHAR
STARTCHAR afii10043
ENCODING 1065
SWIDTH 750 0
DWIDTH 6 0
BBX 5 7 0 0
BITMAP
A8
A8
A8
A8
A8
F8
08
ENDCHAR
STARTCHAR afii10044
ENCODING 1066
SWIDTH 750 0
DWIDTH 6 0
BBX 5 7 0 0
BITMAP
C0
40
40
70
48
48
70
ENDCHAR
STARTCHAR afii10045
ENCODING 1067
SWIDTH 750 0
DWIDTH 6 0
BBX 5 7 0 0
BITMAP
88
88
88
E8
98
98
E8
ENDCHAR
STARTCHAR afii10046
ENCODING 1068
SWIDTH 750 0
DWIDTH 6 0
BBX 5 7 0 0
BITMAP
80
80
80
F0
88
88
F0
ENDCHAR
STARTCHAR afii10047
ENCODING 1069
SWIDTH 750 0
DWIDTH 6 0
BBX 5 7 0 0
BITMAP
70
88
08
78
08
88
70
ENDCHAR
STARTCHAR afii10048
ENCODING 1070
SWIDTH 750 0
DWIDTH 6 0
BBX 5 7 0 0
BITMAP
90
A8
A8
E8
A8
A8
90
ENDCHAR
STARTCHAR afii10049
ENCODING 1071
SWIDTH 750 0
DWIDTH 6 0
BBX 5 7 0 0
BITMAP
78
88
88
78
48
48
88
ENDCHAR
STARTCHAR afii10065
ENCODING 1072
SWIDTH 750 0
DWIDTH 6 0
BBX 5 5 0 0
BITMAP
70
08
78
88
78
ENDCHAR
STARTCHAR afii10066
ENCODING 1073
SWIDTH 750 0
DWIDTH 6 0
BBX 5 7 0 0
BITMAP
30
40
F0
88
88
88
70
ENDCHAR
STARTCHAR afii10067
ENCODING 1074
SWIDTH 750 0
DWIDTH 6 0
BBX 5 5 0 0
BITMAP
F0
88
F0
88
F0
ENDCHAR
STARTCHAR afii10068
ENCODING 1075
SWIDTH 750 0
DWIDTH 6 0
BBX 5 5 0 0
BITMAP
F8
80
80
80
80
ENDCHAR
STARTCHAR afii10069
ENCODING 1076
SWIDTH 750 0
DWIDTH 6 0
BBX 5 5 0 0
BITMAP
70
50
90
F8
88
ENDCHAR
STARTCHAR afii10070
ENCODING 1077
SWIDTH 750 0
DWIDTH 6 0
BBX 5 5 0 0
BITMAP
70
88
F8
80
70
ENDCHAR
STARTCHAR afii10072
ENCODING 1078
SWIDTH 750 0
DWIDTH 6 0
BBX 5 5 0 0
BITMAP
A8
A8
70
A8
A8
ENDCHAR
STARTCHAR afii10073
ENCODING 1079
SWIDTH 750 0
DWIDTH 6 0
BBX 5 5 0 0
BITMAP
70
88
30
88
70
ENDCHAR
STARTCHAR afii10074
ENCODING 1080
SWIDTH 750 0
DWIDTH 6 0
BBX 5 5 0 0
BITMAP
88
98
A8
C8
88
ENDCHAR
STARTCHAR afii10075
ENCODING 1081
SWIDTH 750 0
DWIDTH 6 0
BBX 5 6 0 0
BITMAP
50
20
98
A8
C8
88
ENDCHAR
STARTCHAR afii10076
ENCODING 1082
SWIDTH 750 0
DWIDTH 6 0
BBX 5 5 0 0
BITMAP
98
A0
E0
90
88
ENDCHAR
STARTCHAR afii10077
ENCODING 1083
SWIDTH 750 0
DWIDTH 6 0
BBX 5 5 0 0
BITMAP
78
48
48
48
88
ENDCHAR
STARTCHAR afii10078
ENCODING 1084
SWIDTH 750 0
DWIDTH 6 0
BBX 5 5 0 0
BITMAP
88
D8
A8
A8
88
ENDCHAR
STARTCHAR afii10079
ENCODING 1085
SWIDTH 750 0
DWIDTH 6 0
BBX 5 5 0 0
BITMAP
88
88
F8
88
88
ENDCHAR
STARTCHAR afii10080
ENCODING 1086
SWIDTH 750 0
DWIDTH 6 0
BBX 5 5 0 0
BITMAP
70
88
88
88
70
ENDCHAR
STARTCHAR afii10081
ENCODING 1087
SWIDTH 750 0
DWIDTH 6 0
BBX 5 5 0 0
BITMAP
F8
88
88
88
88
ENDCHAR
STARTCHAR afii10082
ENCODING 1088
SWIDTH 750 0
DWIDTH 6 0
BBX 5 5 0 0
BITMAP
F0
88
88
F0
80
ENDCHAR
STARTCHAR afii10083
ENCODING 1089
SWIDTH 750 0
DWIDTH 6 0
BBX 5 5 0 0
BITMAP
70
80
80
88
70
ENDCHAR
STARTCHAR afii10084
ENCODING 1090
SWIDTH 750 0
DWIDTH 6 0
BBX 5 5 0 0
BITMAP
F8
20
20
20
20
ENDCHAR
STARTCHAR afii10085
ENCODING 1091
SWIDTH 750 0
DWIDTH 6 0
BBX 5 5 0 0
BITMAP
88
88
78
08
70
ENDCHAR
STARTCHAR afii10086
ENCODING 1092
SWIDTH 750 0
DWIDTH 6 0
BBX 5 7 0 0
BITMAP
20
20
70
A8
A8
70
20
ENDCHAR
STARTCHAR afii10087
ENCODING 1093
SWIDTH 750 0
DWIDTH 6 0
BBX 5 5 0 0
BITMAP
88
50
20
50
88
ENDCHAR
STARTCHAR afii10088
ENCODING 1094
SWIDTH 750 0
DWIDTH 6 0
BBX 5 5 0 0
BITMAP
90
90
90
F8
08
ENDCHAR
STARTCHAR afii10089
ENCODING 1095
SWIDTH 750 0
DWIDTH 6 0
BBX 5 5 0 0
BITMAP
88
88
88
78
08
ENDCHAR
STARTCHAR afii10090
ENCODING 1096
SWIDTH 750 0
DWIDTH 6 0
BBX 5 5 0 0
BITMAP
A8
A8
A8
A8
F8
ENDCHAR
STARTCHAR afii10091
ENCODING 1097
SWIDTH 750 0
DWIDTH 6 0
BBX 5 5 0 0
BITMAP
A8
A8
A8
F8
08
ENDCHAR
STARTCHAR afii10092
ENCODING 1098
SWIDTH 750 0
DWIDTH 6 0
BBX 5 5 0 0
BITMAP
C0
40
70
48
70
ENDCHAR
STARTCHAR afii10093
ENCODING 1099
SWIDTH 750 0
DWIDTH 6 0
BBX 5 5 0 0
BITMAP
88
88
E8
98
E8
ENDCHAR
STARTCHAR afii10094
ENCODING 1100
SWIDTH 750 0
DWIDTH 6 0
BBX 5 5 0 0
BITMAP
80
80
F0
88
F0
ENDCHAR
STARTCHAR afii10095
ENCODING 1101
SWIDTH 750 0
DWIDTH 6 0
BBX 5 5 0 0
BITMAP
70
88
38
88
70
ENDCHAR
STARTCHAR afii10096
ENCODING 1102
SWIDTH 750 0
DWIDTH 6 0
BBX 5 5 0 0
BITMAP
90
A8
E8
A8
90
ENDCHAR
STARTCHAR afii10097
ENCODING 1103
SWIDTH 750 0
DWIDTH 6 0
BBX 5 5 0 0
BITMAP
78
88
78
48
88
ENDCHAR
STARTCHAR afii10071
ENCODING 1105
SWIDTH 750 0
DWIDTH 6 0
BBX 5 7 0 0
BITMAP
50
00
70
88
F8
80
70
ENDCHAR
STARTCHAR uni2010
ENCODING 8208
SWIDTH 750 0
DWIDTH 6 0
BBX 3 1 1 3
BITMAP
E0
ENDCHAR
STARTCHAR uni2011
ENCODING 8209
SWIDTH 375 0
DWIDTH 3 0
BBX 2 1 0 3
BITMAP
C0
ENDCHAR
STARTCHAR figuredash
ENCODING 8210
SWIDTH 375 0
DWIDTH 3 0
BBX 3 1 0 3
BITMAP
E0
ENDCHAR
STARTCHAR endash
ENCODING 8211
SWIDTH 750 0
DWIDTH 6 0
BBX 3 1 1 3
BITMAP
E0
ENDCHAR
STARTCHAR emdash
ENCODING 8212
SWIDTH 750 0
DWIDTH 6 0
BBX 5 1 0 3
BITMAP
F8
ENDCHAR
STARTCHAR afii00208
ENCODING 8213
SWIDTH 750 0
DWIDTH 6 0
BBX 6 1 0 3
BITMAP
FC
ENDCHAR
STARTCHAR uni2016
ENCODING 8214
SWIDTH 750 0
DWIDTH 6 0
BBX 3 7 1 0
BITMAP
A0
A0
A0
A0
A0
A0
A0
ENDCHAR
STARTCHAR quoteleft
ENCODING 8216
SWIDTH 750 0
DWIDTH 6 0
BBX 2 3 2 4
BITMAP
40
80
C0
ENDCHAR
STARTCHAR quoteright
ENCODING 8217
SWIDTH 750 0
DWIDTH 6 0
BBX 2 3 1 4
BITMAP
C0
40
80
ENDCHAR
STARTCHAR quotedblleft
ENCODING 8220
SWIDTH 750 0
DWIDTH 6 0
BBX 5 3 0 4
BITMAP
48
90
D8
ENDCHAR
STARTCHAR quotedblright
ENCODING 8221
SWIDTH 750 0
DWIDTH 6 0
BBX 5 3 0 4
BITMAP
D8
48
90
ENDCHAR
STARTCHAR dagger
ENCODING 8224
SWIDTH 750 0
DWIDTH 6 0
BBX 3 7 1 0
BITMAP
40
E0
40
40
40
40
40
ENDCHAR
STARTCHAR daggerdbl
ENCODING 8225
SWIDTH 750 0
DWIDTH 6 0
BBX 3 7 1 0
BITMAP
40
E0
40
40
40
E0
40
ENDCHAR
STARTCHAR twodotenleader
ENCODING 8229
SWIDTH 750 0
DWIDTH 6 0
BBX 4 1 0 3
BITMAP
90
ENDCHAR
STARTCHAR ellipsis
ENCODING 8230
SWIDTH 750 0
DWIDTH 6 0
BBX 5 1 0 3
BITMAP
A8
ENDCHAR
STARTCHAR perthousand
ENCODING 8240
SWIDTH 750 0
DWIDTH 6 0
BBX 5 7 0 0
BITMAP
C8
D0
20
40
80
D8
D8
ENDCHAR
STARTCHAR minute
ENCODING 8242
SWIDTH 750 0
DWIDTH 6 0
BBX 2 3 0 4
BITMAP
40
40
80
ENDCHAR
STARTCHAR second
ENCODING 8243
SWIDTH 750 0
DWIDTH 6 0
BBX 4 3 0 4
BITMAP
50
50
A0
ENDCHAR
STARTCHAR uni203B
ENCODING 8251
SWIDTH 750 0
DWIDTH 6 0
BBX 5 7 0 0
BITMAP
20
88
50
A8
50
88
20
ENDCHAR
STARTCHAR uni203E
ENCODING 8254
SWIDTH 750 0
DWIDTH 6 0
BBX 5 1 0 6
BITMAP
F8
ENDCHAR
STARTCHAR uni2103
ENCODING 8451
SWIDTH 750 0
DWIDTH 6 0
BBX 5 7 0 0
BITMAP
40
B0
68
20
20
28
10
ENDCHAR
STARTCHAR uni212B
ENCODING 8491
SWIDTH 750 0
DWIDTH 6 0
BBX 5 7 0 0
BITMAP
20
50
20
50
88
F8
88
ENDCHAR
STARTCHAR arrowleft
ENCODING 8592
SWIDTH 750 0
DWIDTH 6 0
BBX 5 5 0 1
BITMAP
20
40
F8
40
20
ENDCHAR
STARTCHAR arrowup
ENCODING 8593
SWIDTH 750 0
DWIDTH 6 0
BBX 5 7 0 0
BITMAP
20
70
A8
20
20
20
20
ENDCHAR
STARTCHAR arrowright
ENCODING 8594
SWIDTH 750 0
DWIDTH 6 0
BBX 5 5 0 1
BITMAP
20
10
F8
10
20
ENDCHAR
STARTCHAR arrowdown
ENCODING 8595
SWIDTH 750 0
DWIDTH 6 0
BBX 5 7 0 0
BITMAP
20
20
20
20
A8
70
20
ENDCHAR
STARTCHAR arrowdblright
ENCODING 8658
SWIDTH 750 0
DWIDTH 6 0
BBX 5 5 0 1
BITMAP
20
F0
08
F0
20
ENDCHAR
STARTCHAR arrowdblboth
ENCODING 8660
SWIDTH 750 0
DWIDTH 6 0
BBX 5 5 0 1
BITMAP
50
70
88
70
50
ENDCHAR
STARTCHAR universal
ENCODING 8704
SWIDTH 750 0
DWIDTH 6 0
BBX 5 7 0 0
BITMAP
88
88
70
50
50
20
20
ENDCHAR
STARTCHAR partialdiff
ENCODING 8706
SWIDTH 750 0
DWIDTH 6 0
BBX 5 7 0 0
BITMAP
30
48
08
68
90
90
60
ENDCHAR
STARTCHAR existential
ENCODING 8707
SWIDTH 750 0
DWIDTH 6 0
BBX 5 7 0 0
BITMAP
F8
08
08
F8
08
08
F8
ENDCHAR
STARTCHAR gradient
ENCODING 8711
SWIDTH 750 0
DWIDTH 6 0
BBX 5 7 0 0
BITMAP
F8
88
50
50
50
20
20
ENDCHAR
STARTCHAR element
ENCODING 8712
SWIDTH 750 0
DWIDTH 6 0
BBX 5 5 0 1
BITMAP
78
80
F8
80
78
ENDCHAR
STARTCHAR suchthat
ENCODING 8715
SWIDTH 750 0
DWIDTH 6 0
BBX 5 5 0 1
BITMAP
F0
08
F8
08
F0
ENDCHAR
STARTCHAR minus
ENCODING 8722
SWIDTH 375 0
DWIDTH 3 0
BBX 3 1 0 3
BITMAP
E0
ENDCHAR
STARTCHAR radical
ENCODING 8730
SWIDTH 750 0
DWIDTH 6 0
BBX 5 7 0 0
BITMAP
38
20
20
20
A0
60
20
ENDCHAR
STARTCHAR proportional
ENCODING 8733
SWIDTH 750 0
DWIDTH 6 0
BBX 5 5 0 1
BITMAP
50
A8
A0
A8
50
ENDCHAR
STARTCHAR infinity
ENCODING 8734
SWIDTH 750 0
DWIDTH 6 0
BBX 5 5 0 1
BITMAP
50
A8
A8
A8
50
ENDCHAR
STARTCHAR angle
ENCODING 8736
SWIDTH 750 0
DWIDTH 6 0
BBX 5 5 0 1
BITMAP
08
10
20
40
F8
ENDCHAR
STARTCHAR uni2225
ENCODING 8741
SWIDTH 750 0
DWIDTH 6 0
BBX 5 7 0 0
BITMAP
20
28
48
50
90
A0
20
ENDCHAR
STARTCHAR logicaland
ENCODING 8743
SWIDTH 750 0
DWIDTH 6 0
BBX 5 6 0 1
BITMAP
20
20
50
50
88
88
ENDCHAR
STARTCHAR logicalor
ENCODING 8744
SWIDTH 750 0
DWIDTH 6 0
BBX 5 6 0 0
BITMAP
88
88
50
50
20
20
ENDCHAR
STARTCHAR intersection
ENCODING 8745
SWIDTH 750 0
DWIDTH 6 0
BBX 5 5 0 1
BITMAP
70
88
88
88
88
ENDCHAR
STARTCHAR union
ENCODING 8746
SWIDTH 750 0
DWIDTH 6 0
BBX 5 5 0 1
BITMAP
88
88
88
88
70
ENDCHAR
STARTCHAR integral
ENCODING 8747
SWIDTH 750 0
DWIDTH 6 0
BBX 5 7 0 0
BITMAP
10
28
20
20
20
A0
40
ENDCHAR
STARTCHAR uni222C
ENCODING 8748
SWIDTH 750 0
DWIDTH 6 0
BBX 5 7 0 0
BITMAP
28
50
50
50
50
50
A0
ENDCHAR
STARTCHAR therefore
ENCODING 8756
SWIDTH 750 0
DWIDTH 6 0
BBX 5 5 0 1
BITMAP
20
00
00
00
88
ENDCHAR
STARTCHAR uni2235
ENCODING 8757
SWIDTH 750 0
DWIDTH 6 0
BBX 5 5 0 1
BITMAP
88
00
00
00
20
ENDCHAR
STARTCHAR uni223D
ENCODING 8765
SWIDTH 750 0
DWIDTH 6 0
BBX 5 5 0 1
BITMAP
10
A8
A8
A8
40
ENDCHAR
STARTCHAR uni2252
ENCODING 8786
SWIDTH 750 0
DWIDTH 6 0
BBX 5 7 0 0
BITMAP
40
00
F8
00
F8
00
10
ENDCHAR
STARTCHAR notequal
ENCODING 8800
SWIDTH 750 0
DWIDTH 6 0
BBX 5 5 0 1
BITMAP
10
F8
20
F8
40
ENDCHAR
STARTCHAR equivalence
ENCODING 8801
SWIDTH 750 0
DWIDTH 6 0
BBX 5 5 0 1
BITMAP
F8
00
F8
00
F8
ENDCHAR
STARTCHAR uni2266
ENCODING 8806
SWIDTH 750 0
DWIDTH 6 0
BBX 5 7 0 0
BITMAP
18
60
80
60
18
00
F8
ENDCHAR
STARTCHAR uni2267
ENCODING 8807
SWIDTH 750 0
DWIDTH 6 0
BBX 5 7 0 0
BITMAP
C0
30
08
30
C0
00
F8
ENDCHAR
STARTCHAR uni226A
ENCODING 8810
SWIDTH 750 0
DWIDTH 6 0
BBX 5 5 0 1
BITMAP
28
50
A0
50
28
ENDCHAR
STARTCHAR uni226B
ENCODING 8811
SWIDTH 750 0
DWIDTH 6 0
BBX 5 5 0 1
BITMAP
A0
50
28
50
A0
ENDCHAR
STARTCHAR propersubset
ENCODING 8834
SWIDTH 750 0
DWIDTH 6 0
BBX 5 5 0 1
BITMAP
78
80
80
80
78
ENDCHAR
STARTCHAR propersuperset
ENCODING 8835
SWIDTH 750 0
DWIDTH 6 0
BBX 5 5 0 1
BITMAP
F0
08
08
08
F0
ENDCHAR
STARTCHAR reflexsubset
ENCODING 8838
SWIDTH 750 0
DWIDTH 6 0
BBX 5 7 0 0
BITMAP
78
80
80
80
78
00
F8
ENDCHAR
STARTCHAR reflexsuperset
ENCODING 8839
SWIDTH 750 0
DWIDTH 6 0
BBX 5 7 0 0
BITMAP
F0
08
08
08
F0
00
F8
ENDCHAR
STARTCHAR perpendicular
ENCODING 8869
SWIDTH 750 0
DWIDTH 6 0
BBX 5 5 0 1
BITMAP
20
20
20
20
F8
ENDCHAR
STARTCHAR uni2312
ENCODING 8978
SWIDTH 750 0
DWIDTH 6 0
BBX 5 2 0 5
BITMAP
70
88
ENDCHAR
STARTCHAR uni2423
ENCODING 9251
SWIDTH 375 0
DWIDTH 3 0
BBX 3 2 0 0
BITMAP
A0
E0
ENDCHAR
STARTCHAR SF100000
ENCODING 9472
SWIDTH 750 0
DWIDTH 6 0
BBX 6 1 0 3
BITMAP
FC
ENDCHAR
STARTCHAR uni2501
ENCODING 9473
SWIDTH 750 0
DWIDTH 6 0
BBX 6 2 0 2
BITMAP
FC
FC
ENDCHAR
STARTCHAR SF110000
ENCODING 9474
SWIDTH 750 0
DWIDTH 6 0
BBX 1 8 2 -1
BITMAP
80
80
80
80
80
80
80
80
ENDCHAR
STARTCHAR uni2503
ENCODING 9475
SWIDTH 750 0
DWIDTH 6 0
BBX 2 8 2 -1
BITMAP
C0
C0
C0
C0
C0
C0
C0
C0
ENDCHAR
STARTCHAR SF010000
ENCODING 9484
SWIDTH 750 0
DWIDTH 6 0
BBX 4 5 2 -1
BITMAP
F0
80
80
80
80
ENDCHAR
STARTCHAR uni250F
ENCODING 9487
SWIDTH 750 0
DWIDTH 6 0
BBX 4 5 2 -1
BITMAP
F0
F0
C0
C0
C0
ENDCHAR
STARTCHAR SF030000
ENCODING 9488
SWIDTH 750 0
DWIDTH 6 0
BBX 3 5 0 -1
BITMAP
E0
20
20
20
20
ENDCHAR
STARTCHAR uni2513
ENCODING 9491
SWIDTH 750 0
DWIDTH 6 0
BBX 4 5 0 -1
BITMAP
F0
F0
30
30
30
ENDCHAR
STARTCHAR SF020000
ENCODING 9492
SWIDTH 750 0
DWIDTH 6 0
BBX 4 4 2 3
BITMAP
80
80
80
F0
ENDCHAR
STARTCHAR uni2517
ENCODING 9495
SWIDTH 750 0
DWIDTH 6 0
BBX 4 5 2 2
BITMAP
C0
C0
C0
F0
F0
ENDCHAR
STARTCHAR SF040000
ENCODING 9496
SWIDTH 750 0
DWIDTH 6 0
BBX 3 4 0 3
BITMAP
20
20
20
E0
ENDCHAR
STARTCHAR uni251B
ENCODING 9499
SWIDTH 750 0
DWIDTH 6 0
BBX 4 5 0 2
BITMAP
30
30
30
F0
F0
ENDCHAR
STARTCHAR SF080000
ENCODING 9500
SWIDTH 750 0
DWIDTH 6 0
BBX 4 8 2 -1
BITMAP
80
80
80
F0
80
80
80
80
ENDCHAR
STARTCHAR uni251D
ENCODING 9501
SWIDTH 750 0
DWIDTH 6 0
BBX 4 8 2 -1
BITMAP
80
80
80
F0
F0
80
80
80
ENDCHAR
STARTCHAR uni2520
ENCODING 9504
SWIDTH 750 0
DWIDTH 6 0
BBX 4 8 2 -1
BITMAP
C0
C0
C0
F0
C0
C0
C0
C0
ENDCHAR
STARTCHAR uni2523
ENCODING 9507
SWIDTH 750 0
DWIDTH 6 0
BBX 4 8 2 -1
BITMAP
C0
C0
C0
F0
F0
C0
C0
C0
ENDCHAR
STARTCHAR SF090000
ENCODING 9508
SWIDTH 750 0
DWIDTH 6 0
BBX 3 8 0 -1
BITMAP
20
20
20
E0
20
20
20
20
ENDCHAR
STARTCHAR uni2525
ENCODING 9509
SWIDTH 750 0
DWIDTH 6 0
BBX 3 8 0 -1
BITMAP
20
20
20
E0
E0
20
20
20
ENDCHAR
STARTCHAR uni2528
ENCODING 9512
SWIDTH 750 0
DWIDTH 6 0
BBX 4 8 0 -1
BITMAP
30
30
30
F0
30
30
30
30
ENDCHAR
STARTCHAR uni252B
ENCODING 9515
SWIDTH 750 0
DWIDTH 6 0
BBX 4 8 0 -1
BITMAP
30
30
30
F0
F0
30
30
30
ENDCHAR
STARTCHAR SF060000
ENCODING 9516
SWIDTH 750 0
DWIDTH 6 0
BBX 6 5 0 -1
BITMAP
FC
20
20
20
20
ENDCHAR
STARTCHAR uni252F
ENCODING 9519
SWIDTH 750 0
DWIDTH 6 0
BBX 6 5 0 -1
BITMAP
FC
FC
20
20
20
ENDCHAR
STARTCHAR uni2530
ENCODING 9520
SWIDTH 750 0
DWIDTH 6 0
BBX 6 5 0 -1
BITMAP
FC
30
30
30
30
ENDCHAR
STARTCHAR uni2533
ENCODING 9523
SWIDTH 750 0
DWIDTH 6 0
BBX 6 5 0 -1
BITMAP
FC
FC
30
30
30
ENDCHAR
STARTCHAR SF070000
ENCODING 9524
SWIDTH 750 0
DWIDTH 6 0
BBX 6 4 0 3
BITMAP
20
20
20
FC
ENDCHAR
STARTCHAR uni2537
ENCODING 9527
SWIDTH 750 0
DWIDTH 6 0
BBX 6 5 0 2
BITMAP
20
20
20
FC
FC
ENDCHAR
STARTCHAR uni2538
ENCODING 9528
SWIDTH 750 0
DWIDTH 6 0
BBX 6 4 0 3
BITMAP
30
30
30
FC
ENDCHAR
STARTCHAR uni253B
ENCODING 9531
SWIDTH 750 0
DWIDTH 6 0
BBX 6 5 0 2
BITMAP
30
30
30
FC
FC
ENDCHAR
STARTCHAR SF050000
ENCODING 9532
SWIDTH 750 0
DWIDTH 6 0
BBX 6 8 0 -1
BITMAP
20
20
20
FC
20
20
20
20
ENDCHAR
STARTCHAR uni253F
ENCODING 9535
SWIDTH 750 0
DWIDTH 6 0
BBX 6 8 0 -1
BITMAP
20
20
20
FC
FC
20
20
20
ENDCHAR
STARTCHAR uni2542
ENCODING 9538
SWIDTH 750 0
DWIDTH 6 0
BBX 6 8 0 -1
BITMAP
30
30
30
FC
30
30
30
30
ENDCHAR
STARTCHAR uni254B
ENCODING 9547
SWIDTH 750 0
DWIDTH 6 0
BBX 6 8 0 -1
BITMAP
30
30
30
FC
FC
30
30
30
ENDCHAR
STARTCHAR SF430000
ENCODING 9552
SWIDTH 750 0
DWIDTH 6 0
BBX 6 3 0 2
BITMAP
FC
00
FC
ENDCHAR
STARTCHAR SF360000
ENCODING 9566
SWIDTH 750 0
DWIDTH 6 0
BBX 4 8 2 -1
BITMAP
80
80
F0
80
F0
80
80
80
ENDCHAR
STARTCHAR SF190000
ENCODING 9569
SWIDTH 750 0
DWIDTH 6 0
BBX 3 8 0 -1
BITMAP
20
20
E0
20
E0
20
20
20
ENDCHAR
STARTCHAR SF540000
ENCODING 9578
SWIDTH 750 0
DWIDTH 6 0
BBX 6 8 0 -1
BITMAP
20
20
FC
20
FC
20
20
20
ENDCHAR
STARTCHAR uni256D
ENCODING 9581
SWIDTH 750 0
DWIDTH 6 0
BBX 4 5 2 -1
BITMAP
30
40
80
80
80
ENDCHAR
STARTCHAR uni256E
ENCODING 9582
SWIDTH 750 0
DWIDTH 6 0
BBX 3 5 0 -1
BITMAP
80
40
20
20
20
ENDCHAR
STARTCHAR uni256F
ENCODING 9583
SWIDTH 750 0
DWIDTH 6 0
BBX 3 4 0 3
BITMAP
20
20
40
80
ENDCHAR
STARTCHAR uni2570
ENCODING 9584
SWIDTH 750 0
DWIDTH 6 0
BBX 4 4 2 3
BITMAP
80
80
40
30
ENDCHAR
STARTCHAR uni2571
ENCODING 9585
SWIDTH 750 0
DWIDTH 6 0
BBX 6 8 0 -1
BITMAP
04
08
08
10
20
40
40
80
ENDCHAR
STARTCHAR uni2572
ENCODING 9586
SWIDTH 750 0
DWIDTH 6 0
BBX 6 8 0 -1
BITMAP
80
40
40
20
10
08
08
04
ENDCHAR
STARTCHAR uni2573
ENCODING 9587
SWIDTH 750 0
DWIDTH 6 0
BBX 6 8 0 -1
BITMAP
84
48
48
30
30
48
48
84
ENDCHAR
STARTCHAR uni2581
ENCODING 9601
SWIDTH 750 0
DWIDTH 6 0
BBX 6 1 0 -1
BITMAP
FC
ENDCHAR
STARTCHAR uni2582
ENCODING 9602
SWIDTH 750 0
DWIDTH 6 0
BBX 6 2 0 -1
BITMAP
FC
FC
ENDCHAR
STARTCHAR uni2583
ENCODING 9603
SWIDTH 750 0
DWIDTH 6 0
BBX 6 3 0 -1
BITMAP
FC
FC
FC
ENDCHAR
STARTCHAR dnblock
ENCODING 9604
SWIDTH 750 0
DWIDTH 6 0
BBX 6 4 0 -1
BITMAP
FC
FC
FC
FC
ENDCHAR
STARTCHAR uni2585
ENCODING 9605
SWIDTH 750 0
DWIDTH 6 0
BBX 6 5 0 -1
BITMAP
FC
FC
FC
FC
FC
ENDCHAR
STARTCHAR uni2586
ENCODING 9606
SWIDTH 750 0
DWIDTH 6 0
BBX 6 6 0 -1
BITMAP
FC
FC
FC
FC
FC
FC
ENDCHAR
STARTCHAR uni2587
ENCODING 9607
SWIDTH 750 0
DWIDTH 6 0
BBX 6 7 0 -1
BITMAP
FC
FC
FC
FC
FC
FC
FC
ENDCHAR
STARTCHAR block
ENCODING 9608
SWIDTH 750 0
DWIDTH 6 0
BBX 6 8 0 -1
BITMAP
FC
FC
FC
FC
FC
FC
FC
FC
ENDCHAR
STARTCHAR uni2589
ENCODING 9609
SWIDTH 750 0
DWIDTH 6 0
BBX 5 8 0 -1
BITMAP
F8
F8
F8
F8
F8
F8
F8
F8
ENDCHAR
STARTCHAR uni258A
ENCODING 9610
SWIDTH 750 0
DWIDTH 6 0
BBX 4 8 0 -1
BITMAP
F0
F0
F0
F0
F0
F0
F0
F0
ENDCHAR
STARTCHAR uni258B
ENCODING 9611
SWIDTH 750 0
DWIDTH 6 0
BBX 4 8 0 -1
BITMAP
F0
F0
F0
F0
F0
F0
F0
F0
ENDCHAR
STARTCHAR lfblock
ENCODING 9612
SWIDTH 750 0
DWIDTH 6 0
BBX 3 8 0 -1
BITMAP
E0
E0
E0
E0
E0
E0
E0
E0
ENDCHAR
STARTCHAR uni258D
ENCODING 9613
SWIDTH 750 0
DWIDTH 6 0
BBX 2 8 0 -1
BITMAP
C0
C0
C0
C0
C0
C0
C0
C0
ENDCHAR
STARTCHAR uni258E
ENCODING 9614
SWIDTH 750 0
DWIDTH 6 0
BBX 2 8 0 -1
BITMAP
C0
C0
C0
C0
C0
C0
C0
C0
ENDCHAR
STARTCHAR uni258F
ENCODING 9615
SWIDTH 750 0
DWIDTH 6 0
BBX 1 8 0 -1
BITMAP
80
80
80
80
80
80
80
80
ENDCHAR
STARTCHAR uni2594
ENCODING 9620
SWIDTH 750 0
DWIDTH 6 0
BBX 6 1 0 6
BITMAP
FC
ENDCHAR
STARTCHAR uni2595
ENCODING 9621
SWIDTH 750 0
DWIDTH 6 0
BBX 1 8 5 -1
BITMAP
80
80
80
80
80
80
80
80
ENDCHAR
STARTCHAR filledbox
ENCODING 9632
SWIDTH 750 0
DWIDTH 6 0
BBX 5 5 0 1
BITMAP
F8
F8
F8
F8
F8
ENDCHAR
STARTCHAR H22073
ENCODING 9633
SWIDTH 750 0
DWIDTH 6 0
BBX 5 5 0 1
BITMAP
F8
88
88
88
F8
ENDCHAR
STARTCHAR triagup
ENCODING 9650
SWIDTH 750 0
DWIDTH 6 0
BBX 5 6 0 1
BITMAP
20
20
70
70
F8
F8
ENDCHAR
STARTCHAR uni25B3
ENCODING 9651
SWIDTH 750 0
DWIDTH 6 0
BBX 5 6 0 1
BITMAP
20
20
50
50
88
F8
ENDCHAR
STARTCHAR triagdn
ENCODING 9660
SWIDTH 750 0
DWIDTH 6 0
BBX 5 6 0 0
BITMAP
F8
F8
70
70
20
20
ENDCHAR
STARTCHAR uni25BD
ENCODING 9661
SWIDTH 750 0
DWIDTH 6 0
BBX 5 6 0 0
BITMAP
F8
88
50
50
20
20
ENDCHAR
STARTCHAR uni25C6
ENCODING 9670
SWIDTH 750 0
DWIDTH 6 0
BBX 5 5 0 1
BITMAP
20
70
F8
70
20
ENDCHAR
STARTCHAR uni25C7
ENCODING 9671
SWIDTH 750 0
DWIDTH 6 0
BBX 5 5 0 1
BITMAP
20
50
88
50
20
ENDCHAR
STARTCHAR circle
ENCODING 9675
SWIDTH 750 0
DWIDTH 6 0
BBX 5 5 0 1
BITMAP
70
88
88
88
70
ENDCHAR
STARTCHAR uni25CE
ENCODING 9678
SWIDTH 750 0
DWIDTH 6 0
BBX 5 5 0 1
BITMAP
70
A8
D8
A8
70
ENDCHAR
STARTCHAR H18533
ENCODING 9679
SWIDTH 750 0
DWIDTH 6 0
BBX 5 5 0 1
BITMAP
70
F8
F8
F8
70
ENDCHAR
STARTCHAR uni25E2
ENCODING 9698
SWIDTH 750 0
DWIDTH 6 0
BBX 6 8 0 -1
BITMAP
04
0C
0C
1C
3C
7C
7C
FC
ENDCHAR
STARTCHAR uni25E3
ENCODING 9699
SWIDTH 750 0
DWIDTH 6 0
BBX 6 8 0 -1
BITMAP
80
C0
C0
E0
F0
F8
F8
FC
ENDCHAR
STARTCHAR uni25E4
ENCODING 9700
SWIDTH 750 0
DWIDTH 6 0
BBX 6 8 0 -1
BITMAP
FC
F8
F0
F0
E0
C0
C0
80
ENDCHAR
STARTCHAR uni25E5
ENCODING 9701
SWIDTH 750 0
DWIDTH 6 0
BBX 6 8 0 -1
BITMAP
FC
7C
3C
3C
1C
0C
0C
04
ENDCHAR
STARTCHAR uni25EF
ENCODING 9711
SWIDTH 750 0
DWIDTH 6 0
BBX 5 7 0 0
BITMAP
70
88
88
88
88
88
70
ENDCHAR
STARTCHAR uni2605
ENCODING 9733
SWIDTH 750 0
DWIDTH 6 0
BBX 5 7 0 0
BITMAP
20
20
F8
70
70
D8
88
ENDCHAR
STARTCHAR uni2606
ENCODING 9734
SWIDTH 750 0
DWIDTH 6 0
BBX 5 7 0 0
BITMAP
20
20
F8
50
70
D8
88
ENDCHAR
STARTCHAR female
ENCODING 9792
SWIDTH 750 0
DWIDTH 6 0
BBX 5 7 0 0
BITMAP
70
88
88
70
20
F8
20
ENDCHAR
STARTCHAR male
ENCODING 9794
SWIDTH 750 0
DWIDTH 6 0
BBX 5 7 0 0
BITMAP
38
18
28
60
90
90
60
ENDCHAR
STARTCHAR spade
ENCODING 9824
SWIDTH 750 0
DWIDTH 6 0
BBX 5 7 0 0
BITMAP
20
70
F8
F8
F8
20
70
ENDCHAR
STARTCHAR uni2661
ENCODING 9825
SWIDTH 750 0
DWIDTH 6 0
BBX 5 6 0 0
BITMAP
D8
A8
88
88
50
20
ENDCHAR
STARTCHAR uni2662
ENCODING 9826
SWIDTH 750 0
DWIDTH 6 0
BBX 5 7 0 0
BITMAP
20
50
88
88
88
50
20
ENDCHAR
STARTCHAR club
ENCODING 9827
SWIDTH 750 0
DWIDTH 6 0
BBX 5 7 0 0
BITMAP
70
70
70
F8
F8
20
70
ENDCHAR
STARTCHAR uni2664
ENCODING 9828
SWIDTH 750 0
DWIDTH 6 0
BBX 5 7 0 0
BITMAP
20
50
88
88
F8
20
70
ENDCHAR
STARTCHAR heart
ENCODING 9829
SWIDTH 750 0
DWIDTH 6 0
BBX 5 6 0 0
BITMAP
D8
F8
F8
F8
70
20
ENDCHAR
STARTCHAR diamond
ENCODING 9830
SWIDTH 750 0
DWIDTH 6 0
BBX 5 7 0 0
BITMAP
20
70
F8
F8
F8
70
20
ENDCHAR
STARTCHAR uni2667
ENCODING 9831
SWIDTH 750 0
DWIDTH 6 0
BBX 5 7 0 0
BITMAP
70
50
70
A8
F8
20
70
ENDCHAR
STARTCHAR musicalnote
ENCODING 9834
SWIDTH 750 0
DWIDTH 6 0
BBX 5 7 0 0
BITMAP
20
30
38
28
28
E0
C0
ENDCHAR
STARTCHAR uni266D
ENCODING 9837
SWIDTH 750 0
DWIDTH 6 0
BBX 4 7 1 0
BITMAP
80
80
A0
D0
90
A0
C0
ENDCHAR
STARTCHAR uni266F
ENCODING 9839
SWIDTH 750 0
DWIDTH 6 0
BBX 5 7 0 0
BITMAP
10
58
70
D8
70
D0
40
ENDCHAR
STARTCHAR uni3000
ENCODING 12288
SWIDTH 750 0
DWIDTH 6 0
BBX 0 0 0 0
BITMAP
ENDCHAR
STARTCHAR uni3001
ENCODING 12289
SWIDTH 750 0
DWIDTH 6 0
BBX 2 2 0 0
BITMAP
80
40
ENDCHAR
STARTCHAR uni3002
ENCODING 12290
SWIDTH 750 0
DWIDTH 6 0
BBX 3 3 0 0
BITMAP
40
A0
40
ENDCHAR
STARTCHAR uni3003
ENCODING 12291
SWIDTH 750 0
DWIDTH 6 0
BBX 5 4 0 1
BITMAP
48
48
48
90
ENDCHAR
STARTCHAR uni3005
ENCODING 12293
SWIDTH 750 0
DWIDTH 6 0
BBX 5 6 0 0
BITMAP
40
78
48
90
20
10
ENDCHAR
STARTCHAR uni3006
ENCODING 12294
SWIDTH 750 0
DWIDTH 6 0
BBX 5 7 0 0
BITMAP
08
08
68
90
A8
C0
80
ENDCHAR
STARTCHAR uni3007
ENCODING 12295
SWIDTH 750 0
DWIDTH 6 0
BBX 5 4 0 1
BITMAP
70
88
88
70
ENDCHAR
STARTCHAR uni3008
ENCODING 12296
SWIDTH 750 0
DWIDTH 6 0
BBX 4 7 0 0
BITMAP
10
20
40
80
40
20
10
ENDCHAR
STARTCHAR uni3009
ENCODING 12297
SWIDTH 750 0
DWIDTH 6 0
BBX 4 7 1 0
BITMAP
80
40
20
10
20
40
80
ENDCHAR
STARTCHAR uni300A
ENCODING 12298
SWIDTH 750 0
DWIDTH 6 0
BBX 5 7 0 0
BITMAP
10
28
50
A0
50
28
10
ENDCHAR
STARTCHAR uni300B
ENCODING 12299
SWIDTH 750 0
DWIDTH 6 0
BBX 5 7 0 0
BITMAP
40
A0
50
28
50
A0
40
ENDCHAR
STARTCHAR uni300C
ENCODING 12300
SWIDTH 750 0
DWIDTH 6 0
BBX 3 5 2 2
BITMAP
E0
80
80
80
80
ENDCHAR
STARTCHAR uni300D
ENCODING 12301
SWIDTH 750 0
DWIDTH 6 0
BBX 3 5 0 0
BITMAP
20
20
20
20
E0
ENDCHAR
STARTCHAR uni300E
ENCODING 12302
SWIDTH 750 0
DWIDTH 6 0
BBX 4 6 1 1
BITMAP
F0
90
B0
A0
A0
E0
ENDCHAR
STARTCHAR uni300F
ENCODING 12303
SWIDTH 750 0
DWIDTH 6 0
BBX 4 6 0 0
BITMAP
70
50
50
D0
90
F0
ENDCHAR
STARTCHAR uni3010
ENCODING 12304
SWIDTH 750 0
DWIDTH 6 0
BBX 3 7 1 0
BITMAP
E0
C0
80
80
80
C0
E0
ENDCHAR
STARTCHAR uni3011
ENCODING 12305
SWIDTH 750 0
DWIDTH 6 0
BBX 3 7 1 0
BITMAP
E0
60
20
20
20
60
E0
ENDCHAR
STARTCHAR uni3012
ENCODING 12306
SWIDTH 750 0
DWIDTH 6 0
BBX 5 6 0 0
BITMAP
F8
00
F8
20
20
20
ENDCHAR
STARTCHAR uni3013
ENCODING 12307
SWIDTH 750 0
DWIDTH 6 0
BBX 5 5 0 1
BITMAP
F8
F8
00
F8
F8
ENDCHAR
STARTCHAR uni3014
ENCODING 12308
SWIDTH 750 0
DWIDTH 6 0
BBX 4 7 0 0
BITMAP
30
C0
80
80
80
C0
30
ENDCHAR
STARTCHAR uni3015
ENCODING 12309
SWIDTH 750 0
DWIDTH 6 0
BBX 4 7 1 0
BITMAP
C0
30
10
10
10
30
C0
ENDCHAR
STARTCHAR uni301C
ENCODING 12316
SWIDTH 750 0
DWIDTH 6 0
BBX 5 3 0 2
BITMAP
40
A8
10
ENDCHAR
STARTCHAR uni3041
ENCODING 12353
SWIDTH 750 0
DWIDTH 6 0
BBX 5 6 0 0
BITMAP
20
70
20
70
A8
58
ENDCHAR
STARTCHAR uni3042
ENCODING 12354
SWIDTH 750 0
DWIDTH 6 0
BBX 5 7 0 0
BITMAP
20
70
20
70
A8
B8
68
ENDCHAR
STARTCHAR uni3043
ENCODING 12355
SWIDTH 750 0
DWIDTH 6 0
BBX 5 5 0 0
BITMAP
90
88
88
A0
40
ENDCHAR
STARTCHAR uni3044
ENCODING 12356
SWIDTH 750 0
DWIDTH 6 0
BBX 5 6 0 0
BITMAP
90
88
88
88
A0
40
ENDCHAR
STARTCHAR uni3045
ENCODING 12357
SWIDTH 750 0
DWIDTH 6 0
BBX 5 6 0 0
BITMAP
70
00
70
88
10
60
ENDCHAR
STARTCHAR uni3046
ENCODING 12358
SWIDTH 750 0
DWIDTH 6 0
BBX 5 7 0 0
BITMAP
70
00
70
88
08
10
60
ENDCHAR
STARTCHAR uni3047
ENCODING 12359
SWIDTH 750 0
DWIDTH 6 0
BBX 5 6 0 0
BITMAP
70
00
F0
10
60
98
ENDCHAR
STARTCHAR uni3048
ENCODING 12360
SWIDTH 750 0
DWIDTH 6 0
BBX 5 7 0 0
BITMAP
70
00
F0
10
20
50
98
ENDCHAR
STARTCHAR uni3049
ENCODING 12361
SWIDTH 750 0
DWIDTH 6 0
BBX 5 6 0 0
BITMAP
40
E8
40
70
C8
50
ENDCHAR
STARTCHAR uni304A
ENCODING 12362
SWIDTH 750 0
DWIDTH 6 0
BBX 5 7 0 0
BITMAP
40
E8
40
70
C8
C8
50
ENDCHAR
STARTCHAR uni304B
ENCODING 12363
SWIDTH 750 0
DWIDTH 6 0
BBX 5 7 0 0
BITMAP
40
E8
58
50
90
90
A0
ENDCHAR
STARTCHAR uni304C
ENCODING 12364
SWIDTH 750 0
DWIDTH 6 0
BBX 5 7 0 0
BITMAP
40
E8
50
58
90
90
A0
ENDCHAR
STARTCHAR uni304D
ENCODING 12365
SWIDTH 750 0
DWIDTH 6 0
BBX 5 7 0 0
BITMAP
20
F0
20
F8
50
80
70
ENDCHAR
STARTCHAR uni304E
ENCODING 12366
SWIDTH 750 0
DWIDTH 6 0
BBX 5 7 0 0
BITMAP
28
F0
20
F8
50
80
70
ENDCHAR
STARTCHAR uni304F
ENCODING 12367
SWIDTH 750 0
DWIDTH 6 0
BBX 4 7 0 0
BITMAP
10
10
60
80
60
10
10
ENDCHAR
STARTCHAR uni3050
ENCODING 12368
SWIDTH 750 0
DWIDTH 6 0
BBX 5 7 0 0
BITMAP
10
10
68
80
60
10
10
ENDCHAR
STARTCHAR uni3051
ENCODING 12369
SWIDTH 750 0
DWIDTH 6 0
BBX 5 7 0 0
BITMAP
90
90
B8
90
90
90
20
ENDCHAR
STARTCHAR uni3052
ENCODING 12370
SWIDTH 750 0
DWIDTH 6 0
BBX 5 7 0 0
BITMAP
A8
90
B8
90
90
90
20
ENDCHAR
STARTCHAR uni3053
ENCODING 12371
SWIDTH 750 0
DWIDTH 6 0
BBX 5 6 0 0
BITMAP
70
00
00
40
80
78
ENDCHAR
STARTCHAR uni3054
ENCODING 12372
SWIDTH 750 0
DWIDTH 6 0
BBX 5 7 0 0
BITMAP
28
70
00
00
40
80
78
ENDCHAR
STARTCHAR uni3055
ENCODING 12373
SWIDTH 750 0
DWIDTH 6 0
BBX 5 7 0 0
BITMAP
20
F8
10
70
90
80
70
ENDCHAR
STARTCHAR uni3056
ENCODING 12374
SWIDTH 750 0
DWIDTH 6 0
BBX 5 7 0 0
BITMAP
28
F8
10
70
90
80
70
ENDCHAR
STARTCHAR uni3057
ENCODING 12375
SWIDTH 750 0
DWIDTH 6 0
BBX 4 7 1 0
BITMAP
80
80
80
80
80
90
60
ENDCHAR
STARTCHAR uni3058
ENCODING 12376
SWIDTH 750 0
DWIDTH 6 0
BBX 4 7 1 0
BITMAP
50
80
80
80
80
90
60
ENDCHAR
STARTCHAR uni3059
ENCODING 12377
SWIDTH 750 0
DWIDTH 6 0
BBX 5 7 0 0
BITMAP
10
F8
50
50
30
10
20
ENDCHAR
STARTCHAR uni305A
ENCODING 12378
SWIDTH 750 0
DWIDTH 6 0
BBX 5 7 0 0
BITMAP
28
F8
50
50
30
10
20
ENDCHAR
STARTCHAR uni305B
ENCODING 12379
SWIDTH 750 0
DWIDTH 6 0
BBX 5 7 0 0
BITMAP
50
50
F8
50
50
40
38
ENDCHAR
STARTCHAR uni305C
ENCODING 12380
SWIDTH 750 0
DWIDTH 6 0
BBX 5 7 0 0
BITMAP
58
50
F8
50
50
40
38
ENDCHAR
STARTCHAR uni305D
ENCODING 12381
SWIDTH 750 0
DWIDTH 6 0
BBX 5 7 0 0
BITMAP
70
20
40
F8
20
40
30
ENDCHAR
STARTCHAR uni305E
ENCODING 12382
SWIDTH 750 0
DWIDTH 6 0
BBX 5 7 0 0
BITMAP
70
28
40
F8
20
40
30
ENDCHAR
STARTCHAR uni305F
ENCODING 12383
SWIDTH 750 0
DWIDTH 6 0
BBX 5 7 0 0
BITMAP
40
E0
58
40
90
A0
98
ENDCHAR
STARTCHAR uni3060
ENCODING 12384
SWIDTH 750 0
DWIDTH 6 0
BBX 5 7 0 0
BITMAP
48
E0
58
40
90
A0
98
ENDCHAR
STARTCHAR uni3061
ENCODING 12385
SWIDTH 750 0
DWIDTH 6 0
BBX 5 7 0 0
BITMAP
20
F8
40
70
48
08
70
ENDCHAR
STARTCHAR uni3062
ENCODING 12386
SWIDTH 750 0
DWIDTH 6 0
BBX 5 7 0 0
BITMAP
28
F8
40
70
48
08
70
ENDCHAR
STARTCHAR uni3063
ENCODING 12387
SWIDTH 750 0
DWIDTH 6 0
BBX 5 4 0 0
BITMAP
30
C8
08
30
ENDCHAR
STARTCHAR uni3064
ENCODING 12388
SWIDTH 750 0
DWIDTH 6 0
BBX 5 6 0 0
BITMAP
30
C8
08
08
10
60
ENDCHAR
STARTCHAR uni3065
ENCODING 12389
SWIDTH 750 0
DWIDTH 6 0
BBX 5 7 0 0
BITMAP
28
30
C8
08
08
10
60
ENDCHAR
STARTCHAR uni3066
ENCODING 12390
SWIDTH 750 0
DWIDTH 6 0
BBX 5 6 0 0
BITMAP
F8
20
40
40
20
18
ENDCHAR
STARTCHAR uni3067
ENCODING 12391
SWIDTH 750 0
DWIDTH 6 0
BBX 5 6 0 0
BITMAP
F8
20
48
40
20
18
ENDCHAR
STARTCHAR uni3068
ENCODING 12392
SWIDTH 750 0
DWIDTH 6 0
BBX 5 7 0 0
BITMAP
40
40
50
60
80
80
78
ENDCHAR
STARTCHAR uni3069
ENCODING 12393
SWIDTH 750 0
DWIDTH 6 0
BBX 5 7 0 0
BITMAP
50
40
50
60
80
80
78
ENDCHAR
STARTCHAR uni306A
ENCODING 12394
SWIDTH 750 0
DWIDTH 6 0
BBX 5 7 0 0
BITMAP
40
D8
50
90
30
58
30
ENDCHAR
STARTCHAR uni306B
ENCODING 12395
SWIDTH 750 0
DWIDTH 6 0
BBX 5 7 0 0
BITMAP
80
B8
80
80
A0
C0
B8
ENDCHAR
STARTCHAR uni306C
ENCODING 12396
SWIDTH 750 0
DWIDTH 6 0
BBX 5 7 0 0
BITMAP
50
50
68
A8
B8
A8
58
ENDCHAR
STARTCHAR uni306D
ENCODING 12397
SWIDTH 750 0
DWIDTH 6 0
BBX 5 7 0 0
BITMAP
40
D0
68
48
D8
68
58
ENDCHAR
STARTCHAR uni306E
ENCODING 12398
SWIDTH 750 0
DWIDTH 6 0
BBX 5 6 0 0
BITMAP
70
A8
A8
A8
C8
10
ENDCHAR
STARTCHAR uni306F
ENCODING 12399
SWIDTH 750 0
DWIDTH 6 0
BBX 5 7 0 0
BITMAP
90
B8
90
90
B0
D8
B0
ENDCHAR
STARTCHAR uni3070
ENCODING 12400
SWIDTH 750 0
DWIDTH 6 0
BBX 5 7 0 0
BITMAP
A8
F8
90
90
B0
D8
B0
ENDCHAR
STARTCHAR uni3071
ENCODING 12401
SWIDTH 750 0
DWIDTH 6 0
BBX 5 7 0 0
BITMAP
B8
E8
98
90
B0
D8
B0
ENDCHAR
STARTCHAR uni3072
ENCODING 12402
SWIDTH 750 0
DWIDTH 6 0
BBX 5 7 0 0
BITMAP
C0
50
58
90
90
90
60
ENDCHAR
STARTCHAR uni3073
ENCODING 12403
SWIDTH 750 0
DWIDTH 6 0
BBX 5 7 0 0
BITMAP
C8
50
58
90
90
90
60
ENDCHAR
STARTCHAR uni3074
ENCODING 12404
SWIDTH 750 0
DWIDTH 6 0
BBX 5 7 0 0
BITMAP
C0
58
A8
98
90
90
60
ENDCHAR
STARTCHAR uni3075
ENCODING 12405
SWIDTH 750 0
DWIDTH 6 0
BBX 5 7 0 0
BITMAP
60
10
20
20
10
D8
A8
ENDCHAR
STARTCHAR uni3076
ENCODING 12406
SWIDTH 750 0
DWIDTH 6 0
BBX 5 7 0 0
BITMAP
68
10
20
20
10
D8
A8
ENDCHAR
STARTCHAR uni3077
ENCODING 12407
SWIDTH 750 0
DWIDTH 6 0
BBX 5 7 0 0
BITMAP
78
28
18
20
10
D8
A8
ENDCHAR
STARTCHAR uni3078
ENCODING 12408
SWIDTH 750 0
DWIDTH 6 0
BBX 5 5 0 1
BITMAP
40
A0
A0
90
08
ENDCHAR
STARTCHAR uni3079
ENCODING 12409
SWIDTH 750 0
DWIDTH 6 0
BBX 5 6 0 1
BITMAP
28
40
A0
A0
90
08
ENDCHAR
STARTCHAR uni307A
ENCODING 12410
SWIDTH 750 0
DWIDTH 6 0
BBX 5 6 0 1
BITMAP
38
68
B8
A0
90
08
ENDCHAR
STARTCHAR uni307B
ENCODING 12411
SWIDTH 750 0
DWIDTH 6 0
BBX 5 7 0 0
BITMAP
B8
90
B8
90
B0
D8
B0
ENDCHAR
STARTCHAR uni307C
ENCODING 12412
SWIDTH 750 0
DWIDTH 6 0
BBX 5 7 0 0
BITMAP
A8
F8
90
B8
90
A8
B0
ENDCHAR
STARTCHAR uni307D
ENCODING 12413
SWIDTH 750 0
DWIDTH 6 0
BBX 5 7 0 0
BITMAP
B8
E8
90
B8
90
A8
B0
ENDCHAR
STARTCHAR uni307E
ENCODING 12414
SWIDTH 750 0
DWIDTH 6 0
BBX 5 7 0 0
BITMAP
20
F8
20
F8
20
F0
E8
ENDCHAR
STARTCHAR uni307F
ENCODING 12415
SWIDTH 750 0
DWIDTH 6 0
BBX 5 7 0 0
BITMAP
60
20
28
78
A8
A8
48
ENDCHAR
STARTCHAR uni3080
ENCODING 12416
SWIDTH 750 0
DWIDTH 6 0
BBX 5 7 0 0
BITMAP
40
E8
40
60
A8
C8
70
ENDCHAR
STARTCHAR uni3081
ENCODING 12417
SWIDTH 750 0
DWIDTH 6 0
BBX 5 7 0 0
BITMAP
50
50
68
A8
B8
A8
48
ENDCHAR
STARTCHAR uni3082
ENCODING 12418
SWIDTH 750 0
DWIDTH 6 0
BBX 5 7 0 0
BITMAP
20
F0
40
F0
48
48
30
ENDCHAR
STARTCHAR uni3083
ENCODING 12419
SWIDTH 750 0
DWIDTH 6 0
BBX 5 6 0 0
BITMAP
90
70
C8
58
20
20
ENDCHAR
STARTCHAR uni3084
ENCODING 12420
SWIDTH 750 0
DWIDTH 6 0
BBX 5 7 0 0
BITMAP
90
70
C8
58
40
20
20
ENDCHAR
STARTCHAR uni3085
ENCODING 12421
SWIDTH 750 0
DWIDTH 6 0
BBX 5 6 0 0
BITMAP
20
B0
E8
A8
30
40
ENDCHAR
STARTCHAR uni3086
ENCODING 12422
SWIDTH 750 0
DWIDTH 6 0
BBX 5 7 0 0
BITMAP
20
B0
E8
A8
A8
30
40
ENDCHAR
STARTCHAR uni3087
ENCODING 12423
SWIDTH 750 0
DWIDTH 6 0
BBX 5 6 0 0
BITMAP
20
30
20
60
B0
68
ENDCHAR
STARTCHAR uni3088
ENCODING 12424
SWIDTH 750 0
DWIDTH 6 0
BBX 5 7 0 0
BITMAP
20
38
20
60
A0
B0
68
ENDCHAR
STARTCHAR uni3089
ENCODING 12425
SWIDTH 750 0
DWIDTH 6 0
BBX 5 7 0 0
BITMAP
60
10
80
B0
C8
08
70
ENDCHAR
STARTCHAR uni308A
ENCODING 12426
SWIDTH 750 0
DWIDTH 6 0
BBX 4 7 1 0
BITMAP
A0
D0
90
90
10
20
40
ENDCHAR
STARTCHAR uni308B
ENCODING 12427
SWIDTH 750 0
DWIDTH 6 0
BBX 5 7 0 0
BITMAP
70
20
70
88
68
A8
70
ENDCHAR
STARTCHAR uni308C
ENCODING 12428
SWIDTH 750 0
DWIDTH 6 0
BBX 5 7 0 0
BITMAP
40
D0
68
48
D0
50
48
ENDCHAR
STARTCHAR uni308D
ENCODING 12429
SWIDTH 750 0
DWIDTH 6 0
BBX 5 7 0 0
BITMAP
70
10
20
70
88
08
70
ENDCHAR
STARTCHAR uni308E
ENCODING 12430
SWIDTH 750 0
DWIDTH 6 0
BBX 5 5 0 0
BITMAP
50
E8
48
C8
50
ENDCHAR
STARTCHAR uni308F
ENCODING 12431
SWIDTH 750 0
DWIDTH 6 0
BBX 5 7 0 0
BITMAP
40
D0
68
48
C8
48
50
ENDCHAR
STARTCHAR uni3090
ENCODING 12432
SWIDTH 750 0
DWIDTH 6 0
BBX 5 7 0 0
BITMAP
60
20
30
68
B8
A8
58
ENDCHAR
STARTCHAR uni3091
ENCODING 12433
SWIDTH 750 0
DWIDTH 6 0
BBX 5 7 0 0
BITMAP
70
20
70
88
30
50
A8
ENDCHAR
STARTCHAR uni3092
ENCODING 12434
SWIDTH 750 0
DWIDTH 6 0
BBX 5 7 0 0
BITMAP
20
F0
40
E8
30
50
78
ENDCHAR
STARTCHAR uni3093
ENCODING 12435
SWIDTH 750 0
DWIDTH 6 0
BBX 5 7 0 0
BITMAP
20
20
40
60
A0
A8
90
ENDCHAR
STARTCHAR uni309B
ENCODING 12443
SWIDTH 750 0
DWIDTH 6 0
BBX 4 2 0 5
BITMAP
A0
50
ENDCHAR
STARTCHAR uni309C
ENCODING 12444
SWIDTH 750 0
DWIDTH 6 0
BBX 3 3 0 4
BITMAP
40
A0
40
ENDCHAR
STARTCHAR uni309D
ENCODING 12445
SWIDTH 750 0
DWIDTH 6 0
BBX 4 4 1 1
BITMAP
C0
20
10
60
ENDCHAR
STARTCHAR uni309E
ENCODING 12446
SWIDTH 750 0
DWIDTH 6 0
BBX 4 6 1 1
BITMAP
50
00
C0
20
10
60
ENDCHAR
STARTCHAR uni30A1
ENCODING 12449
SWIDTH 750 0
DWIDTH 6 0
BBX 5 5 0 0
BITMAP
F8
28
30
20
40
ENDCHAR
STARTCHAR uni30A2
ENCODING 12450
SWIDTH 750 0
DWIDTH 6 0
BBX 5 7 0 0
BITMAP
F8
08
28
30
20
20
40
ENDCHAR
STARTCHAR uni30A3
ENCODING 12451
SWIDTH 750 0
DWIDTH 6 0
BBX 4 5 0 0
BITMAP
10
20
60
A0
20
ENDCHAR
STARTCHAR uni30A4
ENCODING 12452
SWIDTH 750 0
DWIDTH 6 0
BBX 4 7 0 0
BITMAP
10
10
20
60
A0
20
20
ENDCHAR
STARTCHAR uni30A5
ENCODING 12453
SWIDTH 750 0
DWIDTH 6 0
BBX 5 5 0 0
BITMAP
20
F8
88
10
60
ENDCHAR
STARTCHAR uni30A6
ENCODING 12454
SWIDTH 750 0
DWIDTH 6 0
BBX 5 7 0 0
BITMAP
20
F8
88
88
08
10
60
ENDCHAR
STARTCHAR uni30A7
ENCODING 12455
SWIDTH 750 0
DWIDTH 6 0
BBX 5 4 0 0
BITMAP
F8
20
20
F8
ENDCHAR
STARTCHAR uni30A8
ENCODING 12456
SWIDTH 750 0
DWIDTH 6 0
BBX 5 6 0 0
BITMAP
F8
20
20
20
20
F8
ENDCHAR
STARTCHAR uni30A9
ENCODING 12457
SWIDTH 750 0
DWIDTH 6 0
BBX 5 5 0 0
BITMAP
10
F8
50
90
30
ENDCHAR
STARTCHAR uni30AA
ENCODING 12458
SWIDTH 750 0
DWIDTH 6 0
BBX 5 7 0 0
BITMAP
10
F8
10
30
50
90
30
ENDCHAR
STARTCHAR uni30AB
ENCODING 12459
SWIDTH 750 0
DWIDTH 6 0
BBX 5 7 0 0
BITMAP
20
F8
28
28
48
48
98
ENDCHAR
STARTCHAR uni30AC
ENCODING 12460
SWIDTH 750 0
DWIDTH 6 0
BBX 5 7 0 0
BITMAP
28
F0
28
28
48
48
98
ENDCHAR
STARTCHAR uni30AD
ENCODING 12461
SWIDTH 750 0
DWIDTH 6 0
BBX 5 7 0 0
BITMAP
20
F8
20
20
F8
20
20
ENDCHAR
STARTCHAR uni30AE
ENCODING 12462
SWIDTH 750 0
DWIDTH 6 0
BBX 5 7 0 0
BITMAP
28
F8
20
20
F8
20
20
ENDCHAR
STARTCHAR uni30AF
ENCODING 12463
SWIDTH 750 0
DWIDTH 6 0
BBX 5 7 0 0
BITMAP
40
78
48
88
08
10
60
ENDCHAR
STARTCHAR uni30B0
ENCODING 12464
SWIDTH 750 0
DWIDTH 6 0
BBX 5 7 0 0
BITMAP
28
78
48
88
08
10
60
ENDCHAR
STARTCHAR uni30B1
ENCODING 12465
SWIDTH 750 0
DWIDTH 6 0
BBX 5 7 0 0
BITMAP
80
F8
A0
A0
20
20
40
ENDCHAR
STARTCHAR uni30B2
ENCODING 12466
SWIDTH 750 0
DWIDTH 6 0
BBX 5 7 0 0
BITMAP
80
F8
A0
A8
20
20
40
ENDCHAR
STARTCHAR uni30B3
ENCODING 12467
SWIDTH 750 0
DWIDTH 6 0
BBX 5 6 0 0
BITMAP
F8
08
08
08
08
F8
ENDCHAR
STARTCHAR uni30B4
ENCODING 12468
SWIDTH 750 0
DWIDTH 6 0
BBX 5 7 0 0
BITMAP
28
F8
08
08
08
08
F8
ENDCHAR
STARTCHAR uni30B5
ENCODING 12469
SWIDTH 750 0
DWIDTH 6 0
BBX 5 7 0 0
BITMAP
50
F8
50
50
10
20
40
ENDCHAR
STARTCHAR uni30B6
ENCODING 12470
SWIDTH 750 0
DWIDTH 6 0
BBX 5 7 0 0
BITMAP
58
F0
58
50
10
20
40
ENDCHAR
STARTCHAR uni30B7
ENCODING 12471
SWIDTH 750 0
DWIDTH 6 0
BBX 5 7 0 0
BITMAP
80
40
88
48
10
20
C0
ENDCHAR
STARTCHAR uni30B8
ENCODING 12472
SWIDTH 750 0
DWIDTH 6 0
BBX 5 7 0 0
BITMAP
A8
40
88
48
10
20
C0
ENDCHAR
STARTCHAR uni30B9
ENCODING 12473
SWIDTH 750 0
DWIDTH 6 0
BBX 5 6 0 0
BITMAP
F8
08
10
20
50
88
ENDCHAR
STARTCHAR uni30BA
ENCODING 12474
SWIDTH 750 0
DWIDTH 6 0
BBX 5 7 0 0
BITMAP
28
F8
08
10
20
50
88
ENDCHAR
STARTCHAR uni30BB
ENCODING 12475
SWIDTH 750 0
DWIDTH 6 0
BBX 5 7 0 0
BITMAP
40
F8
48
50
40
40
38
ENDCHAR
STARTCHAR uni30BC
ENCODING 12476
SWIDTH 750 0
DWIDTH 6 0
BBX 5 7 0 0
BITMAP
48
F0
48
50
40
40
38
ENDCHAR
STARTCHAR uni30BD
ENCODING 12477
SWIDTH 750 0
DWIDTH 6 0
BBX 5 6 0 0
BITMAP
88
48
48
08
10
60
ENDCHAR
STARTCHAR uni30BE
ENCODING 12478
SWIDTH 750 0
DWIDTH 6 0
BBX 5 7 0 0
BITMAP
28
80
48
48
08
10
60
ENDCHAR
STARTCHAR uni30BF
ENCODING 12479
SWIDTH 750 0
DWIDTH 6 0
BBX 5 7 0 0
BITMAP
40
78
48
A8
18
10
60
ENDCHAR
STARTCHAR uni30C0
ENCODING 12480
SWIDTH 750 0
DWIDTH 6 0
BBX 5 7 0 0
BITMAP
28
78
48
A8
18
10
60
ENDCHAR
STARTCHAR uni30C1
ENCODING 12481
SWIDTH 750 0
DWIDTH 6 0
BBX 5 7 0 0
BITMAP
10
60
20
F8
20
20
40
ENDCHAR
STARTCHAR uni30C2
ENCODING 12482
SWIDTH 750 0
DWIDTH 6 0
BBX 5 7 0 0
BITMAP
10
68
20
F8
20
20
40
ENDCHAR
STARTCHAR uni30C3
ENCODING 12483
SWIDTH 750 0
DWIDTH 6 0
BBX 5 4 0 0
BITMAP
A8
A8
10
60
ENDCHAR
STARTCHAR uni30C4
ENCODING 12484
SWIDTH 750 0
DWIDTH 6 0
BBX 5 6 0 0
BITMAP
A8
A8
A8
08
10
60
ENDCHAR
STARTCHAR uni30C5
ENCODING 12485
SWIDTH 750 0
DWIDTH 6 0
BBX 5 7 0 0
BITMAP
08
A0
A8
A8
08
10
60
ENDCHAR
STARTCHAR uni30C6
ENCODING 12486
SWIDTH 750 0
DWIDTH 6 0
BBX 5 7 0 0
BITMAP
70
00
F8
20
20
20
40
ENDCHAR
STARTCHAR uni30C7
ENCODING 12487
SWIDTH 750 0
DWIDTH 6 0
BBX 5 7 0 0
BITMAP
68
00
F8
20
20
20
40
ENDCHAR
STARTCHAR uni30C8
ENCODING 12488
SWIDTH 750 0
DWIDTH 6 0
BBX 3 7 1 0
BITMAP
80
80
80
C0
A0
80
80
ENDCHAR
STARTCHAR uni30C9
ENCODING 12489
SWIDTH 750 0
DWIDTH 6 0
BBX 4 7 1 0
BITMAP
50
80
80
C0
A0
80
80
ENDCHAR
STARTCHAR uni30CA
ENCODING 12490
SWIDTH 750 0
DWIDTH 6 0
BBX 5 7 0 0
BITMAP
20
20
F8
20
20
20
40
ENDCHAR
STARTCHAR uni30CB
ENCODING 12491
SWIDTH 750 0
DWIDTH 6 0
BBX 5 6 0 0
BITMAP
70
00
00
00
00
F8
ENDCHAR
STARTCHAR uni30CC
ENCODING 12492
SWIDTH 750 0
DWIDTH 6 0
BBX 5 6 0 0
BITMAP
F8
08
68
10
28
C0
ENDCHAR
STARTCHAR uni30CD
ENCODING 12493
SWIDTH 750 0
DWIDTH 6 0
BBX 5 7 0 0
BITMAP
20
F8
10
20
70
A8
20
ENDCHAR
STARTCHAR uni30CE
ENCODING 12494
SWIDTH 750 0
DWIDTH 6 0
BBX 4 7 0 0
BITMAP
10
10
10
20
20
40
80
ENDCHAR
STARTCHAR uni30CF
ENCODING 12495
SWIDTH 750 0
DWIDTH 6 0
BBX 5 7 0 0
BITMAP
50
50
50
48
88
88
88
ENDCHAR
STARTCHAR uni30D0
ENCODING 12496
SWIDTH 750 0
DWIDTH 6 0
BBX 5 7 0 0
BITMAP
28
40
50
50
48
88
88
ENDCHAR
STARTCHAR uni30D1
ENCODING 12497
SWIDTH 750 0
DWIDTH 6 0
BBX 5 7 0 0
BITMAP
38
28
18
50
48
88
88
ENDCHAR
STARTCHAR uni30D2
ENCODING 12498
SWIDTH 750 0
DWIDTH 6 0
BBX 5 7 0 0
BITMAP
80
80
98
E0
80
80
78
ENDCHAR
STARTCHAR uni30D3
ENCODING 12499
SWIDTH 750 0
DWIDTH 6 0
BBX 5 7 0 0
BITMAP
A8
80
98
E0
80
80
78
ENDCHAR
STARTCHAR uni30D4
ENCODING 12500
SWIDTH 750 0
DWIDTH 6 0
BBX 5 7 0 0
BITMAP
B8
A8
98
E0
80
80
78
ENDCHAR
STARTCHAR uni30D5
ENCODING 12501
SWIDTH 750 0
DWIDTH 6 0
BBX 5 6 0 0
BITMAP
F8
08
08
08
10
60
ENDCHAR
STARTCHAR uni30D6
ENCODING 12502
SWIDTH 750 0
DWIDTH 6 0
BBX 5 7 0 0
BITMAP
28
F8
08
08
08
10
60
ENDCHAR
STARTCHAR uni30D7
ENCODING 12503
SWIDTH 750 0
DWIDTH 6 0
BBX 5 7 0 0
BITMAP
38
E8
18
08
08
10
60
ENDCHAR
STARTCHAR uni30D8
ENCODING 12504
SWIDTH 750 0
DWIDTH 6 0
BBX 5 5 0 1
BITMAP
40
A0
90
08
08
ENDCHAR
STARTCHAR uni30D9
ENCODING 12505
SWIDTH 750 0
DWIDTH 6 0
BBX 5 6 0 1
BITMAP
28
40
A0
90
08
08
ENDCHAR
STARTCHAR uni30DA
ENCODING 12506
SWIDTH 750 0
DWIDTH 6 0
BBX 5 6 0 1
BITMAP
38
68
B8
90
08
08
ENDCHAR
STARTCHAR uni30DB
ENCODING 12507
SWIDTH 750 0
DWIDTH 6 0
BBX 5 7 0 0
BITMAP
20
20
F8
20
A8
A8
60
ENDCHAR
STARTCHAR uni30DC
ENCODING 12508
SWIDTH 750 0
DWIDTH 6 0
BBX 5 7 0 0
BITMAP
28
20
F8
20
A8
A8
60
ENDCHAR
STARTCHAR uni30DD
ENCODING 12509
SWIDTH 750 0
DWIDTH 6 0
BBX 5 7 0 0
BITMAP
38
28
F8
20
A8
A8
60
ENDCHAR
STARTCHAR uni30DE
ENCODING 12510
SWIDTH 750 0
DWIDTH 6 0
BBX 5 6 0 0
BITMAP
F8
08
08
50
20
10
ENDCHAR
STARTCHAR uni30DF
ENCODING 12511
SWIDTH 750 0
DWIDTH 6 0
BBX 5 7 0 0
BITMAP
E0
18
40
30
00
E0
18
ENDCHAR
STARTCHAR uni30E0
ENCODING 12512
SWIDTH 750 0
DWIDTH 6 0
BBX 5 7 0 0
BITMAP
20
20
40
40
50
88
F8
ENDCHAR
STARTCHAR uni30E1
ENCODING 12513
SWIDTH 750 0
DWIDTH 6 0
BBX 5 7 0 0
BITMAP
08
08
68
10
28
48
80
ENDCHAR
STARTCHAR uni30E2
ENCODING 12514
SWIDTH 750 0
DWIDTH 6 0
BBX 5 6 0 0
BITMAP
F8
40
F8
40
40
38
ENDCHAR
STARTCHAR uni30E3
ENCODING 12515
SWIDTH 750 0
DWIDTH 6 0
BBX 5 5 0 0
BITMAP
40
F8
48
20
20
ENDCHAR
STARTCHAR uni30E4
ENCODING 12516
SWIDTH 750 0
DWIDTH 6 0
BBX 5 7 0 0
BITMAP
40
F8
48
48
20
20
20
ENDCHAR
STARTCHAR uni30E5
ENCODING 12517
SWIDTH 750 0
DWIDTH 6 0
BBX 5 4 0 0
BITMAP
70
10
10
F8
ENDCHAR
STARTCHAR uni30E6
ENCODING 12518
SWIDTH 750 0
DWIDTH 6 0
BBX 5 6 0 0
BITMAP
70
10
10
10
10
F8
ENDCHAR
STARTCHAR uni30E7
ENCODING 12519
SWIDTH 750 0
DWIDTH 6 0
BBX 4 5 0 0
BITMAP
F0
10
70
10
F0
ENDCHAR
STARTCHAR uni30E8
ENCODING 12520
SWIDTH 750 0
DWIDTH 6 0
BBX 5 6 0 0
BITMAP
F8
08
78
08
08
F8
ENDCHAR
STARTCHAR uni30E9
ENCODING 12521
SWIDTH 750 0
DWIDTH 6 0
BBX 5 7 0 0
BITMAP
70
00
F8
08
08
10
60
ENDCHAR
STARTCHAR uni30EA
ENCODING 12522
SWIDTH 750 0
DWIDTH 6 0
BBX 4 7 1 0
BITMAP
90
90
90
90
10
20
40
ENDCHAR
STARTCHAR uni30EB
ENCODING 12523
SWIDTH 750 0
DWIDTH 6 0
BBX 5 7 0 0
BITMAP
20
A0
A0
A0
A8
A8
B0
ENDCHAR
STARTCHAR uni30EC
ENCODING 12524
SWIDTH 750 0
DWIDTH 6 0
BBX 4 7 1 0
BITMAP
80
80
80
80
90
A0
C0
ENDCHAR
STARTCHAR uni30ED
ENCODING 12525
SWIDTH 750 0
DWIDTH 6 0
BBX 5 6 0 0
BITMAP
F8
88
88
88
88
F8
ENDCHAR
STARTCHAR uni30EE
ENCODING 12526
SWIDTH 750 0
DWIDTH 6 0
BBX 5 4 0 0
BITMAP
F8
88
10
60
ENDCHAR
STARTCHAR uni30EF
ENCODING 12527
SWIDTH 750 0
DWIDTH 6 0
BBX 5 6 0 0
BITMAP
F8
88
88
08
10
60
ENDCHAR
STARTCHAR uni30F0
ENCODING 12528
SWIDTH 750 0
DWIDTH 6 0
BBX 5 7 0 0
BITMAP
10
F8
50
50
50
F8
10
ENDCHAR
STARTCHAR uni30F1
ENCODING 12529
SWIDTH 750 0
DWIDTH 6 0
BBX 5 6 0 0
BITMAP
F8
08
30
20
20
F8
ENDCHAR
STARTCHAR uni30F2
ENCODING 12530
SWIDTH 750 0
DWIDTH 6 0
BBX 5 6 0 0
BITMAP
F8
08
78
08
10
60
ENDCHAR
STARTCHAR uni30F3
ENCODING 12531
SWIDTH 750 0
DWIDTH 6 0
BBX 5 7 0 0
BITMAP
80
40
08
08
10
20
C0
ENDCHAR
STARTCHAR uni30F4
ENCODING 12532
SWIDTH 750 0
DWIDTH 6 0
BBX 5 7 0 0
BITMAP
28
20
F8
88
08
10
60
ENDCHAR
STARTCHAR uni30F5
ENCODING 12533
SWIDTH 750 0
DWIDTH 6 0
BBX 5 5 0 0
BITMAP
40
F8
48
48
98
ENDCHAR
STARTCHAR uni30F6
ENCODING 12534
SWIDTH 750 0
DWIDTH 6 0
BBX 5 5 0 0
BITMAP
80
F8
A0
20
40
ENDCHAR
STARTCHAR uni30FB
ENCODING 12539
SWIDTH 750 0
DWIDTH 6 0
BBX 2 2 1 2
BITMAP
C0
C0
ENDCHAR
STARTCHAR uni30FC
ENCODING 12540
SWIDTH 750 0
DWIDTH 6 0
BBX 5 2 0 3
BITMAP
80
78
ENDCHAR
STARTCHAR uni30FD
ENCODING 12541
SWIDTH 750 0
DWIDTH 6 0
BBX 3 4 1 1
BITMAP
80
40
20
20
ENDCHAR
STARTCHAR uni30FE
ENCODING 12542
SWIDTH 750 0
DWIDTH 6 0
BBX 4 6 1 1
BITMAP
50
00
80
40
20
20
ENDCHAR
STARTCHAR uni4E00
ENCODING 19968
SWIDTH 750 0
DWIDTH 6 0
BBX 5 2 0 3
BITMAP
10
F8
ENDCHAR
STARTCHAR uni4E01
ENCODING 19969
SWIDTH 750 0
DWIDTH 6 0
BBX 5 7 0 0
BITMAP
F8
20
20
20
20
20
60
ENDCHAR
STARTCHAR uni4E03
ENCODING 19971
SWIDTH 750 0
DWIDTH 6 0
BBX 5 7 0 0
BITMAP
40
40
58
E0
40
48
38
ENDCHAR
STARTCHAR uni4E07
ENCODING 19975
SWIDTH 750 0
DWIDTH 6 0
BBX 5 7 0 0
BITMAP
F8
40
78
48
48
48
98
ENDCHAR
STARTCHAR uni4E08
ENCODING 19976
SWIDTH 750 0
DWIDTH 6 0
BBX 5 7 0 0
BITMAP
20
F8
20
60
20
50
88
ENDCHAR
STARTCHAR uni4E09
ENCODING 19977
SWIDTH 750 0
DWIDTH 6 0
BBX 5 6 0 0
BITMAP
F8
00
70
00
00
F8
ENDCHAR
STARTCHAR uni4E0A
ENCODING 19978
SWIDTH 750 0
DWIDTH 6 0
BBX 5 7 0 0
BITMAP
20
20
30
20
20
20
F8
ENDCHAR
STARTCHAR uni4E0B
ENCODING 19979
SWIDTH 750 0
DWIDTH 6 0
BBX 5 7 0 0
BITMAP
F8
20
30
28
20
20
20
ENDCHAR
STARTCHAR uni4E0D
ENCODING 19981
SWIDTH 750 0
DWIDTH 6 0
BBX 5 7 0 0
BITMAP
F8
20
20
70
A8
20
20
ENDCHAR
STARTCHAR uni4E0E
ENCODING 19982
SWIDTH 750 0
DWIDTH 6 0
BBX 5 7 0 0
BITMAP
40
70
40
70
F8
10
30
ENDCHAR
STARTCHAR uni4E10
ENCODING 19984
SWIDTH 750 0
DWIDTH 6 0
BBX 5 7 0 0
BITMAP
F8
20
B8
A0
F8
08
18
ENDCHAR
STARTCHAR uni4E11
ENCODING 19985
SWIDTH 750 0
DWIDTH 6 0
BBX 5 7 0 0
BITMAP
F0
50
50
F8
50
50
F8
ENDCHAR
STARTCHAR uni4E14
ENCODING 19988
SWIDTH 750 0
DWIDTH 6 0
BBX 5 7 0 0
BITMAP
70
50
70
50
70
50
F8
ENDCHAR
STARTCHAR uni4E15
ENCODING 19989
SWIDTH 750 0
DWIDTH 6 0
BBX 5 7 0 0
BITMAP
F8
20
70
A8
20
20
F8
ENDCHAR
STARTCHAR uni4E16
ENCODING 19990
SWIDTH 750 0
DWIDTH 6 0
BBX 5 7 0 0
BITMAP
A8
A8
F8
A8
B8
80
F8
ENDCHAR
STARTCHAR uni4E17
ENCODING 19991
SWIDTH 750 0
DWIDTH 6 0
BBX 5 7 0 0
BITMAP
68
68
F8
68
68
68
78
ENDCHAR
STARTCHAR uni4E18
ENCODING 19992
SWIDTH 750 0
DWIDTH 6 0
BBX 5 7 0 0
BITMAP
10
60
40
78
50
50
F8
ENDCHAR
STARTCHAR uni4E19
ENCODING 19993
SWIDTH 750 0
DWIDTH 6 0
BBX 5 7 0 0
BITMAP
F8
20
F8
A8
D8
88
98
ENDCHAR
STARTCHAR uni4E1E
ENCODING 19998
SWIDTH 750 0
DWIDTH 6 0
BBX 5 7 0 0
BITMAP
70
10
E8
70
A8
20
F8
ENDCHAR
STARTCHAR uni4E21
ENCODING 20001
SWIDTH 750 0
DWIDTH 6 0
BBX 5 7 0 0
BITMAP
F8
20
F8
A8
F8
F8
88
ENDCHAR
STARTCHAR uni4E26
ENCODING 20006
SWIDTH 750 0
DWIDTH 6 0
BBX 5 7 0 0
BITMAP
50
F8
50
D8
D8
50
F8
ENDCHAR
STARTCHAR uni4E2A
ENCODING 20010
SWIDTH 750 0
DWIDTH 6 0
BBX 5 7 0 0
BITMAP
20
50
A8
20
20
20
20
ENDCHAR
STARTCHAR uni4E2D
ENCODING 20013
SWIDTH 750 0
DWIDTH 6 0
BBX 5 7 0 0
BITMAP
20
F8
A8
A8
F8
20
20
ENDCHAR
STARTCHAR uni4E31
ENCODING 20017
SWIDTH 750 0
DWIDTH 6 0
BBX 5 7 0 0
BITMAP
50
D8
D8
D8
D8
50
90
ENDCHAR
STARTCHAR uni4E32
ENCODING 20018
SWIDTH 750 0
DWIDTH 6 0
BBX 5 7 0 0
BITMAP
20
70
70
20
F8
F8
20
ENDCHAR
STARTCHAR uni4E36
ENCODING 20022
SWIDTH 750 0
DWIDTH 6 0
BBX 3 4 1 2
BITMAP
80
40
20
20
ENDCHAR
STARTCHAR uni4E38
ENCODING 20024
SWIDTH 750 0
DWIDTH 6 0
BBX 5 7 0 0
BITMAP
40
F0
50
D0
70
50
98
ENDCHAR
STARTCHAR uni4E39
ENCODING 20025
SWIDTH 750 0
DWIDTH 6 0
BBX 5 7 0 0
BITMAP
78
48
68
48
F8
48
98
ENDCHAR
STARTCHAR uni4E3B
ENCODING 20027
SWIDTH 750 0
DWIDTH 6 0
BBX 5 7 0 0
BITMAP
40
20
F8
20
70
20
F8
ENDCHAR
STARTCHAR uni4E3C
ENCODING 20028
SWIDTH 750 0
DWIDTH 6 0
BBX 5 7 0 0
BITMAP
48
F8
68
48
F8
48
88
ENDCHAR
STARTCHAR uni4E3F
ENCODING 20031
SWIDTH 750 0
DWIDTH 6 0
BBX 3 7 1 0
BITMAP
20
20
20
20
20
40
80
ENDCHAR
STARTCHAR uni4E42
ENCODING 20034
SWIDTH 750 0
DWIDTH 6 0
BBX 5 7 0 0
BITMAP
50
50
50
20
20
50
88
ENDCHAR
STARTCHAR uni4E43
ENCODING 20035
SWIDTH 750 0
DWIDTH 6 0
BBX 5 7 0 0
BITMAP
F0
50
58
48
48
48
98
ENDCHAR
STARTCHAR uni4E45
ENCODING 20037
SWIDTH 750 0
DWIDTH 6 0
BBX 5 7 0 0
BITMAP
40
70
50
90
20
50
88
ENDCHAR
STARTCHAR uni4E4B
ENCODING 20043
SWIDTH 750 0
DWIDTH 6 0
BBX 5 7 0 0
BITMAP
20
F8
08
10
20
C0
B8
ENDCHAR
STARTCHAR uni4E4D
ENCODING 20045
SWIDTH 750 0
DWIDTH 6 0
BBX 5 7 0 0
BITMAP
40
78
A0
38
20
38
20
ENDCHAR
STARTCHAR uni4E4E
ENCODING 20046
SWIDTH 750 0
DWIDTH 6 0
BBX 5 7 0 0
BITMAP
18
E0
A8
20
F8
20
60
ENDCHAR
STARTCHAR uni4E4F
ENCODING 20047
SWIDTH 750 0
DWIDTH 6 0
BBX 5 7 0 0
BITMAP
70
20
F8
10
20
C0
B8
ENDCHAR
STARTCHAR uni4E55
ENCODING 20053
SWIDTH 750 0
DWIDTH 6 0
BBX 5 7 0 0
BITMAP
08
F0
F8
90
F8
F8
58
ENDCHAR
STARTCHAR uni4E56
ENCODING 20054
SWIDTH 750 0
DWIDTH 6 0
BBX 5 7 0 0
BITMAP
10
60
F8
D8
50
F8
20
ENDCHAR
STARTCHAR uni4E57
ENCODING 20055
SWIDTH 750 0
DWIDTH 6 0
BBX 5 7 0 0
BITMAP
70
20
F8
50
F8
70
A8
ENDCHAR
STARTCHAR uni4E58
ENCODING 20056
SWIDTH 750 0
DWIDTH 6 0
BBX 5 7 0 0
BITMAP
10
60
F8
50
D8
70
A8
ENDCHAR
STARTCHAR uni4E59
ENCODING 20057
SWIDTH 750 0
DWIDTH 6 0
BBX 5 7 0 0
BITMAP
70
10
20
40
80
88
78
ENDCHAR
STARTCHAR uni4E5D
ENCODING 20061
SWIDTH 750 0
DWIDTH 6 0
BBX 5 7 0 0
BITMAP
40
F0
50
50
50
50
98
ENDCHAR
STARTCHAR uni4E5E
ENCODING 20062
SWIDTH 750 0
DWIDTH 6 0
BBX 5 7 0 0
BITMAP
40
78
80
70
20
48
38
ENDCHAR
STARTCHAR uni4E5F
ENCODING 20063
SWIDTH 750 0
DWIDTH 6 0
BBX 5 7 0 0
BITMAP
10
50
78
D8
50
48
38
ENDCHAR
STARTCHAR uni4E62
ENCODING 20066
SWIDTH 750 0
DWIDTH 6 0
BBX 5 7 0 0
BITMAP
50
50
50
D0
D0
F0
18
ENDCHAR
STARTCHAR uni4E71
ENCODING 20081
SWIDTH 750 0
DWIDTH 6 0
BBX 5 7 0 0
BITMAP
F0
50
F0
50
F0
B0
F8
ENDCHAR
STARTCHAR uni4E73
ENCODING 20083
SWIDTH 750 0
DWIDTH 6 0
BBX 5 7 0 0
BITMAP
30
D0
10
F0
30
F0
58
ENDCHAR
STARTCHAR uni4E7E
ENCODING 20094
SWIDTH 750 0
DWIDTH 6 0
BBX 5 7 0 0
BITMAP
E0
78
C0
F8
50
E0
58
ENDCHAR
STARTCHAR uni4E80
ENCODING 20096
SWIDTH 750 0
DWIDTH 6 0
BBX 5 7 0 0
BITMAP
70
90
70
F8
A8
F0
18
ENDCHAR
STARTCHAR uni4E82
ENCODING 20098
SWIDTH 750 0
DWIDTH 6 0
BBX 5 7 0 0
BITMAP
70
B0
10
30
F0
B0
D8
ENDCHAR
STARTCHAR uni4E85
ENCODING 20101
SWIDTH 750 0
DWIDTH 6 0
BBX 2 7 1 0
BITMAP
40
40
40
40
40
40
C0
ENDCHAR
STARTCHAR uni4E86
ENCODING 20102
SWIDTH 750 0
DWIDTH 6 0
BBX 5 7 0 0
BITMAP
F8
10
20
20
20
20
60
ENDCHAR
STARTCHAR uni4E88
ENCODING 20104
SWIDTH 750 0
DWIDTH 6 0
BBX 5 7 0 0
BITMAP
70
10
20
F8
28
20
60
ENDCHAR
STARTCHAR uni4E89
ENCODING 20105
SWIDTH 750 0
DWIDTH 6 0
BBX 5 7 0 0
BITMAP
30
D0
70
F8
30
70
20
ENDCHAR
STARTCHAR uni4E8A
ENCODING 20106
SWIDTH 750 0
DWIDTH 6 0
BBX 5 7 0 0
BITMAP
20
F8
A8
F0
38
F0
20
ENDCHAR
STARTCHAR uni4E8B
ENCODING 20107
SWIDTH 750 0
DWIDTH 6 0
BBX 5 7 0 0
BITMAP
20
F8
70
F0
38
F0
20
ENDCHAR
STARTCHAR uni4E8C
ENCODING 20108
SWIDTH 750 0
DWIDTH 6 0
BBX 5 6 0 0
BITMAP
70
00
00
00
08
F8
ENDCHAR
STARTCHAR uni4E8E
ENCODING 20110
SWIDTH 750 0
DWIDTH 6 0
BBX 5 7 0 0
BITMAP
70
20
20
F8
20
20
60
ENDCHAR
STARTCHAR uni4E91
ENCODING 20113
SWIDTH 750 0
DWIDTH 6 0
BBX 5 7 0 0
BITMAP
70
00
F8
20
20
50
E8
ENDCHAR
STARTCHAR uni4E92
ENCODING 20114
SWIDTH 750 0
DWIDTH 6 0
BBX 5 7 0 0
BITMAP
F8
20
30
50
60
20
F8
ENDCHAR
STARTCHAR uni4E94
ENCODING 20116
SWIDTH 750 0
DWIDTH 6 0
BBX 5 7 0 0
BITMAP
70
20
20
F0
50
50
F8
ENDCHAR
STARTCHAR uni4E95
ENCODING 20117
SWIDTH 750 0
DWIDTH 6 0
BBX 5 7 0 0
BITMAP
50
F8
50
50
F8
50
90
ENDCHAR
STARTCHAR uni4E98
ENCODING 20120
SWIDTH 750 0
DWIDTH 6 0
BBX 5 7 0 0
BITMAP
F8
70
50
70
50
70
F8
ENDCHAR
STARTCHAR uni4E99
ENCODING 20121
SWIDTH 750 0
DWIDTH 6 0
BBX 5 7 0 0
BITMAP
F8
40
78
58
A8
10
F8
ENDCHAR
STARTCHAR uni4E9B
ENCODING 20123
SWIDTH 750 0
DWIDTH 6 0
BBX 5 7 0 0
BITMAP
90
D8
90
D8
70
00
F8
ENDCHAR
STARTCHAR uni4E9C
ENCODING 20124
SWIDTH 750 0
DWIDTH 6 0
BBX 5 7 0 0
BITMAP
F8
50
F8
D8
F8
50
F8
ENDCHAR
STARTCHAR uni4E9E
ENCODING 20126
SWIDTH 750 0
DWIDTH 6 0
BBX 5 7 0 0
BITMAP
F8
50
D8
88
D8
50
F8
ENDCHAR
STARTCHAR uni4E9F
ENCODING 20127
SWIDTH 750 0
DWIDTH 6 0
BBX 5 7 0 0
BITMAP
F8
40
78
28
B0
28
F8
ENDCHAR
STARTCHAR uni4EA0
ENCODING 20128
SWIDTH 750 0
DWIDTH 6 0
BBX 5 3 0 3
BITMAP
20
20
F8
ENDCHAR
STARTCHAR uni4EA1
ENCODING 20129
SWIDTH 750 0
DWIDTH 6 0
BBX 5 7 0 0
BITMAP
20
F8
40
40
40
40
38
ENDCHAR
STARTCHAR uni4EA2
ENCODING 20130
SWIDTH 750 0
DWIDTH 6 0
BBX 5 7 0 0
BITMAP
20
F8
00
70
50
50
98
ENDCHAR
STARTCHAR uni4EA4
ENCODING 20132
SWIDTH 750 0
DWIDTH 6 0
BBX 5 7 0 0
BITMAP
20
F8
50
88
50
20
D8
ENDCHAR
STARTCHAR uni4EA5
ENCODING 20133
SWIDTH 750 0
DWIDTH 6 0
BBX 5 7 0 0
BITMAP
20
F8
40
A8
50
30
C8
ENDCHAR
STARTCHAR uni4EA6
ENCODING 20134
SWIDTH 750 0
DWIDTH 6 0
BBX 5 7 0 0
BITMAP
20
F8
50
D8
D8
50
B0
ENDCHAR
STARTCHAR uni4EA8
ENCODING 20136
SWIDTH 750 0
DWIDTH 6 0
BBX 5 7 0 0
BITMAP
20
F8
50
70
10
20
60
ENDCHAR
STARTCHAR uni4EAB
ENCODING 20139
SWIDTH 750 0
DWIDTH 6 0
BBX 5 7 0 0
BITMAP
20
F8
50
70
10
F8
20
ENDCHAR
STARTCHAR uni4EAC
ENCODING 20140
SWIDTH 750 0
DWIDTH 6 0
BBX 5 7 0 0
BITMAP
20
F8
50
70
20
A8
60
ENDCHAR
STARTCHAR uni4EAD
ENCODING 20141
SWIDTH 750 0
DWIDTH 6 0
BBX 5 7 0 0
BITMAP
20
F8
50
F8
B8
20
60
ENDCHAR
STARTCHAR uni4EAE
ENCODING 20142
SWIDTH 750 0
DWIDTH 6 0
BBX 5 7 0 0
BITMAP
20
F8
50
F8
88
50
98
ENDCHAR
STARTCHAR uni4EB0
ENCODING 20144
SWIDTH 750 0
DWIDTH 6 0
BBX 5 7 0 0
BITMAP
20
F8
50
70
70
20
A8
ENDCHAR
STARTCHAR uni4EB3
ENCODING 20147
SWIDTH 750 0
DWIDTH 6 0
BBX 5 7 0 0
BITMAP
20
F8
50
F8
98
60
38
ENDCHAR
STARTCHAR uni4EB6
ENCODING 20150
SWIDTH 750 0
DWIDTH 6 0
BBX 5 7 0 0
BITMAP
20
F8
D8
F8
70
50
F8
ENDCHAR
STARTCHAR uni4EBA
ENCODING 20154
SWIDTH 750 0
DWIDTH 6 0
BBX 5 7 0 0
BITMAP
20
20
20
20
50
50
88
ENDCHAR
STARTCHAR uni4EC0
ENCODING 20160
SWIDTH 750 0
DWIDTH 6 0
BBX 5 7 0 0
BITMAP
50
50
F8
D0
50
50
50
ENDCHAR
STARTCHAR uni4EC1
ENCODING 20161
SWIDTH 750 0
DWIDTH 6 0
BBX 5 7 0 0
BITMAP
40
78
C0
C0
40
78
40
ENDCHAR
STARTCHAR uni4EC2
ENCODING 20162
SWIDTH 750 0
DWIDTH 6 0
BBX 5 7 0 0
BITMAP
50
78
D8
D8
58
68
68
ENDCHAR
STARTCHAR uni4EC4
ENCODING 20164
SWIDTH 750 0
DWIDTH 6 0
BBX 5 7 0 0
BITMAP
F8
90
90
90
90
90
A8
ENDCHAR
STARTCHAR uni4EC6
ENCODING 20166
SWIDTH 750 0
DWIDTH 6 0
BBX 5 7 0 0
BITMAP
50
50
D0
D8
50
50
50
ENDCHAR
STARTCHAR uni4EC7
ENCODING 20167
SWIDTH 750 0
DWIDTH 6 0
BBX 5 7 0 0
BITMAP
50
70
D0
D0
50
50
68
ENDCHAR
STARTCHAR uni4ECA
ENCODING 20170
SWIDTH 750 0
DWIDTH 6 0
BBX 5 7 0 0
BITMAP
20
50
B8
00
F8
10
60
ENDCHAR
STARTCHAR uni4ECB
ENCODING 20171
SWIDTH 750 0
DWIDTH 6 0
BBX 5 7 0 0
BITMAP
20
50
88
50
50
50
90
ENDCHAR
STARTCHAR uni4ECD
ENCODING 20173
SWIDTH 750 0
DWIDTH 6 0
BBX 5 7 0 0
BITMAP
70
50
D8
C8
48
48
58
ENDCHAR
STARTCHAR uni4ECE
ENCODING 20174
SWIDTH 750 0
DWIDTH 6 0
BBX 5 7 0 0
BITMAP
50
50
50
50
50
A8
A8
ENDCHAR
STARTCHAR uni4ECF
ENCODING 20175
SWIDTH 750 0
DWIDTH 6 0
BBX 5 7 0 0
BITMAP
50
50
D0
D0
60
68
78
ENDCHAR
STARTCHAR uni4ED4
ENCODING 20180
SWIDTH 750 0
DWIDTH 6 0
BBX 5 7 0 0
BITMAP
58
48
D0
F8
50
50
70
ENDCHAR
STARTCHAR uni4ED5
ENCODING 20181
SWIDTH 750 0
DWIDTH 6 0
BBX 5 7 0 0
BITMAP
50
50
F8
D0
50
50
78
ENDCHAR
STARTCHAR uni4ED6
ENCODING 20182
SWIDTH 750 0
DWIDTH 6 0
BBX 5 7 0 0
BITMAP
60
68
F8
E8
68
60
78
ENDCHAR
STARTCHAR uni4ED7
ENCODING 20183
SWIDTH 750 0
DWIDTH 6 0
BBX 5 7 0 0
BITMAP
50
78
D0
F0
50
50
68
ENDCHAR
STARTCHAR uni4ED8
ENCODING 20184
SWIDTH 750 0
DWIDTH 6 0
BBX 5 7 0 0
BITMAP
48
78
C8
E8
58
48
58
ENDCHAR
STARTCHAR uni4ED9
ENCODING 20185
SWIDTH 750 0
DWIDTH 6 0
BBX 5 7 0 0
BITMAP
50
50
D8
D8
58
58
78
ENDCHAR
STARTCHAR uni4EDD
ENCODING 20189
SWIDTH 750 0
DWIDTH 6 0
BBX 5 7 0 0
BITMAP
20
50
88
70
20
20
F8
ENDCHAR
STARTCHAR uni4EDE
ENCODING 20190
SWIDTH 750 0
DWIDTH 6 0
BBX 5 7 0 0
BITMAP
78
58
D8
F8
58
68
68
ENDCHAR
STARTCHAR uni4EDF
ENCODING 20191
SWIDTH 750 0
DWIDTH 6 0
BBX 5 7 0 0
BITMAP
48
70
D0
F8
50
50
50
ENDCHAR
STARTCHAR uni4EE3
ENCODING 20195
SWIDTH 750 0
DWIDTH 6 0
BBX 5 7 0 0
BITMAP
58
50
F8
D0
50
50
48
ENDCHAR
STARTCHAR uni4EE4
ENCODING 20196
SWIDTH 750 0
DWIDTH 6 0
BBX 5 7 0 0
BITMAP
20
50
B8
00
F8
28
20
ENDCHAR
STARTCHAR uni4EE5
ENCODING 20197
SWIDTH 750 0
DWIDTH 6 0
BBX 5 7 0 0
BITMAP
48
58
48
68
48
90
28
ENDCHAR
STARTCHAR uni4EED
ENCODING 20205
SWIDTH 750 0
DWIDTH 6 0
BBX 5 7 0 0
BITMAP
78
58
F8
D8
58
68
68
ENDCHAR
STARTCHAR uni4EEE
ENCODING 20206
SWIDTH 750 0
DWIDTH 6 0
BBX 5 7 0 0
BITMAP
38
60
F8
68
68
50
68
ENDCHAR
STARTCHAR uni4EF0
ENCODING 20208
SWIDTH 750 0
DWIDTH 6 0
BBX 5 7 0 0
BITMAP
60
58
D8
D8
78
50
50
ENDCHAR
STARTCHAR uni4EF2
ENCODING 20210
SWIDTH 750 0
DWIDTH 6 0
BBX 5 7 0 0
BITMAP
50
78
E8
E8
78
50
50
ENDCHAR
STARTCHAR uni4EF6
ENCODING 20214
SWIDTH 750 0
DWIDTH 6 0
BBX 5 7 0 0
BITMAP
70
78
D0
D0
78
50
50
ENDCHAR
STARTCHAR uni4EF7
ENCODING 20215
SWIDTH 750 0
DWIDTH 6 0
BBX 5 7 0 0
BITMAP
50
68
C0
E8
68
68
48
ENDCHAR
STARTCHAR uni4EFB
ENCODING 20219
SWIDTH 750 0
DWIDTH 6 0
BBX 5 7 0 0
BITMAP
48
70
D0
F8
50
50
78
ENDCHAR
STARTCHAR uni4F01
ENCODING 20225
SWIDTH 750 0
DWIDTH 6 0
BBX 5 7 0 0
BITMAP
20
50
88
10
58
50
F8
ENDCHAR
STARTCHAR uni4F09
ENCODING 20233
SWIDTH 750 0
DWIDTH 6 0
BBX 5 7 0 0
BITMAP
50
78
C0
F8
68
68
48
ENDCHAR
STARTCHAR uni4F0A
ENCODING 20234
SWIDTH 750 0
DWIDTH 6 0
BBX 5 7 0 0
BITMAP
78
58
F8
D8
70
50
60
ENDCHAR
STARTCHAR uni4F0D
ENCODING 20237
SWIDTH 750 0
DWIDTH 6 0
BBX 5 7 0 0
BITMAP
78
50
D0
F8
58
58
78
ENDCHAR
STARTCHAR uni4F0E
ENCODING 20238
SWIDTH 750 0
DWIDTH 6 0
BBX 5 7 0 0
BITMAP
50
78
D0
F8
68
50
68
ENDCHAR
STARTCHAR uni4F0F
ENCODING 20239
SWIDTH 750 0
DWIDTH 6 0
BBX 5 7 0 0
BITMAP
58
50
F8
D0
50
50
68
ENDCHAR
STARTCHAR uni4F10
ENCODING 20240
SWIDTH 750 0
DWIDTH 6 0
BBX 5 7 0 0
BITMAP
58
50
F8
D0
58
50
68
ENDCHAR
STARTCHAR uni4F11
ENCODING 20241
SWIDTH 750 0
DWIDTH 6 0
BBX 5 7 0 0
BITMAP
50
78
D0
F8
78
50
50
ENDCHAR
STARTCHAR uni4F1A
ENCODING 20250
SWIDTH 750 0
DWIDTH 6 0
BBX 5 7 0 0
BITMAP
20
50
B8
00
F8
50
E8
ENDCHAR
STARTCHAR uni4F1C
ENCODING 20252
SWIDTH 750 0
DWIDTH 6 0
BBX 5 7 0 0
BITMAP
50
70
D0
E8
50
78
50
ENDCHAR
STARTCHAR uni4F1D
ENCODING 20253
SWIDTH 750 0
DWIDTH 6 0
BBX 5 7 0 0
BITMAP
58
40
F8
D0
50
68
78
ENDCHAR
STARTCHAR uni4F2F
ENCODING 20271
SWIDTH 750 0
DWIDTH 6 0
BBX 5 7 0 0
BITMAP
50
78
E8
F8
68
68
78
ENDCHAR
STARTCHAR uni4F30
ENCODING 20272
SWIDTH 750 0
DWIDTH 6 0
BBX 5 7 0 0
BITMAP
50
50
F8
D0
78
68
78
ENDCHAR
STARTCHAR uni4F34
ENCODING 20276
SWIDTH 750 0
DWIDTH 6 0
BBX 5 7 0 0
BITMAP
68
68
D0
F8
50
78
50
ENDCHAR
STARTCHAR uni4F36
ENCODING 20278
SWIDTH 750 0
DWIDTH 6 0
BBX 5 7 0 0
BITMAP
50
68
D8
C0
78
58
50
ENDCHAR
STARTCHAR uni4F38
ENCODING 20280
SWIDTH 750 0
DWIDTH 6 0
BBX 5 7 0 0
BITMAP
50
78
E8
F8
68
78
50
ENDCHAR
STARTCHAR uni4F3A
ENCODING 20282
SWIDTH 750 0
DWIDTH 6 0
BBX 5 7 0 0
BITMAP
58
48
D8
C8
58
58
48
ENDCHAR
STARTCHAR uni4F3C
ENCODING 20284
SWIDTH 750 0
DWIDTH 6 0
BBX 5 7 0 0
BITMAP
28
58
C8
68
48
50
68
ENDCHAR
STARTCHAR uni4F3D
ENCODING 20285
SWIDTH 750 0
DWIDTH 6 0
BBX 5 7 0 0
BITMAP
50
78
D8
D8
78
78
58
ENDCHAR
STARTCHAR uni4F43
ENCODING 20291
SWIDTH 750 0
DWIDTH 6 0
BBX 5 7 0 0
BITMAP
78
68
E8
F8
68
68
78
ENDCHAR
STARTCHAR uni4F46
ENCODING 20294
SWIDTH 750 0
DWIDTH 6 0
BBX 5 7 0 0
BITMAP
78
68
F8
E8
78
40
78
ENDCHAR
STARTCHAR uni4F47
ENCODING 20295
SWIDTH 750 0
DWIDTH 6 0
BBX 5 7 0 0
BITMAP
50
78
E8
C0
78
50
70
ENDCHAR
STARTCHAR uni4F4D
ENCODING 20301
SWIDTH 750 0
DWIDTH 6 0
BBX 5 7 0 0
BITMAP
50
78
C8
E8
68
50
78
ENDCHAR
STARTCHAR uni4F4E
ENCODING 20302
SWIDTH 750 0
DWIDTH 6 0
BBX 5 7 0 0
BITMAP
48
70
D0
F8
50
48
78
ENDCHAR
STARTCHAR uni4F4F
ENCODING 20303
SWIDTH 750 0
DWIDTH 6 0
BBX 5 7 0 0
BITMAP
50
40
F8
D0
78
50
78
ENDCHAR
STARTCHAR uni4F50
ENCODING 20304
SWIDTH 750 0
DWIDTH 6 0
BBX 5 7 0 0
BITMAP
50
78
D0
E0
78
50
78
ENDCHAR
STARTCHAR uni4F51
ENCODING 20305
SWIDTH 750 0
DWIDTH 6 0
BBX 5 7 0 0
BITMAP
50
78
D0
E0
58
58
58
ENDCHAR
STARTCHAR uni4F53
ENCODING 20307
SWIDTH 750 0
DWIDTH 6 0
BBX 5 7 0 0
BITMAP
50
78
D0
E8
50
78
50
ENDCHAR
STARTCHAR uni4F55
ENCODING 20309
SWIDTH 750 0
DWIDTH 6 0
BBX 5 7 0 0
BITMAP
38
48
F8
68
78
48
58
ENDCHAR
STARTCHAR uni4F57
ENCODING 20311
SWIDTH 750 0
DWIDTH 6 0
BBX 5 7 0 0
BITMAP
50
78
E8
E0
78
60
78
ENDCHAR
STARTCHAR uni4F59
ENCODING 20313
SWIDTH 750 0
DWIDTH 6 0
BBX 5 7 0 0
BITMAP
20
50
F8
20
F8
20
A8
ENDCHAR
STARTCHAR uni4F5A
ENCODING 20314
SWIDTH 750 0
DWIDTH 6 0
BBX 5 7 0 0
BITMAP
70
78
D0
F8
50
50
68
ENDCHAR
STARTCHAR uni4F5B
ENCODING 20315
SWIDTH 750 0
DWIDTH 6 0
BBX 5 7 0 0
BITMAP
50
78
D8
F0
78
58
50
ENDCHAR
STARTCHAR uni4F5C
ENCODING 20316
SWIDTH 750 0
DWIDTH 6 0
BBX 5 7 0 0
BITMAP
50
58
F0
D8
50
58
50
ENDCHAR
STARTCHAR uni4F5D
ENCODING 20317
SWIDTH 750 0
DWIDTH 6 0
BBX 5 7 0 0
BITMAP
50
58
E8
D8
58
48
58
ENDCHAR
STARTCHAR uni4F5E
ENCODING 20318
SWIDTH 750 0
DWIDTH 6 0
BBX 5 7 0 0
BITMAP
58
40
F8
D0
68
50
68
ENDCHAR
STARTCHAR uni4F69
ENCODING 20329
SWIDTH 750 0
DWIDTH 6 0
BBX 5 7 0 0
BITMAP
78
48
F8
D8
78
78
58
ENDCHAR
STARTCHAR uni4F6F
ENCODING 20335
SWIDTH 750 0
DWIDTH 6 0
BBX 5 7 0 0
BITMAP
68
78
D0
F8
50
78
50
ENDCHAR
STARTCHAR uni4F70
ENCODING 20336
SWIDTH 750 0
DWIDTH 6 0
BBX 5 7 0 0
BITMAP
78
50
F8
E8
78
68
78
ENDCHAR
STARTCHAR uni4F73
ENCODING 20339
SWIDTH 750 0
DWIDTH 6 0
BBX 5 7 0 0
BITMAP
50
78
D0
F8
50
50
78
ENDCHAR
STARTCHAR uni4F75
ENCODING 20341
SWIDTH 750 0
DWIDTH 6 0
BBX 5 7 0 0
BITMAP
68
40
F8
D8
78
58
68
ENDCHAR
STARTCHAR uni4F76
ENCODING 20342
SWIDTH 750 0
DWIDTH 6 0
BBX 5 7 0 0
BITMAP
50
78
D0
F8
40
58
58
ENDCHAR
STARTCHAR uni4F7B
ENCODING 20347
SWIDTH 750 0
DWIDTH 6 0
BBX 5 7 0 0
BITMAP
70
78
F0
F8
70
70
58
ENDCHAR
STARTCHAR uni4F7C
ENCODING 20348
SWIDTH 750 0
DWIDTH 6 0
BBX 5 7 0 0
BITMAP
50
78
E8
C0
68
50
68
ENDCHAR
STARTCHAR uni4F7F
ENCODING 20351
SWIDTH 750 0
DWIDTH 6 0
BBX 5 7 0 0
BITMAP
50
78
F8
D0
70
50
68
ENDCHAR
STARTCHAR uni4F83
ENCODING 20355
SWIDTH 750 0
DWIDTH 6 0
BBX 5 7 0 0
BITMAP
78
68
F8
C0
68
68
68
ENDCHAR
STARTCHAR uni4F86
ENCODING 20358
SWIDTH 750 0
DWIDTH 6 0
BBX 5 7 0 0
BITMAP
20
F8
70
A8
20
70
A8
ENDCHAR
STARTCHAR uni4F88
ENCODING 20360
SWIDTH 750 0
DWIDTH 6 0
BBX 5 7 0 0
BITMAP
58
68
D0
D8
68
50
60
ENDCHAR
STARTCHAR uni4F8B
ENCODING 20363
SWIDTH 750 0
DWIDTH 6 0
BBX 5 7 0 0
BITMAP
48
78
D8
E8
58
68
48
ENDCHAR
STARTCHAR uni4F8D
ENCODING 20365
SWIDTH 750 0
DWIDTH 6 0
BBX 5 7 0 0
BITMAP
50
78
D0
F8
48
68
58
ENDCHAR
STARTCHAR uni4F8F
ENCODING 20367
SWIDTH 750 0
DWIDTH 6 0
BBX 5 7 0 0
BITMAP
70
78
D0
F8
50
78
50
ENDCHAR
STARTCHAR uni4F91
ENCODING 20369
SWIDTH 750 0
DWIDTH 6 0
BBX 5 7 0 0
BITMAP
50
78
D0
E0
58
58
68
ENDCHAR
STARTCHAR uni4F96
ENCODING 20374
SWIDTH 750 0
DWIDTH 6 0
BBX 5 7 0 0
BITMAP
20
50
B8
00
F8
F8
A8
ENDCHAR
STARTCHAR uni4F98
ENCODING 20376
SWIDTH 750 0
DWIDTH 6 0
BBX 5 7 0 0
BITMAP
50
78
E8
D0
78
50
58
ENDCHAR
STARTCHAR uni4F9B
ENCODING 20379
SWIDTH 750 0
DWIDTH 6 0
BBX 5 7 0 0
BITMAP
68
78
E8
E8
78
40
68
ENDCHAR
STARTCHAR uni4F9D
ENCODING 20381
SWIDTH 750 0
DWIDTH 6 0
BBX 5 7 0 0
BITMAP
50
78
D0
E0
68
70
68
ENDCHAR
STARTCHAR uni4FA0
ENCODING 20384
SWIDTH 750 0
DWIDTH 6 0
BBX 5 7 0 0
BITMAP
50
78
D0
E8
78
50
68
ENDCHAR
STARTCHAR uni4FA1
ENCODING 20385
SWIDTH 750 0
DWIDTH 6 0
BBX 5 7 0 0
BITMAP
38
50
F8
68
68
68
78
ENDCHAR
STARTCHAR uni4FAB
ENCODING 20395
SWIDTH 750 0
DWIDTH 6 0
BBX 5 7 0 0
BITMAP
50
78
E0
D8
68
50
68
ENDCHAR
STARTCHAR uni4FAD
ENCODING 20397
SWIDTH 750 0
DWIDTH 6 0
BBX 5 7 0 0
BITMAP
78
68
F0
E8
50
40
58
ENDCHAR
STARTCHAR uni4FAE
ENCODING 20398
SWIDTH 750 0
DWIDTH 6 0
BBX 5 7 0 0
BITMAP
60
78
D8
D8
68
78
48
ENDCHAR
STARTCHAR uni4FAF
ENCODING 20399
SWIDTH 750 0
DWIDTH 6 0
BBX 5 7 0 0
BITMAP
58
48
F8
D0
78
50
68
ENDCHAR
STARTCHAR uni4FB5
ENCODING 20405
SWIDTH 750 0
DWIDTH 6 0
BBX 5 7 0 0
BITMAP
58
48
D8
F8
68
50
68
ENDCHAR
STARTCHAR uni4FB6
ENCODING 20406
SWIDTH 750 0
DWIDTH 6 0
BBX 5 7 0 0
BITMAP
78
68
F8
D0
78
68
78
ENDCHAR
STARTCHAR uni4FBF
ENCODING 20415
SWIDTH 750 0
DWIDTH 6 0
BBX 5 7 0 0
BITMAP
78
50
F8
F8
70
50
68
ENDCHAR
STARTCHAR uni4FC2
ENCODING 20418
SWIDTH 750 0
DWIDTH 6 0
BBX 5 7 0 0
BITMAP
78
60
D0
E8
50
78
50
ENDCHAR
STARTCHAR uni4FC3
ENCODING 20419
SWIDTH 750 0
DWIDTH 6 0
BBX 5 7 0 0
BITMAP
78
68
F8
D0
58
70
58
ENDCHAR
STARTCHAR uni4FC4
ENCODING 20420
SWIDTH 750 0
DWIDTH 6 0
BBX 5 7 0 0
BITMAP
78
50
F8
D0
58
70
48
ENDCHAR
STARTCHAR uni4FCA
ENCODING 20426
SWIDTH 750 0
DWIDTH 6 0
BBX 5 7 0 0
BITMAP
50
68
F8
D8
68
50
68
ENDCHAR
STARTCHAR uni4FCE
ENCODING 20430
SWIDTH 750 0
DWIDTH 6 0
BBX 5 7 0 0
BITMAP
78
68
B8
28
78
68
B8
ENDCHAR
STARTCHAR uni4FD0
ENCODING 20432
SWIDTH 750 0
DWIDTH 6 0
BBX 5 7 0 0
BITMAP
68
58
F8
D8
68
68
58
ENDCHAR
STARTCHAR uni4FD1
ENCODING 20433
SWIDTH 750 0
DWIDTH 6 0
BBX 5 7 0 0
BITMAP
70
50
F8
E8
78
68
68
ENDCHAR
STARTCHAR uni4FD4
ENCODING 20436
SWIDTH 750 0
DWIDTH 6 0
BBX 5 7 0 0
BITMAP
78
68
F8
E8
78
50
68
ENDCHAR
STARTCHAR uni4FD7
ENCODING 20439
SWIDTH 750 0
DWIDTH 6 0
BBX 5 7 0 0
BITMAP
68
40
D0
E8
40
58
58
ENDCHAR
STARTCHAR uni4FD8
ENCODING 20440
SWIDTH 750 0
DWIDTH 6 0
BBX 5 7 0 0
BITMAP
58
68
C0
D8
48
78
50
ENDCHAR
STARTCHAR uni4FDA
ENCODING 20442
SWIDTH 750 0
DWIDTH 6 0
BBX 5 7 0 0
BITMAP
78
78
F8
D0
78
50
78
ENDCHAR
STARTCHAR uni4FDB
ENCODING 20443
SWIDTH 750 0
DWIDTH 6 0
BBX 5 7 0 0
BITMAP
58
68
D0
F8
78
50
68
ENDCHAR
STARTCHAR uni4FDD
ENCODING 20445
SWIDTH 750 0
DWIDTH 6 0
BBX 5 7 0 0
BITMAP
78
68
D0
F8
50
78
50
ENDCHAR
STARTCHAR uni4FDF
ENCODING 20447
SWIDTH 750 0
DWIDTH 6 0
BBX 5 7 0 0
BITMAP
50
60
F8
D0
78
50
68
ENDCHAR
STARTCHAR uni4FE1
ENCODING 20449
SWIDTH 750 0
DWIDTH 6 0
BBX 5 7 0 0
BITMAP
50
78
C0
D8
40
58
58
ENDCHAR
STARTCHAR uni4FE3
ENCODING 20451
SWIDTH 750 0
DWIDTH 6 0
BBX 5 7 0 0
BITMAP
58
58
F8
D0
78
50
68
ENDCHAR
STARTCHAR uni4FE4
ENCODING 20452
SWIDTH 750 0
DWIDTH 6 0
BBX 5 7 0 0
BITMAP
68
78
D8
F0
78
58
68
ENDCHAR
STARTCHAR uni4FE5
ENCODING 20453
SWIDTH 750 0
DWIDTH 6 0
BBX 5 7 0 0
BITMAP
78
50
F8
F8
50
78
50
ENDCHAR
STARTCHAR uni4FEE
ENCODING 20462
SWIDTH 750 0
DWIDTH 6 0
BBX 5 7 0 0
BITMAP
60
78
D0
E8
50
48
50
ENDCHAR
STARTCHAR uni4FEF
ENCODING 20463
SWIDTH 750 0
DWIDTH 6 0
BBX 5 7 0 0
BITMAP
50
78
C0
E8
78
68
68
ENDCHAR
STARTCHAR uni4FF3
ENCODING 20467
SWIDTH 750 0
DWIDTH 6 0
BBX 5 7 0 0
BITMAP
70
78
F0
F8
70
78
50
ENDCHAR
STARTCHAR uni4FF5
ENCODING 20469
SWIDTH 750 0
DWIDTH 6 0
BBX 5 7 0 0
BITMAP
50
78
D0
F8
68
70
68
ENDCHAR
STARTCHAR uni4FF6
ENCODING 20470
SWIDTH 750 0
DWIDTH 6 0
BBX 5 7 0 0
BITMAP
58
68
C8
E8
50
50
68
ENDCHAR
STARTCHAR uni4FF8
ENCODING 20472
SWIDTH 750 0
DWIDTH 6 0
BBX 5 7 0 0
BITMAP
50
78
F8
E8
50
78
50
ENDCHAR
STARTCHAR uni4FFA
ENCODING 20474
SWIDTH 750 0
DWIDTH 6 0
BBX 5 7 0 0
BITMAP
50
78
D0
E8
70
70
58
ENDCHAR
STARTCHAR uni4FFE
ENCODING 20478
SWIDTH 750 0
DWIDTH 6 0
BBX 5 7 0 0
BITMAP
50
78
E8
F8
58
78
48
ENDCHAR
STARTCHAR uni5005
ENCODING 20485
SWIDTH 750 0
DWIDTH 6 0
BBX 5 7 0 0
BITMAP
50
78
D0
D0
68
78
50
ENDCHAR
STARTCHAR uni5006
ENCODING 20486
SWIDTH 750 0
DWIDTH 6 0
BBX 5 7 0 0
BITMAP
78
50
F8
E8
78
78
68
ENDCHAR
STARTCHAR uni5009
ENCODING 20489
SWIDTH 750 0
DWIDTH 6 0
BBX 5 7 0 0
BITMAP
20
50
F8
70
40
B0
30
ENDCHAR
STARTCHAR uni500B
ENCODING 20491
SWIDTH 750 0
DWIDTH 6 0
BBX 5 7 0 0
BITMAP
78
58
F8
D8
68
78
78
ENDCHAR
STARTCHAR uni500D
ENCODING 20493
SWIDTH 750 0
DWIDTH 6 0
BBX 5 7 0 0
BITMAP
50
78
E8
F8
40
58
58
ENDCHAR
STARTCHAR uni500F
ENCODING 20495
SWIDTH 750 0
DWIDTH 6 0
BBX 5 7 0 0
BITMAP
58
68
D0
E8
78
50
68
ENDCHAR
STARTCHAR uni5011
ENCODING 20497
SWIDTH 750 0
DWIDTH 6 0
BBX 5 7 0 0
BITMAP
68
68
E8
C8
48
48
58
ENDCHAR
STARTCHAR uni5012
ENCODING 20498
SWIDTH 750 0
DWIDTH 6 0
BBX 5 7 0 0
BITMAP
48
78
D8
E8
58
78
48
ENDCHAR
STARTCHAR uni5014
ENCODING 20500
SWIDTH 750 0
DWIDTH 6 0
BBX 5 7 0 0
BITMAP
78
48
F8
F8
50
58
78
ENDCHAR
STARTCHAR uni5016
ENCODING 20502
SWIDTH 750 0
DWIDTH 6 0
BBX 5 7 0 0
BITMAP
50
78
F8
E8
78
78
50
ENDCHAR
STARTCHAR uni5019
ENCODING 20505
SWIDTH 750 0
DWIDTH 6 0
BBX 5 7 0 0
BITMAP
58
48
F8
F0
78
50
68
ENDCHAR
STARTCHAR uni501A
ENCODING 20506
SWIDTH 750 0
DWIDTH 6 0
BBX 5 7 0 0
BITMAP
50
78
D0
E8
78
48
68
ENDCHAR
STARTCHAR uni501F
ENCODING 20511
SWIDTH 750 0
DWIDTH 6 0
BBX 5 7 0 0
BITMAP
68
78
E8
F8
40
58
58
ENDCHAR
STARTCHAR uni5021
ENCODING 20513
SWIDTH 750 0
DWIDTH 6 0
BBX 5 7 0 0
BITMAP
58
58
F8
E8
78
68
78
ENDCHAR
STARTCHAR uni5023
ENCODING 20515
SWIDTH 750 0
DWIDTH 6 0
BBX 5 7 0 0
BITMAP
50
78
D8
F8
78
70
68
ENDCHAR
STARTCHAR uni5024
ENCODING 20516
SWIDTH 750 0
DWIDTH 6 0
BBX 5 7 0 0
BITMAP
50
78
D0
D8
58
40
78
ENDCHAR
STARTCHAR uni5025
ENCODING 20517
SWIDTH 750 0
DWIDTH 6 0
BBX 5 7 0 0
BITMAP
50
78
E8
C0
78
50
78
ENDCHAR
STARTCHAR uni5026
ENCODING 20518
SWIDTH 750 0
DWIDTH 6 0
BBX 5 7 0 0
BITMAP
68
50
F8
D0
68
50
58
ENDCHAR
STARTCHAR uni5028
ENCODING 20520
SWIDTH 750 0
DWIDTH 6 0
BBX 5 7 0 0
BITMAP
78
78
D0
F8
50
68
78
ENDCHAR
STARTCHAR uni5029
ENCODING 20521
SWIDTH 750 0
DWIDTH 6 0
BBX 5 7 0 0
BITMAP
50
78
D0
F8
68
78
68
ENDCHAR
STARTCHAR uni502A
ENCODING 20522
SWIDTH 750 0
DWIDTH 6 0
BBX 5 7 0 0
BITMAP
50
68
F8
E8
78
50
68
ENDCHAR
STARTCHAR uni502B
ENCODING 20523
SWIDTH 750 0
DWIDTH 6 0
BBX 5 7 0 0
BITMAP
50
68
D8
C0
78
78
68
ENDCHAR
STARTCHAR uni502C
ENCODING 20524
SWIDTH 750 0
DWIDTH 6 0
BBX 5 7 0 0
BITMAP
50
58
F0
F8
50
78
50
ENDCHAR
STARTCHAR uni502D
ENCODING 20525
SWIDTH 750 0
DWIDTH 6 0
BBX 5 7 0 0
BITMAP
78
50
F8
D0
68
50
68
ENDCHAR
STARTCHAR uni5036
ENCODING 20534
SWIDTH 750 0
DWIDTH 6 0
BBX 5 7 0 0
BITMAP
58
58
D8
C0
78
40
68
ENDCHAR
STARTCHAR uni5039
ENCODING 20537
SWIDTH 750 0
DWIDTH 6 0
BBX 5 7 0 0
BITMAP
50
68
D0
F8
78
50
68
ENDCHAR
STARTCHAR uni5043
ENCODING 20547
SWIDTH 750 0
DWIDTH 6 0
BBX 5 7 0 0
BITMAP
78
58
D8
E8
50
68
78
ENDCHAR
STARTCHAR uni5047
ENCODING 20551
SWIDTH 750 0
DWIDTH 6 0
BBX 5 7 0 0
BITMAP
78
68
C8
F8
68
50
68
ENDCHAR
STARTCHAR uni5048
ENCODING 20552
SWIDTH 750 0
DWIDTH 6 0
BBX 5 7 0 0
BITMAP
58
58
C0
D8
68
78
48
ENDCHAR
STARTCHAR uni5049
ENCODING 20553
SWIDTH 750 0
DWIDTH 6 0
BBX 5 7 0 0
BITMAP
50
78
D8
F8
70
78
50
ENDCHAR
STARTCHAR uni504F
ENCODING 20559
SWIDTH 750 0
DWIDTH 6 0
BBX 5 7 0 0
BITMAP
78
50
F0
C0
78
78
68
ENDCHAR
STARTCHAR uni5050
ENCODING 20560
SWIDTH 750 0
DWIDTH 6 0
BBX 5 7 0 0
BITMAP
50
78
D8
F8
60
68
50
ENDCHAR
STARTCHAR uni5055
ENCODING 20565
SWIDTH 750 0
DWIDTH 6 0
BBX 5 7 0 0
BITMAP
50
58
D0
D8
60
78
78
ENDCHAR
STARTCHAR uni5056
ENCODING 20566
SWIDTH 750 0
DWIDTH 6 0
BBX 5 7 0 0
BITMAP
50
78
D0
F8
60
58
58
ENDCHAR
STARTCHAR uni505A
ENCODING 20570
SWIDTH 750 0
DWIDTH 6 0
BBX 5 7 0 0
BITMAP
50
78
D8
F8
68
70
48
ENDCHAR
STARTCHAR uni505C
ENCODING 20572
SWIDTH 750 0
DWIDTH 6 0
BBX 5 7 0 0
BITMAP
50
78
E8
F8
58
50
70
ENDCHAR
STARTCHAR uni5065
ENCODING 20581
SWIDTH 750 0
DWIDTH 6 0
BBX 5 7 0 0
BITMAP
48
78
D8
E8
58
68
78
ENDCHAR
STARTCHAR uni506C
ENCODING 20588
SWIDTH 750 0
DWIDTH 6 0
BBX 5 7 0 0
BITMAP
60
78
D8
E8
40
68
58
ENDCHAR
STARTCHAR uni5072
ENCODING 20594
SWIDTH 750 0
DWIDTH 6 0
BBX 5 7 0 0
BITMAP
78
68
F8
F8
40
68
58
ENDCHAR
STARTCHAR uni5074
ENCODING 20596
SWIDTH 750 0
DWIDTH 6 0
BBX 5 7 0 0
BITMAP
78
68
F8
E8
78
48
68
ENDCHAR
STARTCHAR uni5075
ENCODING 20597
SWIDTH 750 0
DWIDTH 6 0
BBX 5 7 0 0
BITMAP
50
58
D0
F8
78
40
68
ENDCHAR
STARTCHAR uni5076
ENCODING 20598
SWIDTH 750 0
DWIDTH 6 0
BBX 5 7 0 0
BITMAP
78
68
F8
D0
78
78
68
ENDCHAR
STARTCHAR uni5078
ENCODING 20600
SWIDTH 750 0
DWIDTH 6 0
BBX 5 7 0 0
BITMAP
50
68
D8
C0
68
70
68
ENDCHAR
STARTCHAR uni507D
ENCODING 20605
SWIDTH 750 0
DWIDTH 6 0
BBX 5 7 0 0
BITMAP
68
50
F0
D0
78
48
68
ENDCHAR
STARTCHAR uni5080
ENCODING 20608
SWIDTH 750 0
DWIDTH 6 0
BBX 5 7 0 0
BITMAP
50
78
F8
F8
50
50
68
ENDCHAR
STARTCHAR uni5085
ENCODING 20613
SWIDTH 750 0
DWIDTH 6 0
BBX 5 7 0 0
BITMAP
50
78
D8
D8
78
68
58
ENDCHAR
STARTCHAR uni508D
ENCODING 20621
SWIDTH 750 0
DWIDTH 6 0
BBX 5 7 0 0
BITMAP
50
78
E8
F8
50
58
68
ENDCHAR
STARTCHAR uni5091
ENCODING 20625
SWIDTH 750 0
DWIDTH 6 0
BBX 5 7 0 0
BITMAP
68
78
D8
E8
50
78
50
ENDCHAR
STARTCHAR uni5098
ENCODING 20632
SWIDTH 750 0
DWIDTH 6 0
BBX 5 7 0 0
BITMAP
20
50
A8
70
A8
F8
20
ENDCHAR
STARTCHAR uni5099
ENCODING 20633
SWIDTH 750 0
DWIDTH 6 0
BBX 5 7 0 0
BITMAP
68
78
E8
F8
40
78
68
ENDCHAR
STARTCHAR uni509A
ENCODING 20634
SWIDTH 750 0
DWIDTH 6 0
BBX 5 7 0 0
BITMAP
50
78
F8
D8
78
50
68
ENDCHAR
STARTCHAR uni50AC
ENCODING 20652
SWIDTH 750 0
DWIDTH 6 0
BBX 5 7 0 0
BITMAP
68
78
D0
F8
70
70
78
ENDCHAR
STARTCHAR uni50AD
ENCODING 20653
SWIDTH 750 0
DWIDTH 6 0
BBX 5 7 0 0
BITMAP
50
78
D8
F0
78
78
68
ENDCHAR
STARTCHAR uni50B2
ENCODING 20658
SWIDTH 750 0
DWIDTH 6 0
BBX 5 7 0 0
BITMAP
50
78
D8
F8
58
70
68
ENDCHAR
STARTCHAR uni50B3
ENCODING 20659
SWIDTH 750 0
DWIDTH 6 0
BBX 5 7 0 0
BITMAP
50
78
D8
F8
78
68
58
ENDCHAR
STARTCHAR uni50B4
ENCODING 20660
SWIDTH 750 0
DWIDTH 6 0
BBX 5 7 0 0
BITMAP
78
58
D8
C0
68
68
78
ENDCHAR
STARTCHAR uni50B5
ENCODING 20661
SWIDTH 750 0
DWIDTH 6 0
BBX 5 7 0 0
BITMAP
50
78
D0
F8
58
40
68
ENDCHAR
STARTCHAR uni50B7
ENCODING 20663
SWIDTH 750 0
DWIDTH 6 0
BBX 5 7 0 0
BITMAP
60
78
D8
D0
68
58
68
ENDCHAR
STARTCHAR uni50BE
ENCODING 20670
SWIDTH 750 0
DWIDTH 6 0
BBX 5 7 0 0
BITMAP
58
50
F8
D8
58
60
48
ENDCHAR
STARTCHAR uni50C2
ENCODING 20674
SWIDTH 750 0
DWIDTH 6 0
BBX 5 7 0 0
BITMAP
50
78
F8
D0
68
50
68
ENDCHAR
STARTCHAR uni50C5
ENCODING 20677
SWIDTH 750 0
DWIDTH 6 0
BBX 5 7 0 0
BITMAP
68
78
F8
D0
78
50
78
ENDCHAR
STARTCHAR uni50C9
ENCODING 20681
SWIDTH 750 0
DWIDTH 6 0
BBX 5 7 0 0
BITMAP
20
50
F8
A8
F8
50
A8
ENDCHAR
STARTCHAR uni50CA
ENCODING 20682
SWIDTH 750 0
DWIDTH 6 0
BBX 5 7 0 0
BITMAP
78
58
D8
F8
68
50
58
ENDCHAR
STARTCHAR uni50CD
ENCODING 20685
SWIDTH 750 0
DWIDTH 6 0
BBX 5 7 0 0
BITMAP
70
58
F8
F8
58
78
58
ENDCHAR
STARTCHAR uni50CF
ENCODING 20687
SWIDTH 750 0
DWIDTH 6 0
BBX 5 7 0 0
BITMAP
58
68
D8
D8
50
68
58
ENDCHAR
STARTCHAR uni50D1
ENCODING 20689
SWIDTH 750 0
DWIDTH 6 0
BBX 5 7 0 0
BITMAP
58
78
D0
E8
40
78
68
ENDCHAR
STARTCHAR uni50D5
ENCODING 20693
SWIDTH 750 0
DWIDTH 6 0
BBX 5 7 0 0
BITMAP
68
78
E8
F8
78
50
68
ENDCHAR
STARTCHAR uni50D6
ENCODING 20694
SWIDTH 750 0
DWIDTH 6 0
BBX 5 7 0 0
BITMAP
50
78
D0
F8
68
78
58
ENDCHAR
STARTCHAR uni50DA
ENCODING 20698
SWIDTH 750 0
DWIDTH 6 0
BBX 5 7 0 0
BITMAP
50
78
F8
E8
50
78
50
ENDCHAR
STARTCHAR uni50DE
ENCODING 20702
SWIDTH 750 0
DWIDTH 6 0
BBX 5 7 0 0
BITMAP
70
68
F0
D0
78
48
68
ENDCHAR
STARTCHAR uni50E3
ENCODING 20707
SWIDTH 750 0
DWIDTH 6 0
BBX 5 7 0 0
BITMAP
50
78
D0
E8
40
58
58
ENDCHAR
STARTCHAR uni50E5
ENCODING 20709
SWIDTH 750 0
DWIDTH 6 0
BBX 5 7 0 0
BITMAP
50
78
F8
E8
78
50
68
ENDCHAR
STARTCHAR uni50E7
ENCODING 20711
SWIDTH 750 0
DWIDTH 6 0
BBX 5 7 0 0
BITMAP
68
78
F8
F8
40
58
58
ENDCHAR
STARTCHAR uni50ED
ENCODING 20717
SWIDTH 750 0
DWIDTH 6 0
BBX 5 7 0 0
BITMAP
70
78
D0
E8
40
58
58
ENDCHAR
STARTCHAR uni50EE
ENCODING 20718
SWIDTH 750 0
DWIDTH 6 0
BBX 5 7 0 0
BITMAP
50
78
E8
F8
78
50
78
ENDCHAR
STARTCHAR uni50F5
ENCODING 20725
SWIDTH 750 0
DWIDTH 6 0
BBX 5 7 0 0
BITMAP
78
58
C0
F8
58
40
78
ENDCHAR
STARTCHAR uni50F9
ENCODING 20729
SWIDTH 750 0
DWIDTH 6 0
BBX 5 7 0 0
BITMAP
78
58
C0
D8
58
40
68
ENDCHAR
STARTCHAR uni50FB
ENCODING 20731
SWIDTH 750 0
DWIDTH 6 0
BBX 5 7 0 0
BITMAP
50
78
E8
D8
70
78
50
ENDCHAR
STARTCHAR uni5100
ENCODING 20736
SWIDTH 750 0
DWIDTH 6 0
BBX 5 7 0 0
BITMAP
68
78
D0
F8
58
70
48
ENDCHAR
STARTCHAR uni5101
ENCODING 20737
SWIDTH 750 0
DWIDTH 6 0
BBX 5 7 0 0
BITMAP
50
58
F0
D8
78
78
68
ENDCHAR
STARTCHAR uni5102
ENCODING 20738
SWIDTH 750 0
DWIDTH 6 0
BBX 5 7 0 0
BITMAP
68
78
F8
C0
78
70
68
ENDCHAR
STARTCHAR uni5104
ENCODING 20740
SWIDTH 750 0
DWIDTH 6 0
BBX 5 7 0 0
BITMAP
50
78
E8
F8
58
60
58
ENDCHAR
STARTCHAR uni5109
ENCODING 20745
SWIDTH 750 0
DWIDTH 6 0
BBX 5 7 0 0
BITMAP
50
68
C0
F8
78
50
68
ENDCHAR
STARTCHAR uni5112
ENCODING 20754
SWIDTH 750 0
DWIDTH 6 0
BBX 5 7 0 0
BITMAP
78
50
E8
C0
50
78
68
ENDCHAR
STARTCHAR uni5114
ENCODING 20756
SWIDTH 750 0
DWIDTH 6 0
BBX 5 7 0 0
BITMAP
50
78
F8
D0
78
68
58
ENDCHAR
STARTCHAR uni5115
ENCODING 20757
SWIDTH 750 0
DWIDTH 6 0
BBX 5 7 0 0
BITMAP
50
78
E8
D0
68
78
68
ENDCHAR
STARTCHAR uni5116
ENCODING 20758
SWIDTH 750 0
DWIDTH 6 0
BBX 5 7 0 0
BITMAP
68
68
E0
E8
40
70
78
ENDCHAR
STARTCHAR uni5118
ENCODING 20760
SWIDTH 750 0
DWIDTH 6 0
BBX 5 7 0 0
BITMAP
50
70
D8
F0
68
70
78
ENDCHAR
STARTCHAR uni511A
ENCODING 20762
SWIDTH 750 0
DWIDTH 6 0
BBX 5 7 0 0
BITMAP
68
78
D8
F8
68
50
60
ENDCHAR
STARTCHAR uni511F
ENCODING 20767
SWIDTH 750 0
DWIDTH 6 0
BBX 5 7 0 0
BITMAP
68
50
E8
F8
78
40
68
ENDCHAR
STARTCHAR uni5121
ENCODING 20769
SWIDTH 750 0
DWIDTH 6 0
BBX 5 7 0 0
BITMAP
78
78
F8
C0
68
68
68
ENDCHAR
STARTCHAR uni512A
ENCODING 20778
SWIDTH 750 0
DWIDTH 6 0
BBX 5 7 0 0
BITMAP
78
50
F8
F8
68
50
68
ENDCHAR
STARTCHAR uni5132
ENCODING 20786
SWIDTH 750 0
DWIDTH 6 0
BBX 5 7 0 0
BITMAP
70
58
F0
D8
60
78
58
ENDCHAR
STARTCHAR uni5137
ENCODING 20791
SWIDTH 750 0
DWIDTH 6 0
BBX 5 7 0 0
BITMAP
68
40
F8
F0
78
70
78
ENDCHAR
STARTCHAR uni513A
ENCODING 20794
SWIDTH 750 0
DWIDTH 6 0
BBX 5 7 0 0
BITMAP
68
70
D8
F0
78
50
78
ENDCHAR
STARTCHAR uni513B
ENCODING 20795
SWIDTH 750 0
DWIDTH 6 0
BBX 5 7 0 0
BITMAP
68
78
E8
D0
78
40
68
ENDCHAR
STARTCHAR uni513C
ENCODING 20796
SWIDTH 750 0
DWIDTH 6 0
BBX 5 7 0 0
BITMAP
68
78
F0
F8
68
70
68
ENDCHAR
STARTCHAR uni513F
ENCODING 20799
SWIDTH 750 0
DWIDTH 6 0
BBX 5 7 0 0
BITMAP
50
50
50
50
50
50
98
ENDCHAR
STARTCHAR uni5140
ENCODING 20800
SWIDTH 750 0
DWIDTH 6 0
BBX 5 7 0 0
BITMAP
F8
50
50
50
50
50
98
ENDCHAR
STARTCHAR uni5141
ENCODING 20801
SWIDTH 750 0
DWIDTH 6 0
BBX 5 7 0 0
BITMAP
20
48
F8
50
50
50
98
ENDCHAR
STARTCHAR uni5143
ENCODING 20803
SWIDTH 750 0
DWIDTH 6 0
BBX 5 7 0 0
BITMAP
70
00
F8
50
50
50
98
ENDCHAR
STARTCHAR uni5144
ENCODING 20804
SWIDTH 750 0
DWIDTH 6 0
BBX 5 7 0 0
BITMAP
F8
88
88
F8
50
50
98
ENDCHAR
STARTCHAR uni5145
ENCODING 20805
SWIDTH 750 0
DWIDTH 6 0
BBX 5 7 0 0
BITMAP
20
F8
50
E8
50
50
98
ENDCHAR
STARTCHAR uni5146
ENCODING 20806
SWIDTH 750 0
DWIDTH 6 0
BBX 5 7 0 0
BITMAP
50
D8
50
D8
50
50
98
ENDCHAR
STARTCHAR uni5147
ENCODING 20807
SWIDTH 750 0
DWIDTH 6 0
BBX 5 7 0 0
BITMAP
D8
A8
D8
88
F8
50
98
ENDCHAR
STARTCHAR uni5148
ENCODING 20808
SWIDTH 750 0
DWIDTH 6 0
BBX 5 7 0 0
BITMAP
60
70
A0
F8
50
50
98
ENDCHAR
STARTCHAR uni5149
ENCODING 20809
SWIDTH 750 0
DWIDTH 6 0
BBX 5 7 0 0
BITMAP
20
A8
20
F8
50
50
98
ENDCHAR
STARTCHAR uni514B
ENCODING 20811
SWIDTH 750 0
DWIDTH 6 0
BBX 5 7 0 0
BITMAP
20
F8
78
48
78
50
98
ENDCHAR
STARTCHAR uni514C
ENCODING 20812
SWIDTH 750 0
DWIDTH 6 0
BBX 5 7 0 0
BITMAP
50
88
F8
88
F8
50
98
ENDCHAR
STARTCHAR uni514D
ENCODING 20813
SWIDTH 750 0
DWIDTH 6 0
BBX 5 7 0 0
BITMAP
30
D0
78
A8
F8
50
98
ENDCHAR
STARTCHAR uni514E
ENCODING 20814
SWIDTH 750 0
DWIDTH 6 0
BBX 5 7 0 0
BITMAP
18
E0
F8
A8
F8
50
98
ENDCHAR
STARTCHAR uni5150
ENCODING 20816
SWIDTH 750 0
DWIDTH 6 0
BBX 5 7 0 0
BITMAP
B8
A8
B8
A8
B8
50
98
ENDCHAR
STARTCHAR uni5152
ENCODING 20818
SWIDTH 750 0
DWIDTH 6 0
BBX 5 7 0 0
BITMAP
58
88
D8
88
F8
50
98
ENDCHAR
STARTCHAR uni5154
ENCODING 20820
SWIDTH 750 0
DWIDTH 6 0
BBX 5 7 0 0
BITMAP
30
D0
78
A8
F8
70
B8
ENDCHAR
STARTCHAR uni515A
ENCODING 20826
SWIDTH 750 0
DWIDTH 6 0
BBX 5 7 0 0
BITMAP
A8
F8
88
70
50
70
98
ENDCHAR
STARTCHAR uni515C
ENCODING 20828
SWIDTH 750 0
DWIDTH 6 0
BBX 5 7 0 0
BITMAP
A8
D8
F8
D8
F8
50
98
ENDCHAR
STARTCHAR uni5162
ENCODING 20834
SWIDTH 750 0
DWIDTH 6 0
BBX 5 7 0 0
BITMAP
50
F8
50
A8
F8
50
A8
ENDCHAR
STARTCHAR uni5165
ENCODING 20837
SWIDTH 750 0
DWIDTH 6 0
BBX 5 7 0 0
BITMAP
60
20
20
20
50
50
88
ENDCHAR
STARTCHAR uni5168
ENCODING 20840
SWIDTH 750 0
DWIDTH 6 0
BBX 5 7 0 0
BITMAP
20
50
F8
20
70
20
F8
ENDCHAR
STARTCHAR uni5169
ENCODING 20841
SWIDTH 750 0
DWIDTH 6 0
BBX 5 7 0 0
BITMAP
F8
20
F8
A8
F8
F8
A8
ENDCHAR
STARTCHAR uni516A
ENCODING 20842
SWIDTH 750 0
DWIDTH 6 0
BBX 5 7 0 0
BITMAP
E0
50
B8
00
E8
F0
A8
ENDCHAR
STARTCHAR uni516B
ENCODING 20843
SWIDTH 750 0
DWIDTH 6 0
BBX 5 7 0 0
BITMAP
50
50
50
50
50
50
88
ENDCHAR
STARTCHAR uni516C
ENCODING 20844
SWIDTH 750 0
DWIDTH 6 0
BBX 5 7 0 0
BITMAP
50
50
88
20
20
50
E8
ENDCHAR
STARTCHAR uni516D
ENCODING 20845
SWIDTH 750 0
DWIDTH 6 0
BBX 5 7 0 0
BITMAP
20
F8
00
50
50
50
88
ENDCHAR
STARTCHAR uni516E
ENCODING 20846
SWIDTH 750 0
DWIDTH 6 0
BBX 5 7 0 0
BITMAP
50
88
F8
40
78
08
18
ENDCHAR
STARTCHAR uni5171
ENCODING 20849
SWIDTH 750 0
DWIDTH 6 0
BBX 5 7 0 0
BITMAP
50
F8
50
50
F8
00
88
ENDCHAR
STARTCHAR uni5175
ENCODING 20853
SWIDTH 750 0
DWIDTH 6 0
BBX 5 7 0 0
BITMAP
10
60
78
50
F8
00
88
ENDCHAR
STARTCHAR uni5176
ENCODING 20854
SWIDTH 750 0
DWIDTH 6 0
BBX 5 7 0 0
BITMAP
50
F8
50
70
F8
00
88
ENDCHAR
STARTCHAR uni5177
ENCODING 20855
SWIDTH 750 0
DWIDTH 6 0
BBX 5 7 0 0
BITMAP
70
50
70
50
F8
00
88
ENDCHAR
STARTCHAR uni5178
ENCODING 20856
SWIDTH 750 0
DWIDTH 6 0
BBX 5 7 0 0
BITMAP
50
70
70
70
F8
00
88
ENDCHAR
STARTCHAR uni517C
ENCODING 20860
SWIDTH 750 0
DWIDTH 6 0
BBX 5 7 0 0
BITMAP
50
F8
30
F8
38
70
A8
ENDCHAR
STARTCHAR uni5180
ENCODING 20864
SWIDTH 750 0
DWIDTH 6 0
BBX 5 7 0 0
BITMAP
50
D8
50
F8
70
F8
88
ENDCHAR
STARTCHAR uni5182
ENCODING 20866
SWIDTH 750 0
DWIDTH 6 0
BBX 5 7 0 0
BITMAP
F8
88
88
88
88
88
98
ENDCHAR
STARTCHAR uni5185
ENCODING 20869
SWIDTH 750 0
DWIDTH 6 0
BBX 5 7 0 0
BITMAP
20
F8
A8
A8
D8
88
98
ENDCHAR
STARTCHAR uni5186
ENCODING 20870
SWIDTH 750 0
DWIDTH 6 0
BBX 5 7 0 0
BITMAP
F8
A8
A8
F8
88
88
98
ENDCHAR
STARTCHAR uni5189
ENCODING 20873
SWIDTH 750 0
DWIDTH 6 0
BBX 5 7 0 0
BITMAP
20
78
68
F8
68
78
48
ENDCHAR
STARTCHAR uni518A
ENCODING 20874
SWIDTH 750 0
DWIDTH 6 0
BBX 5 7 0 0
BITMAP
78
68
68
F8
68
68
48
ENDCHAR
STARTCHAR uni518C
ENCODING 20876
SWIDTH 750 0
DWIDTH 6 0
BBX 5 7 0 0
BITMAP
78
68
68
F8
68
68
A8
ENDCHAR
STARTCHAR uni518D
ENCODING 20877
SWIDTH 750 0
DWIDTH 6 0
BBX 5 7 0 0
BITMAP
F8
20
70
70
F8
50
50
ENDCHAR
STARTCHAR uni518F
ENCODING 20879
SWIDTH 750 0
DWIDTH 6 0
BBX 5 7 0 0
BITMAP
F8
D8
88
F8
D8
F8
88
ENDCHAR
STARTCHAR uni5190
ENCODING 20880
SWIDTH 750 0
DWIDTH 6 0
BBX 5 7 0 0
BITMAP
F8
88
B8
70
50
70
50
ENDCHAR
STARTCHAR uni5191
ENCODING 20881
SWIDTH 750 0
DWIDTH 6 0
BBX 5 7 0 0
BITMAP
20
F8
A8
F8
50
70
50
ENDCHAR
STARTCHAR uni5192
ENCODING 20882
SWIDTH 750 0
DWIDTH 6 0
BBX 5 7 0 0
BITMAP
F8
88
F8
50
70
50
70
ENDCHAR
STARTCHAR uni5193
ENCODING 20883
SWIDTH 750 0
DWIDTH 6 0
BBX 5 7 0 0
BITMAP
50
F8
50
F8
70
F8
50
ENDCHAR
STARTCHAR uni5195
ENCODING 20885
SWIDTH 750 0
DWIDTH 6 0
BBX 5 7 0 0
BITMAP
F8
88
78
A8
F8
50
98
ENDCHAR
STARTCHAR uni5196
ENCODING 20886
SWIDTH 750 0
DWIDTH 6 0
BBX 5 2 0 3
BITMAP
F8
88
ENDCHAR
STARTCHAR uni5197
ENCODING 20887
SWIDTH 750 0
DWIDTH 6 0
BBX 5 7 0 0
BITMAP
F8
88
70
50
50
50
98
ENDCHAR
STARTCHAR uni5199
ENCODING 20889
SWIDTH 750 0
DWIDTH 6 0
BBX 5 7 0 0
BITMAP
F8
C8
70
40
F8
10
30
ENDCHAR
STARTCHAR uni51A0
ENCODING 20896
SWIDTH 750 0
DWIDTH 6 0
BBX 5 7 0 0
BITMAP
F8
88
60
18
E8
58
B8
ENDCHAR
STARTCHAR uni51A2
ENCODING 20898
SWIDTH 750 0
DWIDTH 6 0
BBX 5 7 0 0
BITMAP
F8
88
70
68
B0
58
B0
ENDCHAR
STARTCHAR uni51A4
ENCODING 20900
SWIDTH 750 0
DWIDTH 6 0
BBX 5 7 0 0
BITMAP
F8
B8
78
A8
F8
50
98
ENDCHAR
STARTCHAR uni51A5
ENCODING 20901
SWIDTH 750 0
DWIDTH 6 0
BBX 5 7 0 0
BITMAP
F8
88
70
50
F8
00
88
ENDCHAR
STARTCHAR uni51A6
ENCODING 20902
SWIDTH 750 0
DWIDTH 6 0
BBX 5 7 0 0
BITMAP
F8
88
D0
18
D0
68
B8
ENDCHAR
STARTCHAR uni51A8
ENCODING 20904
SWIDTH 750 0
DWIDTH 6 0
BBX 5 7 0 0
BITMAP
F8
88
70
50
F8
A8
F8
ENDCHAR
STARTCHAR uni51A9
ENCODING 20905
SWIDTH 750 0
DWIDTH 6 0
BBX 5 7 0 0
BITMAP
F8
A8
50
70
78
88
58
ENDCHAR
STARTCHAR uni51AA
ENCODING 20906
SWIDTH 750 0
DWIDTH 6 0
BBX 5 7 0 0
BITMAP
F8
D8
70
70
A8
70
50
ENDCHAR
STARTCHAR uni51AB
ENCODING 20907
SWIDTH 750 0
DWIDTH 6 0
BBX 2 7 2 0
BITMAP
80
40
00
00
40
80
80
ENDCHAR
STARTCHAR uni51AC
ENCODING 20908
SWIDTH 750 0
DWIDTH 6 0
BBX 5 7 0 0
BITMAP
30
50
20
D8
20
00
30
ENDCHAR
STARTCHAR uni51B0
ENCODING 20912
SWIDTH 750 0
DWIDTH 6 0
BBX 5 7 0 0
BITMAP
90
18
70
30
D0
98
B0
ENDCHAR
STARTCHAR uni51B1
ENCODING 20913
SWIDTH 750 0
DWIDTH 6 0
BBX 5 7 0 0
BITMAP
B8
10
18
28
B0
90
B8
ENDCHAR
STARTCHAR uni51B2
ENCODING 20914
SWIDTH 750 0
DWIDTH 6 0
BBX 5 7 0 0
BITMAP
90
78
58
58
F8
90
90
ENDCHAR
STARTCHAR uni51B3
ENCODING 20915
SWIDTH 750 0
DWIDTH 6 0
BBX 5 7 0 0
BITMAP
90
38
18
78
90
90
A8
ENDCHAR
STARTCHAR uni51B4
ENCODING 20916
SWIDTH 750 0
DWIDTH 6 0
BBX 5 7 0 0
BITMAP
B8
28
28
78
98
E8
98
ENDCHAR
STARTCHAR uni51B5
ENCODING 20917
SWIDTH 750 0
DWIDTH 6 0
BBX 5 7 0 0
BITMAP
B8
28
28
38
90
90
A8
ENDCHAR
STARTCHAR uni51B6
ENCODING 20918
SWIDTH 750 0
DWIDTH 6 0
BBX 5 7 0 0
BITMAP
90
10
28
78
80
B8
B8
ENDCHAR
STARTCHAR uni51B7
ENCODING 20919
SWIDTH 750 0
DWIDTH 6 0
BBX 5 7 0 0
BITMAP
90
28
58
00
B8
98
90
ENDCHAR
STARTCHAR uni51BD
ENCODING 20925
SWIDTH 750 0
DWIDTH 6 0
BBX 5 7 0 0
BITMAP
B8
18
18
28
98
98
A8
ENDCHAR
STARTCHAR uni51C4
ENCODING 20932
SWIDTH 750 0
DWIDTH 6 0
BBX 5 7 0 0
BITMAP
90
78
10
30
F8
B0
E8
ENDCHAR
STARTCHAR uni51C5
ENCODING 20933
SWIDTH 750 0
DWIDTH 6 0
BBX 5 7 0 0
BITMAP
F8
58
78
58
E8
F8
F8
ENDCHAR
STARTCHAR uni51C6
ENCODING 20934
SWIDTH 750 0
DWIDTH 6 0
BBX 5 7 0 0
BITMAP
A8
38
70
38
B0
B0
B8
ENDCHAR
STARTCHAR uni51C9
ENCODING 20937
SWIDTH 750 0
DWIDTH 6 0
BBX 5 7 0 0
BITMAP
90
78
28
38
90
D8
B0
ENDCHAR
STARTCHAR uni51CB
ENCODING 20939
SWIDTH 750 0
DWIDTH 6 0
BBX 5 7 0 0
BITMAP
F8
58
78
58
E8
F8
C8
ENDCHAR
STARTCHAR uni51CC
ENCODING 20940
SWIDTH 750 0
DWIDTH 6 0
BBX 5 7 0 0
BITMAP
90
38
10
78
A8
D0
A8
ENDCHAR
STARTCHAR uni51CD
ENCODING 20941
SWIDTH 750 0
DWIDTH 6 0
BBX 5 7 0 0
BITMAP
90
78
38
38
B0
D8
90
ENDCHAR
STARTCHAR uni51D6
ENCODING 20950
SWIDTH 750 0
DWIDTH 6 0
BBX 5 7 0 0
BITMAP
A8
38
30
B8
20
F8
20
ENDCHAR
STARTCHAR uni51DB
ENCODING 20955
SWIDTH 750 0
DWIDTH 6 0
BBX 5 7 0 0
BITMAP
90
78
28
78
90
D8
90
ENDCHAR
STARTCHAR uni51DC
ENCODING 20956
SWIDTH 750 0
DWIDTH 6 0
BBX 5 7 0 0
BITMAP
90
78
28
38
F0
B8
D0
ENDCHAR
STARTCHAR uni51DD
ENCODING 20957
SWIDTH 750 0
DWIDTH 6 0
BBX 5 7 0 0
BITMAP
D8
68
58
70
F8
D0
A8
ENDCHAR
STARTCHAR uni51E0
ENCODING 20960
SWIDTH 750 0
DWIDTH 6 0
BBX 5 7 0 0
BITMAP
70
50
50
50
50
50
98
ENDCHAR
STARTCHAR uni51E1
ENCODING 20961
SWIDTH 750 0
DWIDTH 6 0
BBX 5 7 0 0
BITMAP
F8
88
C8
A8
A8
88
88
ENDCHAR
STARTCHAR uni51E6
ENCODING 20966
SWIDTH 750 0
DWIDTH 6 0
BBX 5 7 0 0
BITMAP
40
78
A8
A8
48
60
98
ENDCHAR
STARTCHAR uni51E7
ENCODING 20967
SWIDTH 750 0
DWIDTH 6 0
BBX 5 7 0 0
BITMAP
F8
88
A8
F8
F8
A8
A8
ENDCHAR
STARTCHAR uni51E9
ENCODING 20969
SWIDTH 750 0
DWIDTH 6 0
BBX 5 7 0 0
BITMAP
F8
88
A8
F8
A8
F8
A8
ENDCHAR
STARTCHAR uni51EA
ENCODING 20970
SWIDTH 750 0
DWIDTH 6 0
BBX 5 7 0 0
BITMAP
F8
88
A8
B8
E8
F8
88
ENDCHAR
STARTCHAR uni51ED
ENCODING 20973
SWIDTH 750 0
DWIDTH 6 0
BBX 5 7 0 0
BITMAP
78
50
F8
50
78
50
98
ENDCHAR
STARTCHAR uni51F0
ENCODING 20976
SWIDTH 750 0
DWIDTH 6 0
BBX 5 7 0 0
BITMAP
F8
A8
D8
F8
A8
F8
88
ENDCHAR
STARTCHAR uni51F1
ENCODING 20977
SWIDTH 750 0
DWIDTH 6 0
BBX 5 7 0 0
BITMAP
B8
E8
28
E8
A8
68
E8
ENDCHAR
STARTCHAR uni51F5
ENCODING 20981
SWIDTH 750 0
DWIDTH 6 0
BBX 5 7 0 0
BITMAP
88
88
88
88
88
88
F8
ENDCHAR
STARTCHAR uni51F6
ENCODING 20982
SWIDTH 750 0
DWIDTH 6 0
BBX 5 7 0 0
BITMAP
88
D8
A8
A8
D8
88
F8
ENDCHAR
STARTCHAR uni51F8
ENCODING 20984
SWIDTH 750 0
DWIDTH 6 0
BBX 5 7 0 0
BITMAP
70
50
50
D8
88
88
F8
ENDCHAR
STARTCHAR uni51F9
ENCODING 20985
SWIDTH 750 0
DWIDTH 6 0
BBX 5 7 0 0
BITMAP
D8
D8
D8
F8
88
88
F8
ENDCHAR
STARTCHAR uni51FA
ENCODING 20986
SWIDTH 750 0
DWIDTH 6 0
BBX 5 7 0 0
BITMAP
20
A8
F8
20
A8
A8
F8
ENDCHAR
STARTCHAR uni51FD
ENCODING 20989
SWIDTH 750 0
DWIDTH 6 0
BBX 5 7 0 0
BITMAP
F8
60
A8
F8
F8
A8
F8
ENDCHAR
STARTCHAR uni51FE
ENCODING 20990
SWIDTH 750 0
DWIDTH 6 0
BBX 5 7 0 0
BITMAP
F8
10
A8
F8
B8
E8
F8
ENDCHAR
STARTCHAR uni5200
ENCODING 20992
SWIDTH 750 0
DWIDTH 6 0
BBX 5 7 0 0
BITMAP
F8
28
28
28
48
48
98
ENDCHAR
STARTCHAR uni5203
ENCODING 20995
SWIDTH 750 0
DWIDTH 6 0
BBX 5 7 0 0
BITMAP
F8
28
28
68
38
48
98
ENDCHAR
STARTCHAR uni5204
ENCODING 20996
SWIDTH 750 0
DWIDTH 6 0
BBX 5 7 0 0
BITMAP
F0
50
D0
50
70
58
B0
ENDCHAR
STARTCHAR uni5206
ENCODING 20998
SWIDTH 750 0
DWIDTH 6 0
BBX 5 7 0 0
BITMAP
50
50
88
70
50
50
B0
ENDCHAR
STARTCHAR uni5207
ENCODING 20999
SWIDTH 750 0
DWIDTH 6 0
BBX 5 7 0 0
BITMAP
58
58
F8
58
78
18
28
ENDCHAR
STARTCHAR uni5208
ENCODING 21000
SWIDTH 750 0
DWIDTH 6 0
BBX 5 7 0 0
BITMAP
28
28
A8
48
68
88
98
ENDCHAR
STARTCHAR uni520A
ENCODING 21002
SWIDTH 750 0
DWIDTH 6 0
BBX 5 7 0 0
BITMAP
E8
58
58
F8
48
48
58
ENDCHAR
STARTCHAR uni520B
ENCODING 21003
SWIDTH 750 0
DWIDTH 6 0
BBX 5 7 0 0
BITMAP
28
D8
58
F8
48
48
98
ENDCHAR
STARTCHAR uni520E
ENCODING 21006
SWIDTH 750 0
DWIDTH 6 0
BBX 5 7 0 0
BITMAP
88
E8
68
A8
68
A8
68
ENDCHAR
STARTCHAR uni5211
ENCODING 21009
SWIDTH 750 0
DWIDTH 6 0
BBX 5 7 0 0
BITMAP
E8
78
78
F8
68
68
A8
ENDCHAR
STARTCHAR uni5214
ENCODING 21012
SWIDTH 750 0
DWIDTH 6 0
BBX 5 7 0 0
BITMAP
48
E8
68
E8
48
68
98
ENDCHAR
STARTCHAR uni5217
ENCODING 21015
SWIDTH 750 0
DWIDTH 6 0
BBX 5 7 0 0
BITMAP
E8
48
68
A8
68
48
98
ENDCHAR
STARTCHAR uni521D
ENCODING 21021
SWIDTH 750 0
DWIDTH 6 0
BBX 5 7 0 0
BITMAP
78
D8
58
98
58
68
68
ENDCHAR
STARTCHAR uni5224
ENCODING 21028
SWIDTH 750 0
DWIDTH 6 0
BBX 5 7 0 0
BITMAP
A8
A8
48
E8
48
E8
58
ENDCHAR
STARTCHAR uni5225
ENCODING 21029
SWIDTH 750 0
DWIDTH 6 0
BBX 5 7 0 0
BITMAP
E8
A8
E8
48
68
68
A8
ENDCHAR
STARTCHAR uni5227
ENCODING 21031
SWIDTH 750 0
DWIDTH 6 0
BBX 5 7 0 0
BITMAP
58
F8
58
F8
58
A8
E8
ENDCHAR
STARTCHAR uni5229
ENCODING 21033
SWIDTH 750 0
DWIDTH 6 0
BBX 5 7 0 0
BITMAP
E8
58
F8
58
E8
C8
58
ENDCHAR
STARTCHAR uni522A
ENCODING 21034
SWIDTH 750 0
DWIDTH 6 0
BBX 5 7 0 0
BITMAP
78
58
58
F8
58
58
58
ENDCHAR
STARTCHAR uni522E
ENCODING 21038
SWIDTH 750 0
DWIDTH 6 0
BBX 5 7 0 0
BITMAP
E8
58
F8
58
E8
A8
E8
ENDCHAR
STARTCHAR uni5230
ENCODING 21040
SWIDTH 750 0
DWIDTH 6 0
BBX 5 7 0 0
BITMAP
E8
48
A8
48
E8
48
E8
ENDCHAR
STARTCHAR uni5233
ENCODING 21043
SWIDTH 750 0
DWIDTH 6 0
BBX 5 7 0 0
BITMAP
48
F8
58
B8
48
68
28
ENDCHAR
STARTCHAR uni5236
ENCODING 21046
SWIDTH 750 0
DWIDTH 6 0
BBX 5 7 0 0
BITMAP
C8
E8
48
E8
48
E8
A8
ENDCHAR
STARTCHAR uni5237
ENCODING 21047
SWIDTH 750 0
DWIDTH 6 0
BBX 5 7 0 0
BITMAP
E8
A8
E8
88
E8
E8
48
ENDCHAR
STARTCHAR uni5238
ENCODING 21048
SWIDTH 750 0
DWIDTH 6 0
BBX 5 7 0 0
BITMAP
A8
70
F8
50
88
30
50
ENDCHAR
STARTCHAR uni5239
ENCODING 21049
SWIDTH 750 0
DWIDTH 6 0
BBX 5 7 0 0
BITMAP
A8
58
B8
58
E8
E8
58
ENDCHAR
STARTCHAR uni523A
ENCODING 21050
SWIDTH 750 0
DWIDTH 6 0
BBX 5 7 0 0
BITMAP
28
F8
28
F8
A8
78
A8
ENDCHAR
STARTCHAR uni523B
ENCODING 21051
SWIDTH 750 0
DWIDTH 6 0
BBX 5 7 0 0
BITMAP
48
E8
88
48
A8
48
A8
ENDCHAR
STARTCHAR uni5243
ENCODING 21059
SWIDTH 750 0
DWIDTH 6 0
BBX 5 7 0 0
BITMAP
A8
E8
68
C8
E8
68
A8
ENDCHAR
STARTCHAR uni5244
ENCODING 21060
SWIDTH 750 0
DWIDTH 6 0
BBX 5 7 0 0
BITMAP
E8
58
98
58
E8
48
E8
ENDCHAR
STARTCHAR uni5247
ENCODING 21063
SWIDTH 750 0
DWIDTH 6 0
BBX 5 7 0 0
BITMAP
E8
A8
E8
A8
E8
08
A8
ENDCHAR
STARTCHAR uni524A
ENCODING 21066
SWIDTH 750 0
DWIDTH 6 0
BBX 5 7 0 0
BITMAP
A8
48
E8
A8
E8
A8
A8
ENDCHAR
STARTCHAR uni524B
ENCODING 21067
SWIDTH 750 0
DWIDTH 6 0
BBX 5 7 0 0
BITMAP
48
E8
48
A8
E8
40
B8
ENDCHAR
STARTCHAR uni524C
ENCODING 21068
SWIDTH 750 0
DWIDTH 6 0
BBX 5 7 0 0
BITMAP
28
F8
78
78
28
78
A8
ENDCHAR
STARTCHAR uni524D
ENCODING 21069
SWIDTH 750 0
DWIDTH 6 0
BBX 5 7 0 0
BITMAP
50
F8
00
E8
A8
E8
A8
ENDCHAR
STARTCHAR uni524F
ENCODING 21071
SWIDTH 750 0
DWIDTH 6 0
BBX 5 7 0 0
BITMAP
B8
18
F8
78
F8
68
A8
ENDCHAR
STARTCHAR uni5254
ENCODING 21076
SWIDTH 750 0
DWIDTH 6 0
BBX 5 7 0 0
BITMAP
E8
B8
F8
58
A8
68
A8
ENDCHAR
STARTCHAR uni5256
ENCODING 21078
SWIDTH 750 0
DWIDTH 6 0
BBX 5 7 0 0
BITMAP
48
E8
A8
E8
08
C8
D8
ENDCHAR
STARTCHAR uni525B
ENCODING 21083
SWIDTH 750 0
DWIDTH 6 0
BBX 5 7 0 0
BITMAP
E8
A8
E8
E8
E8
E8
A8
ENDCHAR
STARTCHAR uni525E
ENCODING 21086
SWIDTH 750 0
DWIDTH 6 0
BBX 5 7 0 0
BITMAP
48
F8
58
B8
E8
28
A8
ENDCHAR
STARTCHAR uni5263
ENCODING 21091
SWIDTH 750 0
DWIDTH 6 0
BBX 5 7 0 0
BITMAP
48
A8
48
E8
E8
48
A8
ENDCHAR
STARTCHAR uni5264
ENCODING 21092
SWIDTH 750 0
DWIDTH 6 0
BBX 5 7 0 0
BITMAP
48
E8
A8
48
A8
E8
A8
ENDCHAR
STARTCHAR uni5265
ENCODING 21093
SWIDTH 750 0
DWIDTH 6 0
BBX 5 7 0 0
BITMAP
68
28
F8
28
A8
78
A8
ENDCHAR
STARTCHAR uni5269
ENCODING 21097
SWIDTH 750 0
DWIDTH 6 0
BBX 5 7 0 0
BITMAP
68
F8
58
D8
28
78
A8
ENDCHAR
STARTCHAR uni526A
ENCODING 21098
SWIDTH 750 0
DWIDTH 6 0
BBX 5 7 0 0
BITMAP
50
F8
68
68
F8
28
D8
ENDCHAR
STARTCHAR uni526F
ENCODING 21103
SWIDTH 750 0
DWIDTH 6 0
BBX 5 7 0 0
BITMAP
E8
68
68
08
E8
E8
E8
ENDCHAR
STARTCHAR uni5270
ENCODING 21104
SWIDTH 750 0
DWIDTH 6 0
BBX 5 7 0 0
BITMAP
78
28
F8
78
E8
78
A8
ENDCHAR
STARTCHAR uni5271
ENCODING 21105
SWIDTH 750 0
DWIDTH 6 0
BBX 5 7 0 0
BITMAP
78
B8
58
F8
F8
58
A8
ENDCHAR
STARTCHAR uni5272
ENCODING 21106
SWIDTH 750 0
DWIDTH 6 0
BBX 5 7 0 0
BITMAP
48
E8
A8
48
E8
68
68
ENDCHAR
STARTCHAR uni5273
ENCODING 21107
SWIDTH 750 0
DWIDTH 6 0
BBX 5 7 0 0
BITMAP
A8
E8
48
A8
08
E8
E8
ENDCHAR
STARTCHAR uni5274
ENCODING 21108
SWIDTH 750 0
DWIDTH 6 0
BBX 5 7 0 0
BITMAP
A8
F8
18
F8
A8
48
E8
ENDCHAR
STARTCHAR uni5275
ENCODING 21109
SWIDTH 750 0
DWIDTH 6 0
BBX 5 7 0 0
BITMAP
48
A8
68
68
48
E8
68
ENDCHAR
STARTCHAR uni527D
ENCODING 21117
SWIDTH 750 0
DWIDTH 6 0
BBX 5 7 0 0
BITMAP
E8
68
08
E8
48
E8
58
ENDCHAR
STARTCHAR uni527F
ENCODING 21119
SWIDTH 750 0
DWIDTH 6 0
BBX 5 7 0 0
BITMAP
58
A8
78
78
F8
78
A8
ENDCHAR
STARTCHAR uni5283
ENCODING 21123
SWIDTH 750 0
DWIDTH 6 0
BBX 5 7 0 0
BITMAP
48
E8
78
E8
68
78
C8
ENDCHAR
STARTCHAR uni5287
ENCODING 21127
SWIDTH 750 0
DWIDTH 6 0
BBX 5 7 0 0
BITMAP
48
68
C8
A8
C8
A8
D8
ENDCHAR
STARTCHAR uni5288
ENCODING 21128
SWIDTH 750 0
DWIDTH 6 0
BBX 5 7 0 0
BITMAP
D0
F8
A8
D0
F8
28
D8
ENDCHAR
STARTCHAR uni5289
ENCODING 21129
SWIDTH 750 0
DWIDTH 6 0
BBX 5 7 0 0
BITMAP
48
98
F8
58
A8
78
E8
ENDCHAR
STARTCHAR uni528D
ENCODING 21133
SWIDTH 750 0
DWIDTH 6 0
BBX 5 7 0 0
BITMAP
48
A8
08
E8
E8
48
A8
ENDCHAR
STARTCHAR uni5291
ENCODING 21137
SWIDTH 750 0
DWIDTH 6 0
BBX 5 7 0 0
BITMAP
48
E8
A8
48
A8
E8
A8
ENDCHAR
STARTCHAR uni5292
ENCODING 21138
SWIDTH 750 0
DWIDTH 6 0
BBX 5 7 0 0
BITMAP
78
B8
18
F8
F8
58
A8
ENDCHAR
STARTCHAR uni5294
ENCODING 21140
SWIDTH 750 0
DWIDTH 6 0
BBX 5 7 0 0
BITMAP
78
B8
18
F8
F8
58
A8
ENDCHAR
STARTCHAR uni529B
ENCODING 21147
SWIDTH 750 0
DWIDTH 6 0
BBX 5 7 0 0
BITMAP
20
F8
28
28
28
48
98
ENDCHAR
STARTCHAR uni529F
ENCODING 21151
SWIDTH 750 0
DWIDTH 6 0
BBX 5 7 0 0
BITMAP
10
F8
58
58
D8
28
28
ENDCHAR
STARTCHAR uni52A0
ENCODING 21152
SWIDTH 750 0
DWIDTH 6 0
BBX 5 7 0 0
BITMAP
40
F8
68
68
68
A8
B8
ENDCHAR
STARTCHAR uni52A3
ENCODING 21155
SWIDTH 750 0
DWIDTH 6 0
BBX 5 7 0 0
BITMAP
20
A8
30
E0
78
28
D8
ENDCHAR
STARTCHAR uni52A9
ENCODING 21161
SWIDTH 750 0
DWIDTH 6 0
BBX 5 7 0 0
BITMAP
D0
F8
D8
D8
D8
E8
28
ENDCHAR
STARTCHAR uni52AA
ENCODING 21162
SWIDTH 750 0
DWIDTH 6 0
BBX 5 7 0 0
BITMAP
58
E8
50
A8
70
50
B0
ENDCHAR
STARTCHAR uni52AB
ENCODING 21163
SWIDTH 750 0
DWIDTH 6 0
BBX 5 7 0 0
BITMAP
50
F8
58
F8
58
A8
E8
ENDCHAR
STARTCHAR uni52AC
ENCODING 21164
SWIDTH 750 0
DWIDTH 6 0
BBX 5 7 0 0
BITMAP
50
78
B8
78
78
28
68
ENDCHAR
STARTCHAR uni52AD
ENCODING 21165
SWIDTH 750 0
DWIDTH 6 0
BBX 5 7 0 0
BITMAP
F0
58
B8
18
F8
A8
E8
ENDCHAR
STARTCHAR uni52B1
ENCODING 21169
SWIDTH 750 0
DWIDTH 6 0
BBX 5 7 0 0
BITMAP
F0
90
F8
D8
F8
A8
A8
ENDCHAR
STARTCHAR uni52B4
ENCODING 21172
SWIDTH 750 0
DWIDTH 6 0
BBX 5 7 0 0
BITMAP
A8
F8
88
20
F8
48
98
ENDCHAR
STARTCHAR uni52B5
ENCODING 21173
SWIDTH 750 0
DWIDTH 6 0
BBX 5 7 0 0
BITMAP
A8
20
F8
70
A8
30
50
ENDCHAR
STARTCHAR uni52B9
ENCODING 21177
SWIDTH 750 0
DWIDTH 6 0
BBX 5 7 0 0
BITMAP
50
F8
B8
18
B8
58
A8
ENDCHAR
STARTCHAR uni52BC
ENCODING 21180
SWIDTH 750 0
DWIDTH 6 0
BBX 5 7 0 0
BITMAP
50
F8
58
F8
18
E8
E8
ENDCHAR
STARTCHAR uni52BE
ENCODING 21182
SWIDTH 750 0
DWIDTH 6 0
BBX 5 7 0 0
BITMAP
50
F8
98
58
B8
58
A8
ENDCHAR
STARTCHAR uni52C1
ENCODING 21185
SWIDTH 750 0
DWIDTH 6 0
BBX 5 7 0 0
BITMAP
F0
58
98
58
F8
58
E8
ENDCHAR
STARTCHAR uni52C3
ENCODING 21187
SWIDTH 750 0
DWIDTH 6 0
BBX 5 7 0 0
BITMAP
50
F8
F8
B8
58
E8
68
ENDCHAR
STARTCHAR uni52C5
ENCODING 21189
SWIDTH 750 0
DWIDTH 6 0
BBX 5 7 0 0
BITMAP
50
F8
F8
F8
58
E8
68
ENDCHAR
STARTCHAR uni52C7
ENCODING 21191
SWIDTH 750 0
DWIDTH 6 0
BBX 5 7 0 0
BITMAP
70
10
78
68
F8
28
D8
ENDCHAR
STARTCHAR uni52C9
ENCODING 21193
SWIDTH 750 0
DWIDTH 6 0
BBX 5 7 0 0
BITMAP
D0
78
D8
D8
E8
40
B8
ENDCHAR
STARTCHAR uni52CD
ENCODING 21197
SWIDTH 750 0
DWIDTH 6 0
BBX 5 7 0 0
BITMAP
50
F8
B8
F8
58
E8
48
ENDCHAR
STARTCHAR uni52D2
ENCODING 21202
SWIDTH 750 0
DWIDTH 6 0
BBX 5 7 0 0
BITMAP
B0
F8
F8
58
F8
F8
68
ENDCHAR
STARTCHAR uni52D5
ENCODING 21205
SWIDTH 750 0
DWIDTH 6 0
BBX 5 7 0 0
BITMAP
D0
78
D8
D8
D8
68
E8
ENDCHAR
STARTCHAR uni52D7
ENCODING 21207
SWIDTH 750 0
DWIDTH 6 0
BBX 5 7 0 0
BITMAP
70
70
70
F8
D8
D8
E8
ENDCHAR
STARTCHAR uni52D8
ENCODING 21208
SWIDTH 750 0
DWIDTH 6 0
BBX 5 7 0 0
BITMAP
50
F8
58
58
F8
A8
E8
ENDCHAR
STARTCHAR uni52D9
ENCODING 21209
SWIDTH 750 0
DWIDTH 6 0
BBX 5 7 0 0
BITMAP
E0
38
50
E8
78
D8
68
ENDCHAR
STARTCHAR uni52DD
ENCODING 21213
SWIDTH 750 0
DWIDTH 6 0
BBX 5 7 0 0
BITMAP
E8
F8
D0
E8
D0
D8
A8
ENDCHAR
STARTCHAR uni52DE
ENCODING 21214
SWIDTH 750 0
DWIDTH 6 0
BBX 5 7 0 0
BITMAP
A8
50
F8
A8
78
28
D8
ENDCHAR
STARTCHAR uni52DF
ENCODING 21215
SWIDTH 750 0
DWIDTH 6 0
BBX 5 7 0 0
BITMAP
50
F8
70
F8
50
B8
50
ENDCHAR
STARTCHAR uni52E0
ENCODING 21216
SWIDTH 750 0
DWIDTH 6 0
BBX 5 7 0 0
BITMAP
F0
78
58
B8
58
38
C8
ENDCHAR
STARTCHAR uni52E2
ENCODING 21218
SWIDTH 750 0
DWIDTH 6 0
BBX 5 7 0 0
BITMAP
50
F0
D0
68
F0
50
B0
ENDCHAR
STARTCHAR uni52E3
ENCODING 21219
SWIDTH 750 0
DWIDTH 6 0
BBX 5 7 0 0
BITMAP
50
F8
58
F8
D8
18
A8
ENDCHAR
STARTCHAR uni52E4
ENCODING 21220
SWIDTH 750 0
DWIDTH 6 0
BBX 5 7 0 0
BITMAP
B0
F8
F8
58
F8
58
E8
ENDCHAR
STARTCHAR uni52E6
ENCODING 21222
SWIDTH 750 0
DWIDTH 6 0
BBX 5 7 0 0
BITMAP
50
B8
68
68
F8
78
A8
ENDCHAR
STARTCHAR uni52E7
ENCODING 21223
SWIDTH 750 0
DWIDTH 6 0
BBX 5 7 0 0
BITMAP
90
F8
58
F8
D8
D8
E8
ENDCHAR
STARTCHAR uni52F2
ENCODING 21234
SWIDTH 750 0
DWIDTH 6 0
BBX 5 7 0 0
BITMAP
D0
78
D8
D8
68
00
A8
ENDCHAR
STARTCHAR uni52F3
ENCODING 21235
SWIDTH 750 0
DWIDTH 6 0
BBX 5 7 0 0
BITMAP
F0
58
F8
F8
78
18
A8
ENDCHAR
STARTCHAR uni52F5
ENCODING 21237
SWIDTH 750 0
DWIDTH 6 0
BBX 5 7 0 0
BITMAP
F0
98
F8
F8
58
F8
A8
ENDCHAR
STARTCHAR uni52F8
ENCODING 21240
SWIDTH 750 0
DWIDTH 6 0
BBX 5 7 0 0
BITMAP
B0
F8
B8
18
78
D8
E8
ENDCHAR
STARTCHAR uni52F9
ENCODING 21241
SWIDTH 750 0
DWIDTH 6 0
BBX 5 7 0 0
BITMAP
40
78
88
08
08
08
18
ENDCHAR
STARTCHAR uni52FA
ENCODING 21242
SWIDTH 750 0
DWIDTH 6 0
BBX 5 7 0 0
BITMAP
40
78
88
48
28
08
18
ENDCHAR
STARTCHAR uni52FE
ENCODING 21246
SWIDTH 750 0
DWIDTH 6 0
BBX 5 7 0 0
BITMAP
40
78
A8
28
58
E8
18
ENDCHAR
STARTCHAR uni52FF
ENCODING 21247
SWIDTH 750 0
DWIDTH 6 0
BBX 5 7 0 0
BITMAP
40
78
B8
38
D8
28
58
ENDCHAR
STARTCHAR uni5301
ENCODING 21249
SWIDTH 750 0
DWIDTH 6 0
BBX 5 7 0 0
BITMAP
40
78
A8
68
38
48
98
ENDCHAR
STARTCHAR uni5302
ENCODING 21250
SWIDTH 750 0
DWIDTH 6 0
BBX 5 7 0 0
BITMAP
40
78
C8
68
48
68
18
ENDCHAR
STARTCHAR uni5305
ENCODING 21253
SWIDTH 750 0
DWIDTH 6 0
BBX 5 7 0 0
BITMAP
40
78
E8
28
68
40
78
ENDCHAR
STARTCHAR uni5306
ENCODING 21254
SWIDTH 750 0
DWIDTH 6 0
BBX 5 7 0 0
BITMAP
40
78
A8
38
D8
28
58
ENDCHAR
STARTCHAR uni5308
ENCODING 21256
SWIDTH 750 0
DWIDTH 6 0
BBX 5 7 0 0
BITMAP
40
78
D8
28
58
78
08
ENDCHAR
STARTCHAR uni530D
ENCODING 21261
SWIDTH 750 0
DWIDTH 6 0
BBX 5 7 0 0
BITMAP
40
78
A8
78
28
78
58
ENDCHAR
STARTCHAR uni530F
ENCODING 21263
SWIDTH 750 0
DWIDTH 6 0
BBX 5 7 0 0
BITMAP
50
F8
48
B8
58
70
38
ENDCHAR
STARTCHAR uni5310
ENCODING 21264
SWIDTH 750 0
DWIDTH 6 0
BBX 5 7 0 0
BITMAP
40
78
E8
68
08
E8
E8
ENDCHAR
STARTCHAR uni5315
ENCODING 21269
SWIDTH 750 0
DWIDTH 6 0
BBX 5 7 0 0
BITMAP
40
48
50
60
C0
48
38
ENDCHAR
STARTCHAR uni5316
ENCODING 21270
SWIDTH 750 0
DWIDTH 6 0
BBX 5 7 0 0
BITMAP
30
50
D8
50
50
50
58
ENDCHAR
STARTCHAR uni5317
ENCODING 21271
SWIDTH 750 0
DWIDTH 6 0
BBX 5 7 0 0
BITMAP
50
50
D8
50
50
D0
58
ENDCHAR
STARTCHAR uni5319
ENCODING 21273
SWIDTH 750 0
DWIDTH 6 0
BBX 5 7 0 0
BITMAP
D0
D0
18
D0
58
C0
B8
ENDCHAR
STARTCHAR uni531A
ENCODING 21274
SWIDTH 750 0
DWIDTH 6 0
BBX 5 7 0 0
BITMAP
F8
80
80
80
80
80
F8
ENDCHAR
STARTCHAR uni531D
ENCODING 21277
SWIDTH 750 0
DWIDTH 6 0
BBX 5 7 0 0
BITMAP
F8
90
F8
D8
D8
90
F8
ENDCHAR
STARTCHAR uni5320
ENCODING 21280
SWIDTH 750 0
DWIDTH 6 0
BBX 5 7 0 0
BITMAP
F8
90
A0
B8
D0
90
F8
ENDCHAR
STARTCHAR uni5321
ENCODING 21281
SWIDTH 750 0
DWIDTH 6 0
BBX 5 7 0 0
BITMAP
F8
B8
90
B8
90
B8
F8
ENDCHAR
STARTCHAR uni5323
ENCODING 21283
SWIDTH 750 0
DWIDTH 6 0
BBX 5 7 0 0
BITMAP
F8
80
B8
B8
B8
90
F8
ENDCHAR
STARTCHAR uni532A
ENCODING 21290
SWIDTH 750 0
DWIDTH 6 0
BBX 5 7 0 0
BITMAP
F8
B0
F8
B0
F8
D0
F8
ENDCHAR
STARTCHAR uni532F
ENCODING 21295
SWIDTH 750 0
DWIDTH 6 0
BBX 5 7 0 0
BITMAP
F8
D8
B0
D8
90
D8
F8
ENDCHAR
STARTCHAR uni5331
ENCODING 21297
SWIDTH 750 0
DWIDTH 6 0
BBX 5 7 0 0
BITMAP
F8
B0
F8
B0
B0
C8
F8
ENDCHAR
STARTCHAR uni5333
ENCODING 21299
SWIDTH 750 0
DWIDTH 6 0
BBX 5 7 0 0
BITMAP
F8
A0
F0
F8
D0
A8
F8
ENDCHAR
STARTCHAR uni5338
ENCODING 21304
SWIDTH 750 0
DWIDTH 6 0
BBX 5 7 0 0
BITMAP
F8
40
40
40
40
40
38
ENDCHAR
STARTCHAR uni5339
ENCODING 21305
SWIDTH 750 0
DWIDTH 6 0
BBX 5 7 0 0
BITMAP
F8
D0
D0
D0
98
80
F8
ENDCHAR
STARTCHAR uni533A
ENCODING 21306
SWIDTH 750 0
DWIDTH 6 0
BBX 5 7 0 0
BITMAP
F8
80
A8
90
A8
80
F8
ENDCHAR
STARTCHAR uni533B
ENCODING 21307
SWIDTH 750 0
DWIDTH 6 0
BBX 5 7 0 0
BITMAP
F8
A0
B8
F8
90
A8
F8
ENDCHAR
STARTCHAR uni533F
ENCODING 21311
SWIDTH 750 0
DWIDTH 6 0
BBX 5 7 0 0
BITMAP
F8
D0
F8
A0
F0
B0
F8
ENDCHAR
STARTCHAR uni5340
ENCODING 21312
SWIDTH 750 0
DWIDTH 6 0
BBX 5 7 0 0
BITMAP
F8
B0
B0
80
D8
D8
F8
ENDCHAR
STARTCHAR uni5341
ENCODING 21313
SWIDTH 750 0
DWIDTH 6 0
BBX 5 7 0 0
BITMAP
20
20
F8
20
20
20
20
ENDCHAR
STARTCHAR uni5343
ENCODING 21315
SWIDTH 750 0
DWIDTH 6 0
BBX 5 7 0 0
BITMAP
10
60
20
F8
20
20
20
ENDCHAR
STARTCHAR uni5345
ENCODING 21317
SWIDTH 750 0
DWIDTH 6 0
BBX 5 7 0 0
BITMAP
68
68
68
F8
68
68
A8
ENDCHAR
STARTCHAR uni5346
ENCODING 21318
SWIDTH 750 0
DWIDTH 6 0
BBX 5 7 0 0
BITMAP
20
F0
50
98
20
F8
20
ENDCHAR
STARTCHAR uni5347
ENCODING 21319
SWIDTH 750 0
DWIDTH 6 0
BBX 5 7 0 0
BITMAP
30
D0
50
F8
50
50
90
ENDCHAR
STARTCHAR uni5348
ENCODING 21320
SWIDTH 750 0
DWIDTH 6 0
BBX 5 7 0 0
BITMAP
40
78
A0
20
F8
20
20
ENDCHAR
STARTCHAR uni5349
ENCODING 21321
SWIDTH 750 0
DWIDTH 6 0
BBX 5 7 0 0
BITMAP
20
F8
20
50
F8
50
90
ENDCHAR
STARTCHAR uni534A
ENCODING 21322
SWIDTH 750 0
DWIDTH 6 0
BBX 5 7 0 0
BITMAP
20
A8
20
F8
20
F8
20
ENDCHAR
STARTCHAR uni534D
ENCODING 21325
SWIDTH 750 0
DWIDTH 6 0
BBX 5 7 0 0
BITMAP
E8
28
28
F8
A0
A0
B8
ENDCHAR
STARTCHAR uni5351
ENCODING 21329
SWIDTH 750 0
DWIDTH 6 0
BBX 5 7 0 0
BITMAP
20
F8
A8
F8
50
F8
10
ENDCHAR
STARTCHAR uni5352
ENCODING 21330
SWIDTH 750 0
DWIDTH 6 0
BBX 5 7 0 0
BITMAP
20
F8
50
50
A8
F8
20
ENDCHAR
STARTCHAR uni5353
ENCODING 21331
SWIDTH 750 0
DWIDTH 6 0
BBX 5 7 0 0
BITMAP
20
38
70
50
70
F8
20
ENDCHAR
STARTCHAR uni5354
ENCODING 21332
SWIDTH 750 0
DWIDTH 6 0
BBX 5 7 0 0
BITMAP
50
78
E8
40
68
78
68
ENDCHAR
STARTCHAR uni5357
ENCODING 21335
SWIDTH 750 0
DWIDTH 6 0
BBX 5 7 0 0
BITMAP
20
F8
20
D8
A8
F8
A8
ENDCHAR
STARTCHAR uni5358
ENCODING 21336
SWIDTH 750 0
DWIDTH 6 0
BBX 5 7 0 0
BITMAP
A8
10
F8
F8
20
F8
20
ENDCHAR
STARTCHAR uni535A
ENCODING 21338
SWIDTH 750 0
DWIDTH 6 0
BBX 5 7 0 0
BITMAP
50
78
D8
58
78
68
58
ENDCHAR
STARTCHAR uni535C
ENCODING 21340
SWIDTH 750 0
DWIDTH 6 0
BBX 3 7 1 0
BITMAP
80
80
C0
A0
80
80
80
ENDCHAR
STARTCHAR uni535E
ENCODING 21342
SWIDTH 750 0
DWIDTH 6 0
BBX 5 7 0 0
BITMAP
20
F8
20
30
28
20
20
ENDCHAR
STARTCHAR uni5360
ENCODING 21344
SWIDTH 750 0
DWIDTH 6 0
BBX 5 7 0 0
BITMAP
20
20
38
20
F8
88
F8
ENDCHAR
STARTCHAR uni5366
ENCODING 21350
SWIDTH 750 0
DWIDTH 6 0
BBX 5 7 0 0
BITMAP
50
F0
50
F8
50
70
D0
ENDCHAR
STARTCHAR uni5369
ENCODING 21353
SWIDTH 750 0
DWIDTH 6 0
BBX 4 7 1 0
BITMAP
F0
90
90
90
B0
80
80
ENDCHAR
STARTCHAR uni536E
ENCODING 21358
SWIDTH 750 0
DWIDTH 6 0
BBX 5 7 0 0
BITMAP
10
E0
F8
B8
A8
A0
B8
ENDCHAR
STARTCHAR uni536F
ENCODING 21359
SWIDTH 750 0
DWIDTH 6 0
BBX 5 7 0 0
BITMAP
78
A8
A8
A8
E8
60
A0
ENDCHAR
STARTCHAR uni5370
ENCODING 21360
SWIDTH 750 0
DWIDTH 6 0
BBX 5 7 0 0
BITMAP
40
B8
A8
E8
A8
E0
20
ENDCHAR
STARTCHAR uni5371
ENCODING 21361
SWIDTH 750 0
DWIDTH 6 0
BBX 5 7 0 0
BITMAP
30
D0
78
78
68
60
B8
ENDCHAR
STARTCHAR uni5373
ENCODING 21363
SWIDTH 750 0
DWIDTH 6 0
BBX 5 7 0 0
BITMAP
D8
D8
D8
D8
98
B0
D0
ENDCHAR
STARTCHAR uni5374
ENCODING 21364
SWIDTH 750 0
DWIDTH 6 0
BBX 5 7 0 0
BITMAP
58
F8
58
F8
58
B0
D0
ENDCHAR
STARTCHAR uni5375
ENCODING 21365
SWIDTH 750 0
DWIDTH 6 0
BBX 5 7 0 0
BITMAP
78
A8
F8
A8
E8
60
A0
ENDCHAR
STARTCHAR uni5377
ENCODING 21367
SWIDTH 750 0
DWIDTH 6 0
BBX 5 7 0 0
BITMAP
A8
20
F8
50
E8
40
70
ENDCHAR
STARTCHAR uni5378
ENCODING 21368
SWIDTH 750 0
DWIDTH 6 0
BBX 5 7 0 0
BITMAP
98
F8
58
F8
58
F0
D0
ENDCHAR
STARTCHAR uni537B
ENCODING 21371
SWIDTH 750 0
DWIDTH 6 0
BBX 5 7 0 0
BITMAP
B8
18
58
B8
18
D0
D0
ENDCHAR
STARTCHAR uni537F
ENCODING 21375
SWIDTH 750 0
DWIDTH 6 0
BBX 5 7 0 0
BITMAP
58
98
F8
F8
D8
70
90
ENDCHAR
STARTCHAR uni5382
ENCODING 21378
SWIDTH 750 0
DWIDTH 6 0
BBX 5 7 0 0
BITMAP
78
40
40
40
40
40
80
ENDCHAR
STARTCHAR uni5384
ENCODING 21380
SWIDTH 750 0
DWIDTH 6 0
BBX 5 7 0 0
BITMAP
F8
80
B8
A8
A8
A0
B8
ENDCHAR
STARTCHAR uni5396
ENCODING 21398
SWIDTH 750 0
DWIDTH 6 0
BBX 5 7 0 0
BITMAP
F8
C0
E8
D0
C8
50
B8
ENDCHAR
STARTCHAR uni5398
ENCODING 21400
SWIDTH 750 0
DWIDTH 6 0
BBX 5 7 0 0
BITMAP
F8
A8
F8
A8
F8
A0
78
ENDCHAR
STARTCHAR uni539A
ENCODING 21402
SWIDTH 750 0
DWIDTH 6 0
BBX 5 7 0 0
BITMAP
F8
B0
B0
90
F8
90
B0
ENDCHAR
STARTCHAR uni539F
ENCODING 21407
SWIDTH 750 0
DWIDTH 6 0
BBX 5 7 0 0
BITMAP
F8
90
B8
B8
90
D8
B0
ENDCHAR
STARTCHAR uni53A0
ENCODING 21408
SWIDTH 750 0
DWIDTH 6 0
BBX 5 7 0 0
BITMAP
F8
A0
E8
A8
E8
08
A8
ENDCHAR
STARTCHAR uni53A5
ENCODING 21413
SWIDTH 750 0
DWIDTH 6 0
BBX 5 7 0 0
BITMAP
F8
A0
D8
B8
D0
D0
A8
ENDCHAR
STARTCHAR uni53A6
ENCODING 21414
SWIDTH 750 0
DWIDTH 6 0
BBX 5 7 0 0
BITMAP
F8
B8
B0
B0
D0
A0
D8
ENDCHAR
STARTCHAR uni53A8
ENCODING 21416
SWIDTH 750 0
DWIDTH 6 0
BBX 5 7 0 0
BITMAP
F8
80
E8
B8
E8
58
E8
ENDCHAR
STARTCHAR uni53A9
ENCODING 21417
SWIDTH 750 0
DWIDTH 6 0
BBX 5 7 0 0
BITMAP
F8
B8
D8
D8
B8
D0
A8
ENDCHAR
STARTCHAR uni53AD
ENCODING 21421
SWIDTH 750 0
DWIDTH 6 0
BBX 5 7 0 0
BITMAP
F8
D0
B8
D0
D0
D0
A8
ENDCHAR
STARTCHAR uni53AE
ENCODING 21422
SWIDTH 750 0
DWIDTH 6 0
BBX 5 7 0 0
BITMAP
F8
E8
F0
F8
F8
18
A8
ENDCHAR
STARTCHAR uni53B0
ENCODING 21424
SWIDTH 750 0
DWIDTH 6 0
BBX 5 7 0 0
BITMAP
F8
D0
B8
E8
E8
F0
A8
ENDCHAR
STARTCHAR uni53B3
ENCODING 21427
SWIDTH 750 0
DWIDTH 6 0
BBX 5 7 0 0
BITMAP
A8
F8
80
D8
E8
D0
A8
ENDCHAR
STARTCHAR uni53B6
ENCODING 21430
SWIDTH 750 0
DWIDTH 6 0
BBX 5 7 0 0
BITMAP
20
20
20
20
40
50
E8
ENDCHAR
STARTCHAR uni53BB
ENCODING 21435
SWIDTH 750 0
DWIDTH 6 0
BBX 5 7 0 0
BITMAP
20
70
20
F8
20
50
E8
ENDCHAR
STARTCHAR uni53C2
ENCODING 21442
SWIDTH 750 0
DWIDTH 6 0
BBX 5 7 0 0
BITMAP
20
48
F8
50
A8
10
60
ENDCHAR
STARTCHAR uni53C3
ENCODING 21443
SWIDTH 750 0
DWIDTH 6 0
BBX 5 7 0 0
BITMAP
20
50
E8
50
A8
10
60
ENDCHAR
STARTCHAR uni53C8
ENCODING 21448
SWIDTH 750 0
DWIDTH 6 0
BBX 5 7 0 0
BITMAP
F8
08
50
50
20
50
88
ENDCHAR
STARTCHAR uni53C9
ENCODING 21449
SWIDTH 750 0
DWIDTH 6 0
BBX 5 7 0 0
BITMAP
F8
28
88
50
20
50
88
ENDCHAR
STARTCHAR uni53CA
ENCODING 21450
SWIDTH 750 0
DWIDTH 6 0
BBX 5 7 0 0
BITMAP
F0
50
58
48
68
50
A8
ENDCHAR
STARTCHAR uni53CB
ENCODING 21451
SWIDTH 750 0
DWIDTH 6 0
BBX 5 7 0 0
BITMAP
20
F8
20
30
50
A0
58
ENDCHAR
STARTCHAR uni53CC
ENCODING 21452
SWIDTH 750 0
DWIDTH 6 0
BBX 5 7 0 0
BITMAP
F8
28
A8
68
50
50
A8
ENDCHAR
STARTCHAR uni53CD
ENCODING 21453
SWIDTH 750 0
DWIDTH 6 0
BBX 5 7 0 0
BITMAP
F8
80
F8
A8
A8
90
A8
ENDCHAR
STARTCHAR uni53CE
ENCODING 21454
SWIDTH 750 0
DWIDTH 6 0
BBX 5 7 0 0
BITMAP
38
A8
A8
A8
B0
F0
28
ENDCHAR
STARTCHAR uni53D4
ENCODING 21460
SWIDTH 750 0
DWIDTH 6 0
BBX 5 7 0 0
BITMAP
58
68
48
E8
50
D0
68
ENDCHAR
STARTCHAR uni53D6
ENCODING 21462
SWIDTH 750 0
DWIDTH 6 0
BBX 5 7 0 0
BITMAP
E0
78
68
68
70
E8
20
ENDCHAR
STARTCHAR uni53D7
ENCODING 21463
SWIDTH 750 0
DWIDTH 6 0
BBX 5 7 0 0
BITMAP
F8
50
F8
88
70
20
D8
ENDCHAR
STARTCHAR uni53D9
ENCODING 21465
SWIDTH 750 0
DWIDTH 6 0
BBX 5 7 0 0
BITMAP
58
A8
E8
50
F0
D0
68
ENDCHAR
STARTCHAR uni53DB
ENCODING 21467
SWIDTH 750 0
DWIDTH 6 0
BBX 5 7 0 0
BITMAP
B8
20
F8
68
E8
50
A8
ENDCHAR
STARTCHAR uni53DF
ENCODING 21471
SWIDTH 750 0
DWIDTH 6 0
BBX 5 7 0 0
BITMAP
58
A8
A8
F8
50
20
D8
ENDCHAR
STARTCHAR uni53E1
ENCODING 21473
SWIDTH 750 0
DWIDTH 6 0
BBX 5 7 0 0
BITMAP
58
68
E8
A8
50
F0
68
ENDCHAR
STARTCHAR uni53E2
ENCODING 21474
SWIDTH 750 0
DWIDTH 6 0
BBX 5 7 0 0
BITMAP
A8
F8
50
F8
68
F0
28
ENDCHAR
STARTCHAR uni53E3
ENCODING 21475
SWIDTH 750 0
DWIDTH 6 0
BBX 5 6 0 0
BITMAP
F8
88
88
88
F8
88
ENDCHAR
STARTCHAR uni53E4
ENCODING 21476
SWIDTH 750 0
DWIDTH 6 0
BBX 5 7 0 0
BITMAP
20
20
F8
20
70
50
70
ENDCHAR
STARTCHAR uni53E5
ENCODING 21477
SWIDTH 750 0
DWIDTH 6 0
BBX 5 7 0 0
BITMAP
40
78
88
78
58
78
08
ENDCHAR
STARTCHAR uni53E8
ENCODING 21480
SWIDTH 750 0
DWIDTH 6 0
BBX 5 7 0 0
BITMAP
38
D8
D8
D8
D8
28
28
ENDCHAR
STARTCHAR uni53E9
ENCODING 21481
SWIDTH 750 0
DWIDTH 6 0
BBX 5 7 0 0
BITMAP
38
E8
A8
A8
E8
20
20
ENDCHAR
STARTCHAR uni53EA
ENCODING 21482
SWIDTH 750 0
DWIDTH 6 0
BBX 5 7 0 0
BITMAP
F8
88
88
F8
00
50
88
ENDCHAR
STARTCHAR uni53EB
ENCODING 21483
SWIDTH 750 0
DWIDTH 6 0
BBX 5 7 0 0
BITMAP
08
E8
A8
A8
E8
38
08
ENDCHAR
STARTCHAR uni53EC
ENCODING 21484
SWIDTH 750 0
DWIDTH 6 0
BBX 5 7 0 0
BITMAP
F8
28
48
98
70
50
70
ENDCHAR
STARTCHAR uni53ED
ENCODING 21485
SWIDTH 750 0
DWIDTH 6 0
BBX 5 7 0 0
BITMAP
50
D0
D0
D0
D0
50
88
ENDCHAR
STARTCHAR uni53EE
ENCODING 21486
SWIDTH 750 0
DWIDTH 6 0
BBX 5 7 0 0
BITMAP
38
D0
D0
D0
D0
10
30
ENDCHAR
STARTCHAR uni53EF
ENCODING 21487
SWIDTH 750 0
DWIDTH 6 0
BBX 5 7 0 0
BITMAP
F8
10
70
50
70
10
30
ENDCHAR
STARTCHAR uni53F0
ENCODING 21488
SWIDTH 750 0
DWIDTH 6 0
BBX 5 7 0 0
BITMAP
20
20
50
E8
00
70
70
ENDCHAR
STARTCHAR uni53F1
ENCODING 21489
SWIDTH 750 0
DWIDTH 6 0
BBX 5 7 0 0
BITMAP
20
E0
A8
B0
E0
28
38
ENDCHAR
STARTCHAR uni53F2
ENCODING 21490
SWIDTH 750 0
DWIDTH 6 0
BBX 5 7 0 0
BITMAP
20
F8
A8
F8
60
20
D8
ENDCHAR
STARTCHAR uni53F3
ENCODING 21491
SWIDTH 750 0
DWIDTH 6 0
BBX 5 7 0 0
BITMAP
20
F8
40
78
C8
48
78
ENDCHAR
STARTCHAR uni53F6
ENCODING 21494
SWIDTH 750 0
DWIDTH 6 0
BBX 5 7 0 0
BITMAP
10
D0
F8
D0
D0
10
10
ENDCHAR
STARTCHAR uni53F7
ENCODING 21495
SWIDTH 750 0
DWIDTH 6 0
BBX 5 7 0 0
BITMAP
70
50
F8
40
70
10
30
ENDCHAR
STARTCHAR uni53F8
ENCODING 21496
SWIDTH 750 0
DWIDTH 6 0
BBX 5 7 0 0
BITMAP
F8
08
68
08
68
68
18
ENDCHAR
STARTCHAR uni53FA
ENCODING 21498
SWIDTH 750 0
DWIDTH 6 0
BBX 5 7 0 0
BITMAP
30
D0
D0
D0
D0
28
48
ENDCHAR
STARTCHAR uni5401
ENCODING 21505
SWIDTH 750 0
DWIDTH 6 0
BBX 5 7 0 0
BITMAP
38
D0
D0
F8
D0
10
30
ENDCHAR
STARTCHAR uni5403
ENCODING 21507
SWIDTH 750 0
DWIDTH 6 0
BBX 5 7 0 0
BITMAP
20
F8
C0
F8
D0
20
18
ENDCHAR
STARTCHAR uni5404
ENCODING 21508
SWIDTH 750 0
DWIDTH 6 0
BBX 5 7 0 0
BITMAP
30
50
20
50
F8
50
70
ENDCHAR
STARTCHAR uni5408
ENCODING 21512
SWIDTH 750 0
DWIDTH 6 0
BBX 5 7 0 0
BITMAP
20
50
B8
00
70
50
70
ENDCHAR
STARTCHAR uni5409
ENCODING 21513
SWIDTH 750 0
DWIDTH 6 0
BBX 5 7 0 0
BITMAP
20
F8
20
70
00
70
70
ENDCHAR
STARTCHAR uni540A
ENCODING 21514
SWIDTH 750 0
DWIDTH 6 0
BBX 5 7 0 0
BITMAP
70
50
70
F8
A8
A8
20
ENDCHAR
STARTCHAR uni540B
ENCODING 21515
SWIDTH 750 0
DWIDTH 6 0
BBX 5 7 0 0
BITMAP
08
F8
C8
E8
D8
08
18
ENDCHAR
STARTCHAR uni540C
ENCODING 21516
SWIDTH 750 0
DWIDTH 6 0
BBX 5 7 0 0
BITMAP
F8
88
B8
88
B8
B8
88
ENDCHAR
STARTCHAR uni540D
ENCODING 21517
SWIDTH 750 0
DWIDTH 6 0
BBX 5 7 0 0
BITMAP
70
50
A0
40
F8
48
78
ENDCHAR
STARTCHAR uni540E
ENCODING 21518
SWIDTH 750 0
DWIDTH 6 0
BBX 5 7 0 0
BITMAP
08
70
40
78
40
58
98
ENDCHAR
STARTCHAR uni540F
ENCODING 21519
SWIDTH 750 0
DWIDTH 6 0
BBX 5 7 0 0
BITMAP
20
F8
70
70
60
20
D8
ENDCHAR
STARTCHAR uni5410
ENCODING 21520
SWIDTH 750 0
DWIDTH 6 0
BBX 5 7 0 0
BITMAP
10
D0
F8
D0
D0
10
38
ENDCHAR
STARTCHAR uni5411
ENCODING 21521
SWIDTH 750 0
DWIDTH 6 0
BBX 5 7 0 0
BITMAP
20
F8
88
F8
D8
F8
88
ENDCHAR
STARTCHAR uni541B
ENCODING 21531
SWIDTH 750 0
DWIDTH 6 0
BBX 5 7 0 0
BITMAP
F0
50
F8
50
70
B8
38
ENDCHAR
STARTCHAR uni541D
ENCODING 21533
SWIDTH 750 0
DWIDTH 6 0
BBX 5 7 0 0
BITMAP
20
F8
50
20
D8
70
70
ENDCHAR
STARTCHAR uni541F
ENCODING 21535
SWIDTH 750 0
DWIDTH 6 0
BBX 5 7 0 0
BITMAP
10
E8
D8
C0
F8
08
10
ENDCHAR
STARTCHAR uni5420
ENCODING 21536
SWIDTH 750 0
DWIDTH 6 0
BBX 5 7 0 0
BITMAP
18
D0
F8
D0
D0
10
28
ENDCHAR
STARTCHAR uni5426
ENCODING 21542
SWIDTH 750 0
DWIDTH 6 0
BBX 5 7 0 0
BITMAP
F8
20
70
A8
70
50
70
ENDCHAR
STARTCHAR uni5429
ENCODING 21545
SWIDTH 750 0
DWIDTH 6 0
BBX 5 7 0 0
BITMAP
28
E8
C0
F8
E8
28
58
ENDCHAR
STARTCHAR uni542B
ENCODING 21547
SWIDTH 750 0
DWIDTH 6 0
BBX 5 7 0 0
BITMAP
20
50
F8
10
70
50
70
ENDCHAR
STARTCHAR uni542C
ENCODING 21548
SWIDTH 750 0
DWIDTH 6 0
BBX 5 7 0 0
BITMAP
08
F0
A0
B8
E8
28
48
ENDCHAR
STARTCHAR uni542D
ENCODING 21549
SWIDTH 750 0
DWIDTH 6 0
BBX 5 7 0 0
BITMAP
10
F8
C0
F8
E8
28
48
ENDCHAR
STARTCHAR uni542E
ENCODING 21550
SWIDTH 750 0
DWIDTH 6 0
BBX 5 7 0 0
BITMAP
10
E0
C8
F8
F0
30
58
ENDCHAR
STARTCHAR uni5436
ENCODING 21558
SWIDTH 750 0
DWIDTH 6 0
BBX 5 7 0 0
BITMAP
30
D0
F8
D8
E8
48
58
ENDCHAR
STARTCHAR uni5438
ENCODING 21560
SWIDTH 750 0
DWIDTH 6 0
BBX 5 7 0 0
BITMAP
70
D0
D8
C8
E8
50
A8
ENDCHAR
STARTCHAR uni5439
ENCODING 21561
SWIDTH 750 0
DWIDTH 6 0
BBX 5 7 0 0
BITMAP
20
F8
D8
D0
D0
10
28
ENDCHAR
STARTCHAR uni543B
ENCODING 21563
SWIDTH 750 0
DWIDTH 6 0
BBX 5 7 0 0
BITMAP
20
F8
D8
E8
D8
28
18
ENDCHAR
STARTCHAR uni543C
ENCODING 21564
SWIDTH 750 0
DWIDTH 6 0
BBX 5 7 0 0
BITMAP
30
D0
F0
D0
F0
30
78
ENDCHAR
STARTCHAR uni543D
ENCODING 21565
SWIDTH 750 0
DWIDTH 6 0
BBX 5 7 0 0
BITMAP
30
F8
D0
D0
F8
10
10
ENDCHAR
STARTCHAR uni543E
ENCODING 21566
SWIDTH 750 0
DWIDTH 6 0
BBX 5 7 0 0
BITMAP
70
20
F0
50
F8
50
70
ENDCHAR
STARTCHAR uni5440
ENCODING 21568
SWIDTH 750 0
DWIDTH 6 0
BBX 5 7 0 0
BITMAP
38
E8
E8
F8
D8
28
18
ENDCHAR
STARTCHAR uni5442
ENCODING 21570
SWIDTH 750 0
DWIDTH 6 0
BBX 5 7 0 0
BITMAP
70
50
70
20
F8
88
F8
ENDCHAR
STARTCHAR uni5446
ENCODING 21574
SWIDTH 750 0
DWIDTH 6 0
BBX 5 7 0 0
BITMAP
70
50
70
20
F8
70
A8
ENDCHAR
STARTCHAR uni5448
ENCODING 21576
SWIDTH 750 0
DWIDTH 6 0
BBX 5 7 0 0
BITMAP
70
50
F8
20
70
20
F8
ENDCHAR
STARTCHAR uni5449
ENCODING 21577
SWIDTH 750 0
DWIDTH 6 0
BBX 5 7 0 0
BITMAP
38
A8
F8
10
F8
00
88
ENDCHAR
STARTCHAR uni544A
ENCODING 21578
SWIDTH 750 0
DWIDTH 6 0
BBX 5 7 0 0
BITMAP
60
78
A0
F8
00
70
70
ENDCHAR
STARTCHAR uni544E
ENCODING 21582
SWIDTH 750 0
DWIDTH 6 0
BBX 5 7 0 0
BITMAP
78
C8
F8
D0
D0
50
88
ENDCHAR
STARTCHAR uni5451
ENCODING 21585
SWIDTH 750 0
DWIDTH 6 0
BBX 5 7 0 0
BITMAP
10
60
F8
50
88
70
70
ENDCHAR
STARTCHAR uni545F
ENCODING 21599
SWIDTH 750 0
DWIDTH 6 0
BBX 5 7 0 0
BITMAP
10
F8
D0
E8
D0
20
38
ENDCHAR
STARTCHAR uni5468
ENCODING 21608
SWIDTH 750 0
DWIDTH 6 0
BBX 5 7 0 0
BITMAP
F8
A8
F8
A8
D8
F8
88
ENDCHAR
STARTCHAR uni546A
ENCODING 21610
SWIDTH 750 0
DWIDTH 6 0
BBX 5 7 0 0
BITMAP
38
E8
A8
B8
D0
10
28
ENDCHAR
STARTCHAR uni5470
ENCODING 21616
SWIDTH 750 0
DWIDTH 6 0
BBX 5 7 0 0
BITMAP
90
D8
90
D8
70
50
70
ENDCHAR
STARTCHAR uni5471
ENCODING 21617
SWIDTH 750 0
DWIDTH 6 0
BBX 5 7 0 0
BITMAP
08
F0
D0
D0
D0
58
A8
ENDCHAR
STARTCHAR uni5473
ENCODING 21619
SWIDTH 750 0
DWIDTH 6 0
BBX 5 7 0 0
BITMAP
10
F8
D0
F8
D0
38
50
ENDCHAR
STARTCHAR uni5475
ENCODING 21621
SWIDTH 750 0
DWIDTH 6 0
BBX 5 7 0 0
BITMAP
38
C8
F8
E8
F8
08
18
ENDCHAR
STARTCHAR uni5476
ENCODING 21622
SWIDTH 750 0
DWIDTH 6 0
BBX 5 7 0 0
BITMAP
58
C8
E8
A8
D0
50
A8
ENDCHAR
STARTCHAR uni5477
ENCODING 21623
SWIDTH 750 0
DWIDTH 6 0
BBX 5 7 0 0
BITMAP
78
D8
F8
D8
F8
10
10
ENDCHAR
STARTCHAR uni547B
ENCODING 21627
SWIDTH 750 0
DWIDTH 6 0
BBX 5 7 0 0
BITMAP
10
F8
E8
F8
E8
38
10
ENDCHAR
STARTCHAR uni547C
ENCODING 21628
SWIDTH 750 0
DWIDTH 6 0
BBX 5 7 0 0
BITMAP
08
F0
D8
D0
F8
10
30
ENDCHAR
STARTCHAR uni547D
ENCODING 21629
SWIDTH 750 0
DWIDTH 6 0
BBX 5 7 0 0
BITMAP
20
50
B8
00
D8
D8
10
ENDCHAR
STARTCHAR uni5480
ENCODING 21632
SWIDTH 750 0
DWIDTH 6 0
BBX 5 7 0 0
BITMAP
38
E8
B8
A8
F8
28
78
ENDCHAR
STARTCHAR uni5484
ENCODING 21636
SWIDTH 750 0
DWIDTH 6 0
BBX 5 7 0 0
BITMAP
10
D8
F8
D0
10
58
78
ENDCHAR
STARTCHAR uni5486
ENCODING 21638
SWIDTH 750 0
DWIDTH 6 0
BBX 5 7 0 0
BITMAP
10
D8
E8
D8
D8
10
18
ENDCHAR
STARTCHAR uni548B
ENCODING 21643
SWIDTH 750 0
DWIDTH 6 0
BBX 5 7 0 0
BITMAP
10
D8
F0
D8
D0
18
10
ENDCHAR
STARTCHAR uni548C
ENCODING 21644
SWIDTH 750 0
DWIDTH 6 0
BBX 5 7 0 0
BITMAP
E0
58
F8
58
F8
D8
40
ENDCHAR
STARTCHAR uni548E
ENCODING 21646
SWIDTH 750 0
DWIDTH 6 0
BBX 5 7 0 0
BITMAP
50
70
A8
40
B8
70
70
ENDCHAR
STARTCHAR uni548F
ENCODING 21647
SWIDTH 750 0
DWIDTH 6 0
BBX 5 7 0 0
BITMAP
30
C0
F0
D8
F0
58
30
ENDCHAR
STARTCHAR uni5490
ENCODING 21648
SWIDTH 750 0
DWIDTH 6 0
BBX 5 7 0 0
BITMAP
28
F8
C8
E8
D8
48
58
ENDCHAR
STARTCHAR uni5492
ENCODING 21650
SWIDTH 750 0
DWIDTH 6 0
BBX 5 7 0 0
BITMAP
D8
D8
00
70
50
50
98
ENDCHAR
STARTCHAR uni54A2
ENCODING 21666
SWIDTH 750 0
DWIDTH 6 0
BBX 5 7 0 0
BITMAP
D8
D8
70
F8
40
70
10
ENDCHAR
STARTCHAR uni54A4
ENCODING 21668
SWIDTH 750 0
DWIDTH 6 0
BBX 5 7 0 0
BITMAP
10
F8
E8
D0
F8
10
18
ENDCHAR
STARTCHAR uni54A5
ENCODING 21669
SWIDTH 750 0
DWIDTH 6 0
BBX 5 7 0 0
BITMAP
38
D0
E8
D0
F8
10
38
ENDCHAR
STARTCHAR uni54A8
ENCODING 21672
SWIDTH 750 0
DWIDTH 6 0
BBX 5 7 0 0
BITMAP
A0
38
10
A8
70
50
70
ENDCHAR
STARTCHAR uni54AB
ENCODING 21675
SWIDTH 750 0
DWIDTH 6 0
BBX 5 7 0 0
BITMAP
60
78
78
40
68
40
B8
ENDCHAR
STARTCHAR uni54AC
ENCODING 21676
SWIDTH 750 0
DWIDTH 6 0
BBX 5 7 0 0
BITMAP
10
F8
E8
C0
E8
10
28
ENDCHAR
STARTCHAR uni54AF
ENCODING 21679
SWIDTH 750 0
DWIDTH 6 0
BBX 5 7 0 0
BITMAP
18
E8
D0
E8
C0
18
18
ENDCHAR
STARTCHAR uni54B2
ENCODING 21682
SWIDTH 750 0
DWIDTH 6 0
BBX 5 7 0 0
BITMAP
28
C0
F8
D0
F8
10
28
ENDCHAR
STARTCHAR uni54B3
ENCODING 21683
SWIDTH 750 0
DWIDTH 6 0
BBX 5 7 0 0
BITMAP
10
F8
E0
D0
E8
10
68
ENDCHAR
STARTCHAR uni54B8
ENCODING 21688
SWIDTH 750 0
DWIDTH 6 0
BBX 5 7 0 0
BITMAP
10
F8
90
D0
98
D0
E8
ENDCHAR
STARTCHAR uni54BC
ENCODING 21692
SWIDTH 750 0
DWIDTH 6 0
BBX 5 7 0 0
BITMAP
78
48
58
F8
88
B8
B8
ENDCHAR
STARTCHAR uni54BD
ENCODING 21693
SWIDTH 750 0
DWIDTH 6 0
BBX 5 7 0 0
BITMAP
78
D8
F8
D8
E8
48
78
ENDCHAR
STARTCHAR uni54BE
ENCODING 21694
SWIDTH 750 0
DWIDTH 6 0
BBX 5 7 0 0
BITMAP
10
F8
D0
F8
E0
10
18
ENDCHAR
STARTCHAR uni54C0
ENCODING 21696
SWIDTH 750 0
DWIDTH 6 0
BBX 5 7 0 0
BITMAP
20
F8
50
70
68
D0
68
ENDCHAR
STARTCHAR uni54C1
ENCODING 21697
SWIDTH 750 0
DWIDTH 6 0
BBX 5 7 0 0
BITMAP
70
50
70
00
D8
D8
D8
ENDCHAR
STARTCHAR uni54C2
ENCODING 21698
SWIDTH 750 0
DWIDTH 6 0
BBX 5 7 0 0
BITMAP
38
D0
B8
B8
E8
28
38
ENDCHAR
STARTCHAR uni54C4
ENCODING 21700
SWIDTH 750 0
DWIDTH 6 0
BBX 5 7 0 0
BITMAP
28
F8
E8
E8
F8
00
28
ENDCHAR
STARTCHAR uni54C7
ENCODING 21703
SWIDTH 750 0
DWIDTH 6 0
BBX 5 7 0 0
BITMAP
10
F8
D0
F8
D0
10
38
ENDCHAR
STARTCHAR uni54C8
ENCODING 21704
SWIDTH 750 0
DWIDTH 6 0
BBX 5 7 0 0
BITMAP
10
E8
D8
C0
F8
28
38
ENDCHAR
STARTCHAR uni54C9
ENCODING 21705
SWIDTH 750 0
DWIDTH 6 0
BBX 5 7 0 0
BITMAP
58
F0
50
F8
10
D0
C8
ENDCHAR
STARTCHAR uni54D8
ENCODING 21720
SWIDTH 750 0
DWIDTH 6 0
BBX 5 7 0 0
BITMAP
58
80
D8
C8
C8
48
58
ENDCHAR
STARTCHAR uni54E1
ENCODING 21729
SWIDTH 750 0
DWIDTH 6 0
BBX 5 7 0 0
BITMAP
70
50
F8
88
F8
00
88
ENDCHAR
STARTCHAR uni54E2
ENCODING 21730
SWIDTH 750 0
DWIDTH 6 0
BBX 5 7 0 0
BITMAP
38
D0
F8
E8
F8
28
48
ENDCHAR
STARTCHAR uni54E5
ENCODING 21733
SWIDTH 750 0
DWIDTH 6 0
BBX 5 7 0 0
BITMAP
F8
50
10
F8
10
50
30
ENDCHAR
STARTCHAR uni54E6
ENCODING 21734
SWIDTH 750 0
DWIDTH 6 0
BBX 5 7 0 0
BITMAP
38
D0
F8
D0
D8
30
08
ENDCHAR
STARTCHAR uni54E8
ENCODING 21736
SWIDTH 750 0
DWIDTH 6 0
BBX 5 7 0 0
BITMAP
28
D0
F8
E8
F8
28
28
ENDCHAR
STARTCHAR uni54E9
ENCODING 21737
SWIDTH 750 0
DWIDTH 6 0
BBX 5 7 0 0
BITMAP
38
F8
F8
D0
F8
10
38
ENDCHAR
STARTCHAR uni54ED
ENCODING 21741
SWIDTH 750 0
DWIDTH 6 0
BBX 5 7 0 0
BITMAP
D8
D8
20
F8
20
50
88
ENDCHAR
STARTCHAR uni54EE
ENCODING 21742
SWIDTH 750 0
DWIDTH 6 0
BBX 5 7 0 0
BITMAP
10
F8
D0
F8
E8
58
10
ENDCHAR
STARTCHAR uni54F2
ENCODING 21746
SWIDTH 750 0
DWIDTH 6 0
BBX 5 7 0 0
BITMAP
48
D0
58
E8
70
50
70
ENDCHAR
STARTCHAR uni54FA
ENCODING 21754
SWIDTH 750 0
DWIDTH 6 0
BBX 5 7 0 0
BITMAP
10
F8
D0
F8
D8
78
58
ENDCHAR
STARTCHAR uni54FD
ENCODING 21757
SWIDTH 750 0
DWIDTH 6 0
BBX 5 7 0 0
BITMAP
38
F8
F8
D0
F0
10
28
ENDCHAR
STARTCHAR uni5504
ENCODING 21764
SWIDTH 750 0
DWIDTH 6 0
BBX 5 7 0 0
BITMAP
38
E8
B8
A8
F8
00
28
ENDCHAR
STARTCHAR uni5506
ENCODING 21766
SWIDTH 750 0
DWIDTH 6 0
BBX 5 7 0 0
BITMAP
28
F8
E8
D8
E8
10
28
ENDCHAR
STARTCHAR uni5507
ENCODING 21767
SWIDTH 750 0
DWIDTH 6 0
BBX 5 7 0 0
BITMAP
F8
B0
F8
D0
E8
70
70
ENDCHAR
STARTCHAR uni550F
ENCODING 21775
SWIDTH 750 0
DWIDTH 6 0
BBX 5 7 0 0
BITMAP
28
D0
E8
D0
F8
58
10
ENDCHAR
STARTCHAR uni5510
ENCODING 21776
SWIDTH 750 0
DWIDTH 6 0
BBX 5 7 0 0
BITMAP
20
F8
B0
98
F8
B0
B0
ENDCHAR
STARTCHAR uni5514
ENCODING 21780
SWIDTH 750 0
DWIDTH 6 0
BBX 5 7 0 0
BITMAP
38
D0
F8
D8
C0
18
18
ENDCHAR
STARTCHAR uni5516
ENCODING 21782
SWIDTH 750 0
DWIDTH 6 0
BBX 5 7 0 0
BITMAP
38
D0
B8
A8
F8
10
38
ENDCHAR
STARTCHAR uni552E
ENCODING 21806
SWIDTH 750 0
DWIDTH 6 0
BBX 5 7 0 0
BITMAP
50
78
D0
78
00
78
78
ENDCHAR
STARTCHAR uni552F
ENCODING 21807
SWIDTH 750 0
DWIDTH 6 0
BBX 5 7 0 0
BITMAP
28
F8
B0
B8
F0
30
38
ENDCHAR
STARTCHAR uni5531
ENCODING 21809
SWIDTH 750 0
DWIDTH 6 0
BBX 5 7 0 0
BITMAP
18
D8
B8
A8
F8
28
38
ENDCHAR
STARTCHAR uni5533
ENCODING 21811
SWIDTH 750 0
DWIDTH 6 0
BBX 5 7 0 0
BITMAP
78
C8
F8
D0
F8
50
A8
ENDCHAR
STARTCHAR uni5538
ENCODING 21816
SWIDTH 750 0
DWIDTH 6 0
BBX 5 7 0 0
BITMAP
10
E8
F0
D0
C0
28
58
ENDCHAR
STARTCHAR uni5539
ENCODING 21817
SWIDTH 750 0
DWIDTH 6 0
BBX 5 7 0 0
BITMAP
50
E8
C0
F0
E8
70
A8
ENDCHAR
STARTCHAR uni553E
ENCODING 21822
SWIDTH 750 0
DWIDTH 6 0
BBX 5 7 0 0
BITMAP
38
D0
F8
F0
F8
10
38
ENDCHAR
STARTCHAR uni5540
ENCODING 21824
SWIDTH 750 0
DWIDTH 6 0
BBX 5 7 0 0
BITMAP
78
D0
F8
D0
F8
50
B8
ENDCHAR
STARTCHAR uni5544
ENCODING 21828
SWIDTH 750 0
DWIDTH 6 0
BBX 5 7 0 0
BITMAP
38
D0
F0
D8
F0
58
30
ENDCHAR
STARTCHAR uni5545
ENCODING 21829
SWIDTH 750 0
DWIDTH 6 0
BBX 5 7 0 0
BITMAP
10
D8
F0
F8
D0
38
10
ENDCHAR
STARTCHAR uni5546
ENCODING 21830
SWIDTH 750 0
DWIDTH 6 0
BBX 5 7 0 0
BITMAP
20
F8
50
F8
D8
88
A8
ENDCHAR
STARTCHAR uni554C
ENCODING 21836
SWIDTH 750 0
DWIDTH 6 0
BBX 5 7 0 0
BITMAP
10
F8
E8
C0
F8
10
38
ENDCHAR
STARTCHAR uni554F
ENCODING 21839
SWIDTH 750 0
DWIDTH 6 0
BBX 5 7 0 0
BITMAP
D8
D8
88
F8
D8
F8
88
ENDCHAR
STARTCHAR uni5553
ENCODING 21843
SWIDTH 750 0
DWIDTH 6 0
BBX 5 7 0 0
BITMAP
F8
68
50
A8
70
50
70
ENDCHAR
STARTCHAR uni5556
ENCODING 21846
SWIDTH 750 0
DWIDTH 6 0
BBX 5 7 0 0
BITMAP
10
F8
D0
E8
F8
10
28
ENDCHAR
STARTCHAR uni5557
ENCODING 21847
SWIDTH 750 0
DWIDTH 6 0
BBX 5 7 0 0
BITMAP
38
C8
D0
D8
C8
58
78
ENDCHAR
STARTCHAR uni555C
ENCODING 21852
SWIDTH 750 0
DWIDTH 6 0
BBX 5 7 0 0
BITMAP
78
D0
E8
F8
E8
50
A8
ENDCHAR
STARTCHAR uni555D
ENCODING 21853
SWIDTH 750 0
DWIDTH 6 0
BBX 5 7 0 0
BITMAP
60
D8
F8
D8
E0
50
48
ENDCHAR
STARTCHAR uni5563
ENCODING 21859
SWIDTH 750 0
DWIDTH 6 0
BBX 5 7 0 0
BITMAP
28
F8
D8
F8
D8
38
08
ENDCHAR
STARTCHAR uni557B
ENCODING 21883
SWIDTH 750 0
DWIDTH 6 0
BBX 5 7 0 0
BITMAP
20
F8
50
F8
A8
70
70
ENDCHAR
STARTCHAR uni557C
ENCODING 21884
SWIDTH 750 0
DWIDTH 6 0
BBX 5 7 0 0
BITMAP
10
F8
E8
F8
D0
38
28
ENDCHAR
STARTCHAR uni557E
ENCODING 21886
SWIDTH 750 0
DWIDTH 6 0
BBX 5 7 0 0
BITMAP
70
D0
F8
D0
F0
50
68
ENDCHAR
STARTCHAR uni5580
ENCODING 21888
SWIDTH 750 0
DWIDTH 6 0
BBX 5 7 0 0
BITMAP
10
F8
E8
D0
E8
18
18
ENDCHAR
STARTCHAR uni5583
ENCODING 21891
SWIDTH 750 0
DWIDTH 6 0
BBX 5 7 0 0
BITMAP
10
F8
D0
E8
D8
78
58
ENDCHAR
STARTCHAR uni5584
ENCODING 21892
SWIDTH 750 0
DWIDTH 6 0
BBX 5 7 0 0
BITMAP
50
F8
20
F8
50
F8
70
ENDCHAR
STARTCHAR uni5587
ENCODING 21895
SWIDTH 750 0
DWIDTH 6 0
BBX 5 7 0 0
BITMAP
28
F8
E8
F8
E8
78
A8
ENDCHAR
STARTCHAR uni5589
ENCODING 21897
SWIDTH 750 0
DWIDTH 6 0
BBX 5 7 0 0
BITMAP
58
C8
F8
D0
F8
50
68
ENDCHAR
STARTCHAR uni558A
ENCODING 21898
SWIDTH 750 0
DWIDTH 6 0
BBX 5 7 0 0
BITMAP
10
F8
D0
F0
D8
70
A8
ENDCHAR
STARTCHAR uni558B
ENCODING 21899
SWIDTH 750 0
DWIDTH 6 0
BBX 5 7 0 0
BITMAP
58
F8
D8
C0
F8
30
58
ENDCHAR
STARTCHAR uni5598
ENCODING 21912
SWIDTH 750 0
DWIDTH 6 0
BBX 5 7 0 0
BITMAP
28
F8
C0
F8
D0
38
28
ENDCHAR
STARTCHAR uni5599
ENCODING 21913
SWIDTH 750 0
DWIDTH 6 0
BBX 5 7 0 0
BITMAP
18
E8
F8
D0
E8
18
28
ENDCHAR
STARTCHAR uni559A
ENCODING 21914
SWIDTH 750 0
DWIDTH 6 0
BBX 5 7 0 0
BITMAP
18
E8
D8
D8
F8
10
28
ENDCHAR
STARTCHAR uni559C
ENCODING 21916
SWIDTH 750 0
DWIDTH 6 0
BBX 5 7 0 0
BITMAP
20
F8
70
50
F8
50
70
ENDCHAR
STARTCHAR uni559D
ENCODING 21917
SWIDTH 750 0
DWIDTH 6 0
BBX 5 7 0 0
BITMAP
18
D8
C0
D8
E8
38
08
ENDCHAR
STARTCHAR uni559E
ENCODING 21918
SWIDTH 750 0
DWIDTH 6 0
BBX 5 7 0 0
BITMAP
28
F8
D8
F8
C8
68
48
ENDCHAR
STARTCHAR uni559F
ENCODING 21919
SWIDTH 750 0
DWIDTH 6 0
BBX 5 7 0 0
BITMAP
38
F8
F8
C0
F8
38
28
ENDCHAR
STARTCHAR uni55A7
ENCODING 21927
SWIDTH 750 0
DWIDTH 6 0
BBX 5 7 0 0
BITMAP
10
F8
C8
F0
C0
30
78
ENDCHAR
STARTCHAR uni55A8
ENCODING 21928
SWIDTH 750 0
DWIDTH 6 0
BBX 5 7 0 0
BITMAP
10
F8
D0
F8
E8
00
28
ENDCHAR
STARTCHAR uni55A9
ENCODING 21929
SWIDTH 750 0
DWIDTH 6 0
BBX 5 7 0 0
BITMAP
10
E8
D8
C0
E8
70
68
ENDCHAR
STARTCHAR uni55AA
ENCODING 21930
SWIDTH 750 0
DWIDTH 6 0
BBX 5 7 0 0
BITMAP
20
F8
68
20
F8
D0
68
ENDCHAR
STARTCHAR uni55AB
ENCODING 21931
SWIDTH 750 0
DWIDTH 6 0
BBX 5 7 0 0
BITMAP
58
F8
D8
E8
F0
20
58
ENDCHAR
STARTCHAR uni55AC
ENCODING 21932
SWIDTH 750 0
DWIDTH 6 0
BBX 5 7 0 0
BITMAP
70
F8
50
A8
F8
88
A8
ENDCHAR
STARTCHAR uni55AE
ENCODING 21934
SWIDTH 750 0
DWIDTH 6 0
BBX 5 7 0 0
BITMAP
D8
D8
00
70
70
F8
20
ENDCHAR
STARTCHAR uni55B0
ENCODING 21936
SWIDTH 750 0
DWIDTH 6 0
BBX 5 7 0 0
BITMAP
10
E8
B0
B0
E8
30
28
ENDCHAR
STARTCHAR uni55B6
ENCODING 21942
SWIDTH 750 0
DWIDTH 6 0
BBX 5 7 0 0
BITMAP
A8
70
D8
70
20
70
70
ENDCHAR
STARTCHAR uni55C4
ENCODING 21956
SWIDTH 750 0
DWIDTH 6 0
BBX 5 7 0 0
BITMAP
38
D0
F8
F8
E8
10
68
ENDCHAR
STARTCHAR uni55C5
ENCODING 21957
SWIDTH 750 0
DWIDTH 6 0
BBX 5 7 0 0
BITMAP
10
F8
A8
B8
F8
10
68
ENDCHAR
STARTCHAR uni55C7
ENCODING 21959
SWIDTH 750 0
DWIDTH 6 0
BBX 5 7 0 0
BITMAP
20
F8
50
A8
F8
70
70
ENDCHAR
STARTCHAR uni55D4
ENCODING 21972
SWIDTH 750 0
DWIDTH 6 0
BBX 5 7 0 0
BITMAP
20
F8
B0
B0
F8
00
28
ENDCHAR
STARTCHAR uni55DA
ENCODING 21978
SWIDTH 750 0
DWIDTH 6 0
BBX 5 7 0 0
BITMAP
10
F8
A8
B0
F8
08
28
ENDCHAR
STARTCHAR uni55DC
ENCODING 21980
SWIDTH 750 0
DWIDTH 6 0
BBX 5 7 0 0
BITMAP
10
F8
D8
F0
D8
38
38
ENDCHAR
STARTCHAR uni55DF
ENCODING 21983
SWIDTH 750 0
DWIDTH 6 0
BBX 5 7 0 0
BITMAP
28
F8
B0
B8
F8
50
B8
ENDCHAR
STARTCHAR uni55E3
ENCODING 21987
SWIDTH 750 0
DWIDTH 6 0
BBX 5 7 0 0
BITMAP
D8
C8
18
E8
B8
F8
A8
ENDCHAR
STARTCHAR uni55E4
ENCODING 21988
SWIDTH 750 0
DWIDTH 6 0
BBX 5 7 0 0
BITMAP
28
F8
D0
F8
F8
10
38
ENDCHAR
STARTCHAR uni55F7
ENCODING 22007
SWIDTH 750 0
DWIDTH 6 0
BBX 5 7 0 0
BITMAP
50
F8
D8
F8
D8
70
A8
ENDCHAR
STARTCHAR uni55F9
ENCODING 22009
SWIDTH 750 0
DWIDTH 6 0
BBX 5 7 0 0
BITMAP
28
D8
F8
D8
C8
20
38
ENDCHAR
STARTCHAR uni55FD
ENCODING 22013
SWIDTH 750 0
DWIDTH 6 0
BBX 5 7 0 0
BITMAP
30
F8
E8
F0
B0
70
28
ENDCHAR
STARTCHAR uni55FE
ENCODING 22014
SWIDTH 750 0
DWIDTH 6 0
BBX 5 7 0 0
BITMAP
50
D8
E0
D0
F8
70
A8
ENDCHAR
STARTCHAR uni5606
ENCODING 22022
SWIDTH 750 0
DWIDTH 6 0
BBX 5 7 0 0
BITMAP
28
F8
B8
B0
F8
10
28
ENDCHAR
STARTCHAR uni5609
ENCODING 22025
SWIDTH 750 0
DWIDTH 6 0
BBX 5 7 0 0
BITMAP
20
F8
70
50
F8
68
B8
ENDCHAR
STARTCHAR uni5614
ENCODING 22036
SWIDTH 750 0
DWIDTH 6 0
BBX 5 7 0 0
BITMAP
78
D8
D8
C0
E8
68
78
ENDCHAR
STARTCHAR uni5616
ENCODING 22038
SWIDTH 750 0
DWIDTH 6 0
BBX 5 7 0 0
BITMAP
10
F8
D0
F8
D8
00
28
ENDCHAR
STARTCHAR uni5617
ENCODING 22039
SWIDTH 750 0
DWIDTH 6 0
BBX 5 7 0 0
BITMAP
A8
F8
B8
40
78
50
70
ENDCHAR
STARTCHAR uni5618
ENCODING 22040
SWIDTH 750 0
DWIDTH 6 0
BBX 5 7 0 0
BITMAP
10
D8
F0
D8
C0
50
B8
ENDCHAR
STARTCHAR uni561B
ENCODING 22043
SWIDTH 750 0
DWIDTH 6 0
BBX 5 7 0 0
BITMAP
10
F8
C0
D0
F8
78
90
ENDCHAR
STARTCHAR uni5629
ENCODING 22057
SWIDTH 750 0
DWIDTH 6 0
BBX 5 7 0 0
BITMAP
28
F8
B0
B8
F0
38
10
ENDCHAR
STARTCHAR uni562F
ENCODING 22063
SWIDTH 750 0
DWIDTH 6 0
BBX 5 7 0 0
BITMAP
10
F0
D8
F0
E8
38
58
ENDCHAR
STARTCHAR uni5631
ENCODING 22065
SWIDTH 750 0
DWIDTH 6 0
BBX 5 7 0 0
BITMAP
78
F8
D0
F0
F8
78
A8
ENDCHAR
STARTCHAR uni5632
ENCODING 22066
SWIDTH 750 0
DWIDTH 6 0
BBX 5 7 0 0
BITMAP
38
D8
F8
F8
D8
38
18
ENDCHAR
STARTCHAR uni5634
ENCODING 22068
SWIDTH 750 0
DWIDTH 6 0
BBX 5 7 0 0
BITMAP
50
D8
D0
D8
F0
30
50
ENDCHAR
STARTCHAR uni5636
ENCODING 22070
SWIDTH 750 0
DWIDTH 6 0
BBX 5 7 0 0
BITMAP
28
F0
B0
B8
F8
08
58
ENDCHAR
STARTCHAR uni5638
ENCODING 22072
SWIDTH 750 0
DWIDTH 6 0
BBX 5 7 0 0
BITMAP
20
F8
D0
F8
D0
F8
28
ENDCHAR
STARTCHAR uni5642
ENCODING 22082
SWIDTH 750 0
DWIDTH 6 0
BBX 5 7 0 0
BITMAP
28
F8
E8
C8
F8
28
18
ENDCHAR
STARTCHAR uni564C
ENCODING 22092
SWIDTH 750 0
DWIDTH 6 0
BBX 5 7 0 0
BITMAP
28
F8
B8
B8
C0
38
38
ENDCHAR
STARTCHAR uni564E
ENCODING 22094
SWIDTH 750 0
DWIDTH 6 0
BBX 5 7 0 0
BITMAP
10
F8
D0
F8
E8
10
38
ENDCHAR
STARTCHAR uni5650
ENCODING 22096
SWIDTH 750 0
DWIDTH 6 0
BBX 5 7 0 0
BITMAP
D8
D8
F8
20
F8
D8
D8
ENDCHAR
STARTCHAR uni565B
ENCODING 22107
SWIDTH 750 0
DWIDTH 6 0
BBX 5 7 0 0
BITMAP
10
D8
D0
F8
E8
58
78
ENDCHAR
STARTCHAR uni5664
ENCODING 22116
SWIDTH 750 0
DWIDTH 6 0
BBX 5 7 0 0
BITMAP
08
D8
C8
F8
D0
38
10
ENDCHAR
STARTCHAR uni5668
ENCODING 22120
SWIDTH 750 0
DWIDTH 6 0
BBX 5 7 0 0
BITMAP
D8
D8
20
F8
50
D8
D8
ENDCHAR
STARTCHAR uni566A
ENCODING 22122
SWIDTH 750 0
DWIDTH 6 0
BBX 5 7 0 0
BITMAP
10
C0
E8
C0
D0
38
10
ENDCHAR
STARTCHAR uni566B
ENCODING 22123
SWIDTH 750 0
DWIDTH 6 0
BBX 5 7 0 0
BITMAP
10
F8
E8
F8
D8
20
38
ENDCHAR
STARTCHAR uni566C
ENCODING 22124
SWIDTH 750 0
DWIDTH 6 0
BBX 5 7 0 0
BITMAP
10
D8
C8
F8
D0
28
38
ENDCHAR
STARTCHAR uni5674
ENCODING 22132
SWIDTH 750 0
DWIDTH 6 0
BBX 5 7 0 0
BITMAP
10
F8
A8
B8
F0
30
48
ENDCHAR
STARTCHAR uni5678
ENCODING 22136
SWIDTH 750 0
DWIDTH 6 0
BBX 5 7 0 0
BITMAP
58
F0
D8
F8
D8
60
28
ENDCHAR
STARTCHAR uni567A
ENCODING 22138
SWIDTH 750 0
DWIDTH 6 0
BBX 5 7 0 0
BITMAP
28
F0
D0
F8
A8
68
28
ENDCHAR
STARTCHAR uni5680
ENCODING 22144
SWIDTH 750 0
DWIDTH 6 0
BBX 5 7 0 0
BITMAP
10
F8
A8
B0
F8
10
30
ENDCHAR
STARTCHAR uni5686
ENCODING 22150
SWIDTH 750 0
DWIDTH 6 0
BBX 5 7 0 0
BITMAP
28
F8
D8
C0
F8
38
28
ENDCHAR
STARTCHAR uni5687
ENCODING 22151
SWIDTH 750 0
DWIDTH 6 0
BBX 5 7 0 0
BITMAP
10
F8
D0
F8
F8
38
58
ENDCHAR
STARTCHAR uni568A
ENCODING 22154
SWIDTH 750 0
DWIDTH 6 0
BBX 5 7 0 0
BITMAP
10
E8
F8
C0
F8
38
28
ENDCHAR
STARTCHAR uni568F
ENCODING 22159
SWIDTH 750 0
DWIDTH 6 0
BBX 5 7 0 0
BITMAP
10
F8
F8
F8
D8
30
58
ENDCHAR
STARTCHAR uni5694
ENCODING 22164
SWIDTH 750 0
DWIDTH 6 0
BBX 5 7 0 0
BITMAP
10
F8
F8
F0
D8
30
58
ENDCHAR
STARTCHAR uni56A0
ENCODING 22176
SWIDTH 750 0
DWIDTH 6 0
BBX 5 7 0 0
BITMAP
28
D8
F8
D8
E8
38
68
ENDCHAR
STARTCHAR uni56A2
ENCODING 22178
SWIDTH 750 0
DWIDTH 6 0
BBX 5 7 0 0
BITMAP
20
F8
50
F8
F8
D0
68
ENDCHAR
STARTCHAR uni56A5
ENCODING 22181
SWIDTH 750 0
DWIDTH 6 0
BBX 5 7 0 0
BITMAP
28
F8
F0
D0
F8
00
58
ENDCHAR
STARTCHAR uni56AE
ENCODING 22190
SWIDTH 750 0
DWIDTH 6 0
BBX 5 7 0 0
BITMAP
58
B0
78
B0
F8
88
A8
ENDCHAR
STARTCHAR uni56B4
ENCODING 22196
SWIDTH 750 0
DWIDTH 6 0
BBX 5 7 0 0
BITMAP
D8
F8
80
D8
E8
D0
A8
ENDCHAR
STARTCHAR uni56B6
ENCODING 22198
SWIDTH 750 0
DWIDTH 6 0
BBX 5 7 0 0
BITMAP
68
E8
C0
E8
F8
30
58
ENDCHAR
STARTCHAR uni56BC
ENCODING 22204
SWIDTH 750 0
DWIDTH 6 0
BBX 5 7 0 0
BITMAP
38
D0
F8
F8
C8
68
48
ENDCHAR
STARTCHAR uni56C0
ENCODING 22208
SWIDTH 750 0
DWIDTH 6 0
BBX 5 7 0 0
BITMAP
68
B8
F8
F8
A8
78
28
ENDCHAR
STARTCHAR uni56C1
ENCODING 22209
SWIDTH 750 0
DWIDTH 6 0
BBX 5 7 0 0
BITMAP
38
F0
F8
D0
F8
78
28
ENDCHAR
STARTCHAR uni56C2
ENCODING 22210
SWIDTH 750 0
DWIDTH 6 0
BBX 5 7 0 0
BITMAP
D8
F8
70
70
88
D8
D8
ENDCHAR
STARTCHAR uni56C3
ENCODING 22211
SWIDTH 750 0
DWIDTH 6 0
BBX 5 7 0 0
BITMAP
28
F0
D8
F0
F8
70
B8
ENDCHAR
STARTCHAR uni56C8
ENCODING 22216
SWIDTH 750 0
DWIDTH 6 0
BBX 5 7 0 0
BITMAP
28
F8
D0
E8
D8
E0
38
ENDCHAR
STARTCHAR uni56CE
ENCODING 22222
SWIDTH 750 0
DWIDTH 6 0
BBX 5 7 0 0
BITMAP
70
A8
F8
B8
E0
18
B8
ENDCHAR
STARTCHAR uni56D1
ENCODING 22225
SWIDTH 750 0
DWIDTH 6 0
BBX 5 7 0 0
BITMAP
78
F8
D8
F0
F8
78
A8
ENDCHAR
STARTCHAR uni56D3
ENCODING 22227
SWIDTH 750 0
DWIDTH 6 0
BBX 5 7 0 0
BITMAP
58
F8
E8
F8
E8
58
78
ENDCHAR
STARTCHAR uni56D7
ENCODING 22231
SWIDTH 750 0
DWIDTH 6 0
BBX 5 7 0 0
BITMAP
F8
88
88
88
88
88
F8
ENDCHAR
STARTCHAR uni56D8
ENCODING 22232
SWIDTH 750 0
DWIDTH 6 0
BBX 5 7 0 0
BITMAP
F8
88
E8
E8
C8
E8
98
ENDCHAR
STARTCHAR uni56DA
ENCODING 22234
SWIDTH 750 0
DWIDTH 6 0
BBX 5 7 0 0
BITMAP
F8
88
A8
A8
D8
88
F8
ENDCHAR
STARTCHAR uni56DB
ENCODING 22235
SWIDTH 750 0
DWIDTH 6 0
BBX 5 7 0 0
BITMAP
F8
D8
D8
D8
88
88
F8
ENDCHAR
STARTCHAR uni56DE
ENCODING 22238
SWIDTH 750 0
DWIDTH 6 0
BBX 5 7 0 0
BITMAP
F8
88
F8
D8
F8
88
F8
ENDCHAR
STARTCHAR uni56E0
ENCODING 22240
SWIDTH 750 0
DWIDTH 6 0
BBX 5 7 0 0
BITMAP
F8
A8
F8
A8
D8
88
F8
ENDCHAR
STARTCHAR uni56E3
ENCODING 22243
SWIDTH 750 0
DWIDTH 6 0
BBX 5 7 0 0
BITMAP
F8
98
F8
98
D8
B8
F8
ENDCHAR
STARTCHAR uni56EE
ENCODING 22254
SWIDTH 750 0
DWIDTH 6 0
BBX 5 7 0 0
BITMAP
F8
A8
B8
E8
E8
F8
F8
ENDCHAR
STARTCHAR uni56F0
ENCODING 22256
SWIDTH 750 0
DWIDTH 6 0
BBX 5 7 0 0
BITMAP
F8
A8
F8
A8
F8
A8
F8
ENDCHAR
STARTCHAR uni56F2
ENCODING 22258
SWIDTH 750 0
DWIDTH 6 0
BBX 5 7 0 0
BITMAP
F8
D8
F8
D8
F8
D8
F8
ENDCHAR
STARTCHAR uni56F3
ENCODING 22259
SWIDTH 750 0
DWIDTH 6 0
BBX 5 7 0 0
BITMAP
F8
D8
88
D8
A8
D8
F8
ENDCHAR
STARTCHAR uni56F9
ENCODING 22265
SWIDTH 750 0
DWIDTH 6 0
BBX 5 7 0 0
BITMAP
F8
A8
D8
F8
B8
A8
F8
ENDCHAR
STARTCHAR uni56FA
ENCODING 22266
SWIDTH 750 0
DWIDTH 6 0
BBX 5 7 0 0
BITMAP
F8
A8
F8
A8
D8
F8
F8
ENDCHAR
STARTCHAR uni56FD
ENCODING 22269
SWIDTH 750 0
DWIDTH 6 0
BBX 5 7 0 0
BITMAP
F8
F8
A8
F8
A8
F8
F8
ENDCHAR
STARTCHAR uni56FF
ENCODING 22271
SWIDTH 750 0
DWIDTH 6 0
BBX 5 7 0 0
BITMAP
F8
A8
F8
E8
B8
B8
F8
ENDCHAR
STARTCHAR uni5700
ENCODING 22272
SWIDTH 750 0
DWIDTH 6 0
BBX 5 7 0 0
BITMAP
F8
D8
88
F8
B8
D8
F8
ENDCHAR
STARTCHAR uni5703
ENCODING 22275
SWIDTH 750 0
DWIDTH 6 0
BBX 5 7 0 0
BITMAP
F8
A8
F8
A8
B8
B8
F8
ENDCHAR
STARTCHAR uni5704
ENCODING 22276
SWIDTH 750 0
DWIDTH 6 0
BBX 5 7 0 0
BITMAP
F8
B8
98
F8
88
B8
F8
ENDCHAR
STARTCHAR uni5708
ENCODING 22280
SWIDTH 750 0
DWIDTH 6 0
BBX 5 7 0 0
BITMAP
F8
D8
A8
D8
A8
B8
F8
ENDCHAR
STARTCHAR uni5709
ENCODING 22281
SWIDTH 750 0
DWIDTH 6 0
BBX 5 7 0 0
BITMAP
F8
A8
F8
D8
F8
A8
F8
ENDCHAR
STARTCHAR uni570B
ENCODING 22283
SWIDTH 750 0
DWIDTH 6 0
BBX 5 7 0 0
BITMAP
F8
A8
F8
E8
98
C8
F8
ENDCHAR
STARTCHAR uni570D
ENCODING 22285
SWIDTH 750 0
DWIDTH 6 0
BBX 5 7 0 0
BITMAP
F8
B8
F8
D8
F8
A8
F8
ENDCHAR
STARTCHAR uni570F
ENCODING 22287
SWIDTH 750 0
DWIDTH 6 0
BBX 5 7 0 0
BITMAP
F8
D8
A8
D8
A8
B8
F8
ENDCHAR
STARTCHAR uni5712
ENCODING 22290
SWIDTH 750 0
DWIDTH 6 0
BBX 5 7 0 0
BITMAP
F8
A8
D8
A8
F8
A8
F8
ENDCHAR
STARTCHAR uni5713
ENCODING 22291
SWIDTH 750 0
DWIDTH 6 0
BBX 5 7 0 0
BITMAP
F8
B8
88
B8
B8
D8
F8
ENDCHAR
STARTCHAR uni5716
ENCODING 22294
SWIDTH 750 0
DWIDTH 6 0
BBX 5 7 0 0
BITMAP
F8
B8
88
F8
88
B8
F8
ENDCHAR
STARTCHAR uni5718
ENCODING 22296
SWIDTH 750 0
DWIDTH 6 0
BBX 5 7 0 0
BITMAP
F8
A8
F8
B8
F8
98
F8
ENDCHAR
STARTCHAR uni571C
ENCODING 22300
SWIDTH 750 0
DWIDTH 6 0
BBX 5 7 0 0
BITMAP
F8
F8
88
F8
E8
D8
F8
ENDCHAR
STARTCHAR uni571F
ENCODING 22303
SWIDTH 750 0
DWIDTH 6 0
BBX 5 7 0 0
BITMAP
20
20
70
20
20
20
F8
ENDCHAR
STARTCHAR uni5726
ENCODING 22310
SWIDTH 750 0
DWIDTH 6 0
BBX 5 7 0 0
BITMAP
70
50
D0
50
50
E8
28
ENDCHAR
STARTCHAR uni5727
ENCODING 22311
SWIDTH 750 0
DWIDTH 6 0
BBX 5 7 0 0
BITMAP
F8
90
90
B8
90
90
B8
ENDCHAR
STARTCHAR uni5728
ENCODING 22312
SWIDTH 750 0
DWIDTH 6 0
BBX 5 7 0 0
BITMAP
20
F8
40
D0
78
50
78
ENDCHAR
STARTCHAR uni572D
ENCODING 22317
SWIDTH 750 0
DWIDTH 6 0
BBX 5 7 0 0
BITMAP
20
70
20
F8
70
20
F8
ENDCHAR
STARTCHAR uni5730
ENCODING 22320
SWIDTH 750 0
DWIDTH 6 0
BBX 5 7 0 0
BITMAP
60
68
F8
68
68
E0
38
ENDCHAR
STARTCHAR uni5737
ENCODING 22327
SWIDTH 750 0
DWIDTH 6 0
BBX 5 7 0 0
BITMAP
78
50
D0
58
50
D0
10
ENDCHAR
STARTCHAR uni5738
ENCODING 22328
SWIDTH 750 0
DWIDTH 6 0
BBX 5 7 0 0
BITMAP
50
50
D8
58
58
D8
78
ENDCHAR
STARTCHAR uni573B
ENCODING 22331
SWIDTH 750 0
DWIDTH 6 0
BBX 5 7 0 0
BITMAP
48
70
E0
78
68
E8
08
ENDCHAR
STARTCHAR uni5740
ENCODING 22336
SWIDTH 750 0
DWIDTH 6 0
BBX 5 7 0 0
BITMAP
50
50
D0
58
50
D0
78
ENDCHAR
STARTCHAR uni5742
ENCODING 22338
SWIDTH 750 0
DWIDTH 6 0
BBX 5 7 0 0
BITMAP
78
60
F8
68
68
D0
28
ENDCHAR
STARTCHAR uni5747
ENCODING 22343
SWIDTH 750 0
DWIDTH 6 0
BBX 5 7 0 0
BITMAP
60
78
C8
68
58
E8
18
ENDCHAR
STARTCHAR uni574A
ENCODING 22346
SWIDTH 750 0
DWIDTH 6 0
BBX 5 7 0 0
BITMAP
50
78
D0
58
58
E8
28
ENDCHAR
STARTCHAR uni574E
ENCODING 22350
SWIDTH 750 0
DWIDTH 6 0
BBX 5 7 0 0
BITMAP
50
58
E8
50
50
D0
28
ENDCHAR
STARTCHAR uni574F
ENCODING 22351
SWIDTH 750 0
DWIDTH 6 0
BBX 5 7 0 0
BITMAP
78
50
D0
68
50
D0
10
ENDCHAR
STARTCHAR uni5750
ENCODING 22352
SWIDTH 750 0
DWIDTH 6 0
BBX 5 7 0 0
BITMAP
50
50
A8
20
70
20
F8
ENDCHAR
STARTCHAR uni5751
ENCODING 22353
SWIDTH 750 0
DWIDTH 6 0
BBX 5 7 0 0
BITMAP
50
78
C0
78
68
E8
28
ENDCHAR
STARTCHAR uni5761
ENCODING 22369
SWIDTH 750 0
DWIDTH 6 0
BBX 5 7 0 0
BITMAP
50
78
F0
78
68
D0
28
ENDCHAR
STARTCHAR uni5764
ENCODING 22372
SWIDTH 750 0
DWIDTH 6 0
BBX 5 7 0 0
BITMAP
50
78
F8
78
78
F8
10
ENDCHAR
STARTCHAR uni5766
ENCODING 22374
SWIDTH 750 0
DWIDTH 6 0
BBX 5 7 0 0
BITMAP
78
68
F8
68
78
C0
38
ENDCHAR
STARTCHAR uni5769
ENCODING 22377
SWIDTH 750 0
DWIDTH 6 0
BBX 5 7 0 0
BITMAP
68
78
E8
78
68
E8
38
ENDCHAR
STARTCHAR uni576A
ENCODING 22378
SWIDTH 750 0
DWIDTH 6 0
BBX 5 7 0 0
BITMAP
78
50
F8
50
78
D0
10
ENDCHAR
STARTCHAR uni577F
ENCODING 22399
SWIDTH 750 0
DWIDTH 6 0
BBX 5 7 0 0
BITMAP
68
58
C8
58
48
C8
58
ENDCHAR
STARTCHAR uni5782
ENCODING 22402
SWIDTH 750 0
DWIDTH 6 0
BBX 5 7 0 0
BITMAP
70
20
F8
50
F8
20
F8
ENDCHAR
STARTCHAR uni5788
ENCODING 22408
SWIDTH 750 0
DWIDTH 6 0
BBX 5 7 0 0
BITMAP
50
78
D0
48
70
20
F8
ENDCHAR
STARTCHAR uni5789
ENCODING 22409
SWIDTH 750 0
DWIDTH 6 0
BBX 5 7 0 0
BITMAP
50
58
E8
58
58
D0
18
ENDCHAR
STARTCHAR uni578B
ENCODING 22411
SWIDTH 750 0
DWIDTH 6 0
BBX 5 7 0 0
BITMAP
E8
58
F8
58
88
20
F8
ENDCHAR
STARTCHAR uni5793
ENCODING 22419
SWIDTH 750 0
DWIDTH 6 0
BBX 5 7 0 0
BITMAP
50
78
E0
50
68
D0
28
ENDCHAR
STARTCHAR uni57A0
ENCODING 22432
SWIDTH 750 0
DWIDTH 6 0
BBX 5 7 0 0
BITMAP
78
68
F8
60
68
F0
28
ENDCHAR
STARTCHAR uni57A2
ENCODING 22434
SWIDTH 750 0
DWIDTH 6 0
BBX 5 7 0 0
BITMAP
48
70
C0
58
40
D8
18
ENDCHAR
STARTCHAR uni57A3
ENCODING 22435
SWIDTH 750 0
DWIDTH 6 0
BBX 5 7 0 0
BITMAP
78
40
D8
58
58
C0
38
ENDCHAR
STARTCHAR uni57A4
ENCODING 22436
SWIDTH 750 0
DWIDTH 6 0
BBX 5 7 0 0
BITMAP
78
50
E8
50
78
D0
38
ENDCHAR
STARTCHAR uni57AA
ENCODING 22442
SWIDTH 750 0
DWIDTH 6 0
BBX 5 7 0 0
BITMAP
68
40
F8
68
78
E8
48
ENDCHAR
STARTCHAR uni57B0
ENCODING 22448
SWIDTH 750 0
DWIDTH 6 0
BBX 5 7 0 0
BITMAP
50
58
D0
78
50
D8
10
ENDCHAR
STARTCHAR uni57B3
ENCODING 22451
SWIDTH 750 0
DWIDTH 6 0
BBX 5 7 0 0
BITMAP
68
40
D8
68
68
E8
28
ENDCHAR
STARTCHAR uni57C0
ENCODING 22464
SWIDTH 750 0
DWIDTH 6 0
BBX 5 7 0 0
BITMAP
10
60
F8
50
D8
20
F8
ENDCHAR
STARTCHAR uni57C3
ENCODING 22467
SWIDTH 750 0
DWIDTH 6 0
BBX 5 7 0 0
BITMAP
50
60
F8
50
78
D0
28
ENDCHAR
STARTCHAR uni57C6
ENCODING 22470
SWIDTH 750 0
DWIDTH 6 0
BBX 5 7 0 0
BITMAP
58
68
D8
58
58
D8
28
ENDCHAR
STARTCHAR uni57CB
ENCODING 22475
SWIDTH 750 0
DWIDTH 6 0
BBX 5 7 0 0
BITMAP
78
78
F8
50
78
D0
38
ENDCHAR
STARTCHAR uni57CE
ENCODING 22478
SWIDTH 750 0
DWIDTH 6 0
BBX 5 7 0 0
BITMAP
50
78
F0
70
78
F0
28
ENDCHAR
STARTCHAR uni57D2
ENCODING 22482
SWIDTH 750 0
DWIDTH 6 0
BBX 5 7 0 0
BITMAP
58
68
C0
78
48
E8
18
ENDCHAR
STARTCHAR uni57D3
ENCODING 22483
SWIDTH 750 0
DWIDTH 6 0
BBX 5 7 0 0
BITMAP
58
68
D0
78
48
E8
18
ENDCHAR
STARTCHAR uni57D4
ENCODING 22484
SWIDTH 750 0
DWIDTH 6 0
BBX 5 7 0 0
BITMAP
50
78
D0
78
78
F8
28
ENDCHAR
STARTCHAR uni57D6
ENCODING 22486
SWIDTH 750 0
DWIDTH 6 0
BBX 5 7 0 0
BITMAP
68
78
C0
70
78
F0
38
ENDCHAR
STARTCHAR uni57DC
ENCODING 22492
SWIDTH 750 0
DWIDTH 6 0
BBX 5 7 0 0
BITMAP
48
D8
48
A8
70
20
F8
ENDCHAR
STARTCHAR uni57DF
ENCODING 22495
SWIDTH 750 0
DWIDTH 6 0
BBX 5 7 0 0
BITMAP
50
78
D0
70
78
D0
28
ENDCHAR
STARTCHAR uni57E0
ENCODING 22496
SWIDTH 750 0
DWIDTH 6 0
BBX 5 7 0 0
BITMAP
50
70
F0
78
68
F8
10
ENDCHAR
STARTCHAR uni57E3
ENCODING 22499
SWIDTH 750 0
DWIDTH 6 0
BBX 5 7 0 0
BITMAP
50
78
D0
50
68
F8
10
ENDCHAR
STARTCHAR uni57F4
ENCODING 22516
SWIDTH 750 0
DWIDTH 6 0
BBX 5 7 0 0
BITMAP
50
78
D0
78
78
E0
38
ENDCHAR
STARTCHAR uni57F7
ENCODING 22519
SWIDTH 750 0
DWIDTH 6 0
BBX 5 7 0 0
BITMAP
50
F8
68
A8
78
E8
48
ENDCHAR
STARTCHAR uni57F9
ENCODING 22521
SWIDTH 750 0
DWIDTH 6 0
BBX 5 7 0 0
BITMAP
50
78
E8
78
40
D8
18
ENDCHAR
STARTCHAR uni57FA
ENCODING 22522
SWIDTH 750 0
DWIDTH 6 0
BBX 5 7 0 0
BITMAP
50
F8
50
F8
50
A8
70
ENDCHAR
STARTCHAR uni57FC
ENCODING 22524
SWIDTH 750 0
DWIDTH 6 0
BBX 5 7 0 0
BITMAP
50
78
D0
68
78
C8
28
ENDCHAR
STARTCHAR uni5800
ENCODING 22528
SWIDTH 750 0
DWIDTH 6 0
BBX 5 7 0 0
BITMAP
78
48
F8
78
50
F8
38
ENDCHAR
STARTCHAR uni5802
ENCODING 22530
SWIDTH 750 0
DWIDTH 6 0
BBX 5 7 0 0
BITMAP
A8
70
D8
20
70
20
F8
ENDCHAR
STARTCHAR uni5805
ENCODING 22533
SWIDTH 750 0
DWIDTH 6 0
BBX 5 7 0 0
BITMAP
F8
E8
D0
28
70
20
F8
ENDCHAR
STARTCHAR uni5806
ENCODING 22534
SWIDTH 750 0
DWIDTH 6 0
BBX 5 7 0 0
BITMAP
68
78
F0
78
70
F0
38
ENDCHAR
STARTCHAR uni580A
ENCODING 22538
SWIDTH 750 0
DWIDTH 6 0
BBX 5 7 0 0
BITMAP
F8
50
88
50
F8
20
F8
ENDCHAR
STARTCHAR uni580B
ENCODING 22539
SWIDTH 750 0
DWIDTH 6 0
BBX 5 7 0 0
BITMAP
78
68
F8
68
78
E8
58
ENDCHAR
STARTCHAR uni5815
ENCODING 22549
SWIDTH 750 0
DWIDTH 6 0
BBX 5 7 0 0
BITMAP
D0
F8
A0
D8
98
20
F8
ENDCHAR
STARTCHAR uni5819
ENCODING 22553
SWIDTH 750 0
DWIDTH 6 0
BBX 5 7 0 0
BITMAP
78
50
F8
78
78
D0
38
ENDCHAR
STARTCHAR uni581D
ENCODING 22557
SWIDTH 750 0
DWIDTH 6 0
BBX 5 7 0 0
BITMAP
78
68
E8
78
48
D8
58
ENDCHAR
STARTCHAR uni5821
ENCODING 22561
SWIDTH 750 0
DWIDTH 6 0
BBX 5 7 0 0
BITMAP
78
68
D0
78
50
20
F8
ENDCHAR
STARTCHAR uni5824
ENCODING 22564
SWIDTH 750 0
DWIDTH 6 0
BBX 5 7 0 0
BITMAP
58
58
F8
50
58
F0
18
ENDCHAR
STARTCHAR uni582A
ENCODING 22570
SWIDTH 750 0
DWIDTH 6 0
BBX 5 7 0 0
BITMAP
50
78
D0
50
78
F0
38
ENDCHAR
STARTCHAR uni582F
ENCODING 22575
SWIDTH 750 0
DWIDTH 6 0
BBX 5 7 0 0
BITMAP
20
70
F8
70
F8
50
98
ENDCHAR
STARTCHAR uni5830
ENCODING 22576
SWIDTH 750 0
DWIDTH 6 0
BBX 5 7 0 0
BITMAP
78
58
D8
68
50
E8
78
ENDCHAR
STARTCHAR uni5831
ENCODING 22577
SWIDTH 750 0
DWIDTH 6 0
BBX 5 7 0 0
BITMAP
78
E8
60
B8
68
D0
68
ENDCHAR
STARTCHAR uni5834
ENCODING 22580
SWIDTH 750 0
DWIDTH 6 0
BBX 5 7 0 0
BITMAP
58
58
F8
50
68
D8
28
ENDCHAR
STARTCHAR uni5835
ENCODING 22581
SWIDTH 750 0
DWIDTH 6 0
BBX 5 7 0 0
BITMAP
50
78
D0
78
60
D8
18
ENDCHAR
STARTCHAR uni583A
ENCODING 22586
SWIDTH 750 0
DWIDTH 6 0
BBX 5 7 0 0
BITMAP
78
78
F8
50
68
E8
28
ENDCHAR
STARTCHAR uni583D
ENCODING 22589
SWIDTH 750 0
DWIDTH 6 0
BBX 5 7 0 0
BITMAP
78
78
F8
50
58
D0
78
ENDCHAR
STARTCHAR uni5840
ENCODING 22592
SWIDTH 750 0
DWIDTH 6 0
BBX 5 7 0 0
BITMAP
78
68
F8
60
58
F8
28
ENDCHAR
STARTCHAR uni5841
ENCODING 22593
SWIDTH 750 0
DWIDTH 6 0
BBX 5 7 0 0
BITMAP
70
70
88
50
88
20
F8
ENDCHAR
STARTCHAR uni584A
ENCODING 22602
SWIDTH 750 0
DWIDTH 6 0
BBX 5 7 0 0
BITMAP
50
78
F8
78
50
D0
28
ENDCHAR
STARTCHAR uni584B
ENCODING 22603
SWIDTH 750 0
DWIDTH 6 0
BBX 5 7 0 0
BITMAP
A8
50
F8
A8
70
20
F8
ENDCHAR
STARTCHAR uni5851
ENCODING 22609
SWIDTH 750 0
DWIDTH 6 0
BBX 5 7 0 0
BITMAP
B8
E8
F8
68
98
20
F8
ENDCHAR
STARTCHAR uni5852
ENCODING 22610
SWIDTH 750 0
DWIDTH 6 0
BBX 5 7 0 0
BITMAP
50
78
D0
78
48
E8
18
ENDCHAR
STARTCHAR uni5854
ENCODING 22612
SWIDTH 750 0
DWIDTH 6 0
BBX 5 7 0 0
BITMAP
68
78
D0
68
40
D8
18
ENDCHAR
STARTCHAR uni5857
ENCODING 22615
SWIDTH 750 0
DWIDTH 6 0
BBX 5 7 0 0
BITMAP
90
28
90
38
90
20
F8
ENDCHAR
STARTCHAR uni5858
ENCODING 22616
SWIDTH 750 0
DWIDTH 6 0
BBX 5 7 0 0
BITMAP
50
78
D8
48
70
D8
18
ENDCHAR
STARTCHAR uni5859
ENCODING 22617
SWIDTH 750 0
DWIDTH 6 0
BBX 5 7 0 0
BITMAP
50
78
D8
40
78
F8
28
ENDCHAR
STARTCHAR uni585A
ENCODING 22618
SWIDTH 750 0
DWIDTH 6 0
BBX 5 7 0 0
BITMAP
78
68
F0
58
70
D8
30
ENDCHAR
STARTCHAR uni585E
ENCODING 22622
SWIDTH 750 0
DWIDTH 6 0
BBX 5 7 0 0
BITMAP
20
F8
D8
70
70
A8
70
ENDCHAR
STARTCHAR uni5862
ENCODING 22626
SWIDTH 750 0
DWIDTH 6 0
BBX 5 7 0 0
BITMAP
50
78
E8
70
78
C8
28
ENDCHAR
STARTCHAR uni5869
ENCODING 22633
SWIDTH 750 0
DWIDTH 6 0
BBX 5 7 0 0
BITMAP
50
58
F8
58
40
D8
38
ENDCHAR
STARTCHAR uni586B
ENCODING 22635
SWIDTH 750 0
DWIDTH 6 0
BBX 5 7 0 0
BITMAP
50
78
D0
78
78
C0
28
ENDCHAR
STARTCHAR uni5870
ENCODING 22640
SWIDTH 750 0
DWIDTH 6 0
BBX 5 7 0 0
BITMAP
C0
78
B0
78
B0
20
F8
ENDCHAR
STARTCHAR uni5872
ENCODING 22642
SWIDTH 750 0
DWIDTH 6 0
BBX 5 7 0 0
BITMAP
60
78
D8
50
68
D8
28
ENDCHAR
STARTCHAR uni5875
ENCODING 22645
SWIDTH 750 0
DWIDTH 6 0
BBX 5 7 0 0
BITMAP
20
F8
B0
90
D8
20
F8
ENDCHAR
STARTCHAR uni5879
ENCODING 22649
SWIDTH 750 0
DWIDTH 6 0
BBX 5 7 0 0
BITMAP
48
F0
78
E8
48
20
F8
ENDCHAR
STARTCHAR uni587E
ENCODING 22654
SWIDTH 750 0
DWIDTH 6 0
BBX 5 7 0 0
BITMAP
50
F0
B0
F0
58
20
F8
ENDCHAR
STARTCHAR uni5883
ENCODING 22659
SWIDTH 750 0
DWIDTH 6 0
BBX 5 7 0 0
BITMAP
50
78
E8
78
78
D0
28
ENDCHAR
STARTCHAR uni5885
ENCODING 22661
SWIDTH 750 0
DWIDTH 6 0
BBX 5 7 0 0
BITMAP
D8
C8
F8
58
D0
20
F8
ENDCHAR
STARTCHAR uni5893
ENCODING 22675
SWIDTH 750 0
DWIDTH 6 0
BBX 5 7 0 0
BITMAP
50
F8
70
F8
50
A8
70
ENDCHAR
STARTCHAR uni5897
ENCODING 22679
SWIDTH 750 0
DWIDTH 6 0
BBX 5 7 0 0
BITMAP
68
50
F8
78
40
D8
18
ENDCHAR
STARTCHAR uni589C
ENCODING 22684
SWIDTH 750 0
DWIDTH 6 0
BBX 5 7 0 0
BITMAP
E8
F8
B0
D8
B0
20
F8
ENDCHAR
STARTCHAR uni589F
ENCODING 22687
SWIDTH 750 0
DWIDTH 6 0
BBX 5 7 0 0
BITMAP
50
58
F0
58
40
D0
38
ENDCHAR
STARTCHAR uni58A8
ENCODING 22696
SWIDTH 750 0
DWIDTH 6 0
BBX 5 7 0 0
BITMAP
F8
A8
F8
00
A8
00
F8
ENDCHAR
STARTCHAR uni58AB
ENCODING 22699
SWIDTH 750 0
DWIDTH 6 0
BBX 5 7 0 0
BITMAP
50
68
F8
78
48
E8
18
ENDCHAR
STARTCHAR uni58AE
ENCODING 22702
SWIDTH 750 0
DWIDTH 6 0
BBX 5 7 0 0
BITMAP
D0
F8
A0
D8
98
20
F8
ENDCHAR
STARTCHAR uni58B3
ENCODING 22707
SWIDTH 750 0
DWIDTH 6 0
BBX 5 7 0 0
BITMAP
50
78
E8
78
70
C0
28
ENDCHAR
STARTCHAR uni58B8
ENCODING 22712
SWIDTH 750 0
DWIDTH 6 0
BBX 5 7 0 0
BITMAP
68
78
D8
48
78
D8
18
ENDCHAR
STARTCHAR uni58B9
ENCODING 22713
SWIDTH 750 0
DWIDTH 6 0
BBX 5 7 0 0
BITMAP
68
68
C8
58
58
D8
48
ENDCHAR
STARTCHAR uni58BA
ENCODING 22714
SWIDTH 750 0
DWIDTH 6 0
BBX 5 7 0 0
BITMAP
50
78
F8
78
78
D0
28
ENDCHAR
STARTCHAR uni58BB
ENCODING 22715
SWIDTH 750 0
DWIDTH 6 0
BBX 5 7 0 0
BITMAP
50
78
D0
68
78
E8
38
ENDCHAR
STARTCHAR uni58BE
ENCODING 22718
SWIDTH 750 0
DWIDTH 6 0
BBX 5 7 0 0
BITMAP
38
D8
50
B8
50
20
F8
ENDCHAR
STARTCHAR uni58C1
ENCODING 22721
SWIDTH 750 0
DWIDTH 6 0
BBX 5 7 0 0
BITMAP
D0
F8
A8
F8
D0
20
F8
ENDCHAR
STARTCHAR uni58C5
ENCODING 22725
SWIDTH 750 0
DWIDTH 6 0
BBX 5 7 0 0
BITMAP
20
F8
B8
70
B8
20
F8
ENDCHAR
STARTCHAR uni58C7
ENCODING 22727
SWIDTH 750 0
DWIDTH 6 0
BBX 5 7 0 0
BITMAP
50
78
E8
78
40
F0
38
ENDCHAR
STARTCHAR uni58CA
ENCODING 22730
SWIDTH 750 0
DWIDTH 6 0
BBX 5 7 0 0
BITMAP
50
78
F8
50
78
F0
28
ENDCHAR
STARTCHAR uni58CC
ENCODING 22732
SWIDTH 750 0
DWIDTH 6 0
BBX 5 7 0 0
BITMAP
50
78
C0
68
78
F0
28
ENDCHAR
STARTCHAR uni58D1
ENCODING 22737
SWIDTH 750 0
DWIDTH 6 0
BBX 5 7 0 0
BITMAP
78
E8
A8
50
E8
20
F8
ENDCHAR
STARTCHAR uni58D3
ENCODING 22739
SWIDTH 750 0
DWIDTH 6 0
BBX 5 7 0 0
BITMAP
F8
D0
B8
D0
E8
20
F8
ENDCHAR
STARTCHAR uni58D5
ENCODING 22741
SWIDTH 750 0
DWIDTH 6 0
BBX 5 7 0 0
BITMAP
50
78
E8
78
70
D8
30
ENDCHAR
STARTCHAR uni58D7
ENCODING 22743
SWIDTH 750 0
DWIDTH 6 0
BBX 5 7 0 0
BITMAP
50
70
D8
70
68
F0
38
ENDCHAR
STARTCHAR uni58D8
ENCODING 22744
SWIDTH 750 0
DWIDTH 6 0
BBX 5 7 0 0
BITMAP
70
70
00
D8
D8
20
F8
ENDCHAR
STARTCHAR uni58D9
ENCODING 22745
SWIDTH 750 0
DWIDTH 6 0
BBX 5 7 0 0
BITMAP
50
78
F0
78
70
C0
28
ENDCHAR
STARTCHAR uni58DC
ENCODING 22748
SWIDTH 750 0
DWIDTH 6 0
BBX 5 7 0 0
BITMAP
58
58
E8
40
78
E0
38
ENDCHAR
STARTCHAR uni58DE
ENCODING 22750
SWIDTH 750 0
DWIDTH 6 0
BBX 5 7 0 0
BITMAP
50
78
F8
40
50
F0
28
ENDCHAR
STARTCHAR uni58DF
ENCODING 22751
SWIDTH 750 0
DWIDTH 6 0
BBX 5 7 0 0
BITMAP
58
F0
68
F0
78
20
F8
ENDCHAR
STARTCHAR uni58E4
ENCODING 22756
SWIDTH 750 0
DWIDTH 6 0
BBX 5 7 0 0
BITMAP
50
78
E8
40
78
F0
28
ENDCHAR
STARTCHAR uni58E5
ENCODING 22757
SWIDTH 750 0
DWIDTH 6 0
BBX 5 7 0 0
BITMAP
78
70
F8
40
68
D0
38
ENDCHAR
STARTCHAR uni58EB
ENCODING 22763
SWIDTH 750 0
DWIDTH 6 0
BBX 5 7 0 0
BITMAP
20
20
F8
20
20
20
70
ENDCHAR
STARTCHAR uni58EC
ENCODING 22764
SWIDTH 750 0
DWIDTH 6 0
BBX 5 7 0 0
BITMAP
10
60
20
F8
20
20
70
ENDCHAR
STARTCHAR uni58EE
ENCODING 22766
SWIDTH 750 0
DWIDTH 6 0
BBX 5 7 0 0
BITMAP
50
50
F8
50
D0
50
78
ENDCHAR
STARTCHAR uni58EF
ENCODING 22767
SWIDTH 750 0
DWIDTH 6 0
BBX 5 7 0 0
BITMAP
D0
D0
F8
50
D0
D0
78
ENDCHAR
STARTCHAR uni58F0
ENCODING 22768
SWIDTH 750 0
DWIDTH 6 0
BBX 5 7 0 0
BITMAP
20
F8
20
78
68
78
80
ENDCHAR
STARTCHAR uni58F1
ENCODING 22769
SWIDTH 750 0
DWIDTH 6 0
BBX 5 7 0 0
BITMAP
20
F8
20
F8
B8
20
38
ENDCHAR
STARTCHAR uni58F2
ENCODING 22770
SWIDTH 750 0
DWIDTH 6 0
BBX 5 7 0 0
BITMAP
20
F8
20
F8
88
50
98
ENDCHAR
STARTCHAR uni58F7
ENCODING 22775
SWIDTH 750 0
DWIDTH 6 0
BBX 5 7 0 0
BITMAP
20
F8
20
F8
D8
70
F8
ENDCHAR
STARTCHAR uni58F9
ENCODING 22777
SWIDTH 750 0
DWIDTH 6 0
BBX 5 7 0 0
BITMAP
20
F8
20
F8
A8
50
F8
ENDCHAR
STARTCHAR uni58FA
ENCODING 22778
SWIDTH 750 0
DWIDTH 6 0
BBX 5 7 0 0
BITMAP
20
F8
20
F8
D8
50
F8
ENDCHAR
STARTCHAR uni58FB
ENCODING 22779
SWIDTH 750 0
DWIDTH 6 0
BBX 5 7 0 0
BITMAP
78
58
D0
68
78
F8
28
ENDCHAR
STARTCHAR uni58FC
ENCODING 22780
SWIDTH 750 0
DWIDTH 6 0
BBX 5 7 0 0
BITMAP
20
F8
70
F8
D8
50
F8
ENDCHAR
STARTCHAR uni58FD
ENCODING 22781
SWIDTH 750 0
DWIDTH 6 0
BBX 5 7 0 0
BITMAP
20
70
F8
20
F8
D0
30
ENDCHAR
STARTCHAR uni5902
ENCODING 22786
SWIDTH 750 0
DWIDTH 6 0
BBX 5 7 0 0
BITMAP
40
70
50
D0
20
50
88
ENDCHAR
STARTCHAR uni5909
ENCODING 22793
SWIDTH 750 0
DWIDTH 6 0
BBX 5 7 0 0
BITMAP
20
F8
50
D8
30
50
A8
ENDCHAR
STARTCHAR uni590A
ENCODING 22794
SWIDTH 750 0
DWIDTH 6 0
BBX 5 7 0 0
BITMAP
20
B0
50
D0
20
50
88
ENDCHAR
STARTCHAR uni590F
ENCODING 22799
SWIDTH 750 0
DWIDTH 6 0
BBX 5 7 0 0
BITMAP
F8
20
70
70
D0
20
D8
ENDCHAR
STARTCHAR uni5910
ENCODING 22800
SWIDTH 750 0
DWIDTH 6 0
BBX 5 7 0 0
BITMAP
30
D0
70
70
50
20
D8
ENDCHAR
STARTCHAR uni5915
ENCODING 22805
SWIDTH 750 0
DWIDTH 6 0
BBX 5 7 0 0
BITMAP
40
78
48
A8
10
20
C0
ENDCHAR
STARTCHAR uni5916
ENCODING 22806
SWIDTH 750 0
DWIDTH 6 0
BBX 5 7 0 0
BITMAP
50
70
B0
78
30
50
90
ENDCHAR
STARTCHAR uni5918
ENCODING 22808
SWIDTH 750 0
DWIDTH 6 0
BBX 5 7 0 0
BITMAP
58
78
B8
78
38
50
90
ENDCHAR
STARTCHAR uni5919
ENCODING 22809
SWIDTH 750 0
DWIDTH 6 0
BBX 5 7 0 0
BITMAP
F8
88
F8
B8
D8
A8
C8
ENDCHAR
STARTCHAR uni591A
ENCODING 22810
SWIDTH 750 0
DWIDTH 6 0
BBX 5 7 0 0
BITMAP
30
50
20
D8
28
10
60
ENDCHAR
STARTCHAR uni591B
ENCODING 22811
SWIDTH 750 0
DWIDTH 6 0
BBX 5 7 0 0
BITMAP
70
10
F8
30
50
20
C0
ENDCHAR
STARTCHAR uni591C
ENCODING 22812
SWIDTH 750 0
DWIDTH 6 0
BBX 5 7 0 0
BITMAP
20
F8
50
58
E8
50
68
ENDCHAR
STARTCHAR uni5922
ENCODING 22818
SWIDTH 750 0
DWIDTH 6 0
BBX 5 7 0 0
BITMAP
50
F8
70
F8
B8
10
60
ENDCHAR
STARTCHAR uni5925
ENCODING 22821
SWIDTH 750 0
DWIDTH 6 0
BBX 5 7 0 0
BITMAP
D8
E8
50
D8
68
D0
60
ENDCHAR
STARTCHAR uni5927
ENCODING 22823
SWIDTH 750 0
DWIDTH 6 0
BBX 5 7 0 0
BITMAP
20
20
F8
20
20
50
88
ENDCHAR
STARTCHAR uni5929
ENCODING 22825
SWIDTH 750 0
DWIDTH 6 0
BBX 5 7 0 0
BITMAP
F8
20
70
20
20
50
88
ENDCHAR
STARTCHAR uni592A
ENCODING 22826
SWIDTH 750 0
DWIDTH 6 0
BBX 5 7 0 0
BITMAP
20
F8
20
50
50
88
A8
ENDCHAR
STARTCHAR uni592B
ENCODING 22827
SWIDTH 750 0
DWIDTH 6 0
BBX 5 7 0 0
BITMAP
20
70
20
F8
20
50
88
ENDCHAR
STARTCHAR uni592C
ENCODING 22828
SWIDTH 750 0
DWIDTH 6 0
BBX 5 7 0 0
BITMAP
20
70
30
F8
20
50
88
ENDCHAR
STARTCHAR uni592D
ENCODING 22829
SWIDTH 750 0
DWIDTH 6 0
BBX 5 7 0 0
BITMAP
10
60
20
F8
20
50
88
ENDCHAR
STARTCHAR uni592E
ENCODING 22830
SWIDTH 750 0
DWIDTH 6 0
BBX 5 7 0 0
BITMAP
20
70
50
F8
20
20
D8
ENDCHAR
STARTCHAR uni5931
ENCODING 22833
SWIDTH 750 0
DWIDTH 6 0
BBX 5 7 0 0
BITMAP
60
70
A0
F8
20
50
88
ENDCHAR
STARTCHAR uni5932
ENCODING 22834
SWIDTH 750 0
DWIDTH 6 0
BBX 5 7 0 0
BITMAP
20
F8
50
88
20
F8
20
ENDCHAR
STARTCHAR uni5937
ENCODING 22839
SWIDTH 750 0
DWIDTH 6 0
BBX 5 7 0 0
BITMAP
20
F8
70
60
70
30
D8
ENDCHAR
STARTCHAR uni5938
ENCODING 22840
SWIDTH 750 0
DWIDTH 6 0
BBX 5 7 0 0
BITMAP
20
F8
50
88
70
70
10
ENDCHAR
STARTCHAR uni593E
ENCODING 22846
SWIDTH 750 0
DWIDTH 6 0
BBX 5 7 0 0
BITMAP
20
F8
50
50
A8
20
D8
ENDCHAR
STARTCHAR uni5944
ENCODING 22852
SWIDTH 750 0
DWIDTH 6 0
BBX 5 7 0 0
BITMAP
20
F8
50
A8
70
70
18
ENDCHAR
STARTCHAR uni5947
ENCODING 22855
SWIDTH 750 0
DWIDTH 6 0
BBX 5 7 0 0
BITMAP
20
F8
20
50
F8
10
50
ENDCHAR
STARTCHAR uni5948
ENCODING 22856
SWIDTH 750 0
DWIDTH 6 0
BBX 5 7 0 0
BITMAP
20
F8
50
88
70
20
A8
ENDCHAR
STARTCHAR uni5949
ENCODING 22857
SWIDTH 750 0
DWIDTH 6 0
BBX 5 7 0 0
BITMAP
20
70
F8
70
A8
70
20
ENDCHAR
STARTCHAR uni594E
ENCODING 22862
SWIDTH 750 0
DWIDTH 6 0
BBX 5 7 0 0
BITMAP
20
F8
50
A8
70
20
F8
ENDCHAR
STARTCHAR uni594F
ENCODING 22863
SWIDTH 750 0
DWIDTH 6 0
BBX 5 7 0 0
BITMAP
20
F8
70
F8
A8
20
50
ENDCHAR
STARTCHAR uni5950
ENCODING 22864
SWIDTH 750 0
DWIDTH 6 0
BBX 5 7 0 0
BITMAP
30
D0
70
70
F8
20
D8
ENDCHAR
STARTCHAR uni5951
ENCODING 22865
SWIDTH 750 0
DWIDTH 6 0
BBX 5 7 0 0
BITMAP
78
D8
68
C0
F8
20
D8
ENDCHAR
STARTCHAR uni5954
ENCODING 22868
SWIDTH 750 0
DWIDTH 6 0
BBX 5 7 0 0
BITMAP
20
F8
50
A8
30
F8
50
ENDCHAR
STARTCHAR uni5955
ENCODING 22869
SWIDTH 750 0
DWIDTH 6 0
BBX 5 7 0 0
BITMAP
20
F8
50
D8
70
20
D8
ENDCHAR
STARTCHAR uni5957
ENCODING 22871
SWIDTH 750 0
DWIDTH 6 0
BBX 5 7 0 0
BITMAP
20
F8
50
E8
F8
50
E8
ENDCHAR
STARTCHAR uni5958
ENCODING 22872
SWIDTH 750 0
DWIDTH 6 0
BBX 5 7 0 0
BITMAP
90
F8
50
B8
70
20
D8
ENDCHAR
STARTCHAR uni595A
ENCODING 22874
SWIDTH 750 0
DWIDTH 6 0
BBX 5 7 0 0
BITMAP
70
A8
40
28
F8
20
D8
ENDCHAR
STARTCHAR uni5960
ENCODING 22880
SWIDTH 750 0
DWIDTH 6 0
BBX 5 7 0 0
BITMAP
50
88
70
70
F8
20
D8
ENDCHAR
STARTCHAR uni5962
ENCODING 22882
SWIDTH 750 0
DWIDTH 6 0
BBX 5 7 0 0
BITMAP
20
F8
50
A8
F8
70
B0
ENDCHAR
STARTCHAR uni5965
ENCODING 22885
SWIDTH 750 0
DWIDTH 6 0
BBX 5 7 0 0
BITMAP
20
78
58
68
F8
20
D8
ENDCHAR
STARTCHAR uni5967
ENCODING 22887
SWIDTH 750 0
DWIDTH 6 0
BBX 5 7 0 0
BITMAP
20
78
78
68
F8
20
D8
ENDCHAR
STARTCHAR uni5968
ENCODING 22888
SWIDTH 750 0
DWIDTH 6 0
BBX 5 7 0 0
BITMAP
58
E8
78
D0
78
20
D8
ENDCHAR
STARTCHAR uni5969
ENCODING 22889
SWIDTH 750 0
DWIDTH 6 0
BBX 5 7 0 0
BITMAP
20
F8
50
B8
B0
D8
F8
ENDCHAR
STARTCHAR uni596A
ENCODING 22890
SWIDTH 750 0
DWIDTH 6 0
BBX 5 7 0 0
BITMAP
20
F8
70
E8
F8
50
30
ENDCHAR
STARTCHAR uni596C
ENCODING 22892
SWIDTH 750 0
DWIDTH 6 0
BBX 5 7 0 0
BITMAP
98
E8
50
B8
F8
20
D8
ENDCHAR
STARTCHAR uni596E
ENCODING 22894
SWIDTH 750 0
DWIDTH 6 0
BBX 5 7 0 0
BITMAP
20
F8
50
E8
F8
A8
F8
ENDCHAR
STARTCHAR uni5973
ENCODING 22899
SWIDTH 750 0
DWIDTH 6 0
BBX 5 7 0 0
BITMAP
20
20
F8
50
60
30
C8
ENDCHAR
STARTCHAR uni5974
ENCODING 22900
SWIDTH 750 0
DWIDTH 6 0
BBX 5 7 0 0
BITMAP
B8
88
E8
E8
D0
50
A8
ENDCHAR
STARTCHAR uni5978
ENCODING 22904
SWIDTH 750 0
DWIDTH 6 0
BBX 5 7 0 0
BITMAP
B8
90
D0
F8
D0
50
90
ENDCHAR
STARTCHAR uni597D
ENCODING 22909
SWIDTH 750 0
DWIDTH 6 0
BBX 5 7 0 0
BITMAP
B8
88
D0
F8
D0
50
B0
ENDCHAR
STARTCHAR uni5981
ENCODING 22913
SWIDTH 750 0
DWIDTH 6 0
BBX 5 7 0 0
BITMAP
A0
B8
C8
E8
D8
48
98
ENDCHAR
STARTCHAR uni5982
ENCODING 22914
SWIDTH 750 0
DWIDTH 6 0
BBX 5 7 0 0
BITMAP
40
58
F8
B8
D8
58
A0
ENDCHAR
STARTCHAR uni5983
ENCODING 22915
SWIDTH 750 0
DWIDTH 6 0
BBX 5 7 0 0
BITMAP
58
48
E8
B8
D0
70
98
ENDCHAR
STARTCHAR uni5984
ENCODING 22916
SWIDTH 750 0
DWIDTH 6 0
BBX 5 7 0 0
BITMAP
20
F8
40
70
F8
50
E8
ENDCHAR
STARTCHAR uni598A
ENCODING 22922
SWIDTH 750 0
DWIDTH 6 0
BBX 5 7 0 0
BITMAP
88
B0
D0
F8
D0
50
B8
ENDCHAR
STARTCHAR uni598D
ENCODING 22925
SWIDTH 750 0
DWIDTH 6 0
BBX 5 7 0 0
BITMAP
B8
A8
E8
F8
E8
68
A8
ENDCHAR
STARTCHAR uni5993
ENCODING 22931
SWIDTH 750 0
DWIDTH 6 0
BBX 5 7 0 0
BITMAP
90
B8
D0
F8
E8
50
A8
ENDCHAR
STARTCHAR uni5996
ENCODING 22934
SWIDTH 750 0
DWIDTH 6 0
BBX 5 7 0 0
BITMAP
88
B0
D0
F8
D0
50
A8
ENDCHAR
STARTCHAR uni5999
ENCODING 22937
SWIDTH 750 0
DWIDTH 6 0
BBX 5 7 0 0
BITMAP
90
B0
F8
D0
C8
50
A0
ENDCHAR
STARTCHAR uni599B
ENCODING 22939
SWIDTH 750 0
DWIDTH 6 0
BBX 5 7 0 0
BITMAP
A8
F8
F8
20
F8
50
E8
ENDCHAR
STARTCHAR uni599D
ENCODING 22941
SWIDTH 750 0
DWIDTH 6 0
BBX 5 7 0 0
BITMAP
D0
D0
F8
68
F0
D0
68
ENDCHAR
STARTCHAR uni59A3
ENCODING 22947
SWIDTH 750 0
DWIDTH 6 0
BBX 5 7 0 0
BITMAP
B0
B0
F8
F0
F0
70
B8
ENDCHAR
STARTCHAR uni59A5
ENCODING 22949
SWIDTH 750 0
DWIDTH 6 0
BBX 5 7 0 0
BITMAP
18
E0
A8
F8
50
30
C8
ENDCHAR
STARTCHAR uni59A8
ENCODING 22952
SWIDTH 750 0
DWIDTH 6 0
BBX 5 7 0 0
BITMAP
90
B8
D0
D8
D8
68
A8
ENDCHAR
STARTCHAR uni59AC
ENCODING 22956
SWIDTH 750 0
DWIDTH 6 0
BBX 5 7 0 0
BITMAP
B8
90
D0
E0
D8
58
98
ENDCHAR
STARTCHAR uni59B2
ENCODING 22962
SWIDTH 750 0
DWIDTH 6 0
BBX 5 7 0 0
BITMAP
B8
A8
F8
E8
F8
40
B8
ENDCHAR
STARTCHAR uni59B9
ENCODING 22969
SWIDTH 750 0
DWIDTH 6 0
BBX 5 7 0 0
BITMAP
90
B8
D0
F8
D0
78
90
ENDCHAR
STARTCHAR uni59BB
ENCODING 22971
SWIDTH 750 0
DWIDTH 6 0
BBX 5 7 0 0
BITMAP
20
F8
30
70
F8
50
E8
ENDCHAR
STARTCHAR uni59BE
ENCODING 22974
SWIDTH 750 0
DWIDTH 6 0
BBX 5 7 0 0
BITMAP
20
F8
50
F8
F8
50
E8
ENDCHAR
STARTCHAR uni59C6
ENCODING 22982
SWIDTH 750 0
DWIDTH 6 0
BBX 5 7 0 0
BITMAP
B8
A8
E8
F8
C8
78
98
ENDCHAR
STARTCHAR uni59C9
ENCODING 22985
SWIDTH 750 0
DWIDTH 6 0
BBX 5 7 0 0
BITMAP
90
B8
D0
F8
D8
58
90
ENDCHAR
STARTCHAR uni59CB
ENCODING 22987
SWIDTH 750 0
DWIDTH 6 0
BBX 5 7 0 0
BITMAP
50
D0
68
B8
C0
78
B8
ENDCHAR
STARTCHAR uni59D0
ENCODING 22992
SWIDTH 750 0
DWIDTH 6 0
BBX 5 7 0 0
BITMAP
B8
A8
F8
E8
F8
68
B8
ENDCHAR
STARTCHAR uni59D1
ENCODING 22993
SWIDTH 750 0
DWIDTH 6 0
BBX 5 7 0 0
BITMAP
90
90
F8
D0
F8
68
B8
ENDCHAR
STARTCHAR uni59D3
ENCODING 22995
SWIDTH 750 0
DWIDTH 6 0
BBX 5 7 0 0
BITMAP
B0
B8
D0
D0
F8
50
B8
ENDCHAR
STARTCHAR uni59D4
ENCODING 22996
SWIDTH 750 0
DWIDTH 6 0
BBX 5 7 0 0
BITMAP
70
F8
70
A8
F8
50
E8
ENDCHAR
STARTCHAR uni59D9
ENCODING 23001
SWIDTH 750 0
DWIDTH 6 0
BBX 5 7 0 0
BITMAP
88
B0
D0
F8
D0
50
B8
ENDCHAR
STARTCHAR uni59DA
ENCODING 23002
SWIDTH 750 0
DWIDTH 6 0
BBX 5 7 0 0
BITMAP
B0
B8
F0
F8
F0
70
98
ENDCHAR
STARTCHAR uni59DC
ENCODING 23004
SWIDTH 750 0
DWIDTH 6 0
BBX 5 7 0 0
BITMAP
50
F8
70
20
F8
50
E8
ENDCHAR
STARTCHAR uni59E5
ENCODING 23013
SWIDTH 750 0
DWIDTH 6 0
BBX 5 7 0 0
BITMAP
90
B8
D0
F8
E0
50
98
ENDCHAR
STARTCHAR uni59E6
ENCODING 23014
SWIDTH 750 0
DWIDTH 6 0
BBX 5 7 0 0
BITMAP
20
F8
20
50
F8
50
A8
ENDCHAR
STARTCHAR uni59E8
ENCODING 23016
SWIDTH 750 0
DWIDTH 6 0
BBX 5 7 0 0
BITMAP
90
B8
F0
F8
D8
50
A8
ENDCHAR
STARTCHAR uni59EA
ENCODING 23018
SWIDTH 750 0
DWIDTH 6 0
BBX 5 7 0 0
BITMAP
B8
90
E8
D0
F8
50
B8
ENDCHAR
STARTCHAR uni59EB
ENCODING 23019
SWIDTH 750 0
DWIDTH 6 0
BBX 5 7 0 0
BITMAP
B8
B0
F8
E8
F8
70
B8
ENDCHAR
STARTCHAR uni59F6
ENCODING 23030
SWIDTH 750 0
DWIDTH 6 0
BBX 5 7 0 0
BITMAP
90
A8
D8
C0
F8
68
B8
ENDCHAR
STARTCHAR uni59FB
ENCODING 23035
SWIDTH 750 0
DWIDTH 6 0
BBX 5 7 0 0
BITMAP
B8
A8
F8
D8
E8
48
B8
ENDCHAR
STARTCHAR uni59FF
ENCODING 23039
SWIDTH 750 0
DWIDTH 6 0
BBX 5 7 0 0
BITMAP
A0
38
90
28
F8
50
E8
ENDCHAR
STARTCHAR uni5A01
ENCODING 23041
SWIDTH 750 0
DWIDTH 6 0
BBX 5 7 0 0
BITMAP
10
F8
F0
D0
B8
D0
A8
ENDCHAR
STARTCHAR uni5A03
ENCODING 23043
SWIDTH 750 0
DWIDTH 6 0
BBX 5 7 0 0
BITMAP
90
B8
D0
F8
D0
50
B8
ENDCHAR
STARTCHAR uni5A09
ENCODING 23049
SWIDTH 750 0
DWIDTH 6 0
BBX 5 7 0 0
BITMAP
90
B8
F8
F8
E0
78
88
ENDCHAR
STARTCHAR uni5A11
ENCODING 23057
SWIDTH 750 0
DWIDTH 6 0
BBX 5 7 0 0
BITMAP
90
58
90
60
F8
50
E8
ENDCHAR
STARTCHAR uni5A18
ENCODING 23064
SWIDTH 750 0
DWIDTH 6 0
BBX 5 7 0 0
BITMAP
90
B8
E8
F8
E8
70
A8
ENDCHAR
STARTCHAR uni5A1A
ENCODING 23066
SWIDTH 750 0
DWIDTH 6 0
BBX 5 7 0 0
BITMAP
B8
B8
F8
D0
F8
58
A8
ENDCHAR
STARTCHAR uni5A1C
ENCODING 23068
SWIDTH 750 0
DWIDTH 6 0
BBX 5 7 0 0
BITMAP
B8
98
F0
D8
F8
50
B0
ENDCHAR
STARTCHAR uni5A1F
ENCODING 23071
SWIDTH 750 0
DWIDTH 6 0
BBX 5 7 0 0
BITMAP
B8
B8
C0
F8
E8
78
A8
ENDCHAR
STARTCHAR uni5A20
ENCODING 23072
SWIDTH 750 0
DWIDTH 6 0
BBX 5 7 0 0
BITMAP
B8
A0
F8
E0
F8
70
A8
ENDCHAR
STARTCHAR uni5A25
ENCODING 23077
SWIDTH 750 0
DWIDTH 6 0
BBX 5 7 0 0
BITMAP
B8
90
F8
D0
D8
70
88
ENDCHAR
STARTCHAR uni5A29
ENCODING 23081
SWIDTH 750 0
DWIDTH 6 0
BBX 5 7 0 0
BITMAP
98
A8
D0
F8
F8
50
A8
ENDCHAR
STARTCHAR uni5A2F
ENCODING 23087
SWIDTH 750 0
DWIDTH 6 0
BBX 5 7 0 0
BITMAP
98
98
F0
D0
F8
40
A8
ENDCHAR
STARTCHAR uni5A35
ENCODING 23093
SWIDTH 750 0
DWIDTH 6 0
BBX 5 7 0 0
BITMAP
B0
B0
F8
F8
F0
58
90
ENDCHAR
STARTCHAR uni5A36
ENCODING 23094
SWIDTH 750 0
DWIDTH 6 0
BBX 5 7 0 0
BITMAP
F8
68
F0
28
F8
50
E8
ENDCHAR
STARTCHAR uni5A3C
ENCODING 23100
SWIDTH 750 0
DWIDTH 6 0
BBX 5 7 0 0
BITMAP
58
58
F8
A8
F8
68
B8
ENDCHAR
STARTCHAR uni5A40
ENCODING 23104
SWIDTH 750 0
DWIDTH 6 0
BBX 5 7 0 0
BITMAP
B8
B8
E8
F8
F8
68
A8
ENDCHAR
STARTCHAR uni5A41
ENCODING 23105
SWIDTH 750 0
DWIDTH 6 0
BBX 5 7 0 0
BITMAP
20
70
F8
70
F8
50
E8
ENDCHAR
STARTCHAR uni5A46
ENCODING 23110
SWIDTH 750 0
DWIDTH 6 0
BBX 5 7 0 0
BITMAP
90
38
B0
68
F8
50
E8
ENDCHAR
STARTCHAR uni5A49
ENCODING 23113
SWIDTH 750 0
DWIDTH 6 0
BBX 5 7 0 0
BITMAP
90
B8
C8
F0
D8
70
D8
ENDCHAR
STARTCHAR uni5A5A
ENCODING 23130
SWIDTH 750 0
DWIDTH 6 0
BBX 5 7 0 0
BITMAP
B8
B0
F8
F0
E8
58
98
ENDCHAR
STARTCHAR uni5A62
ENCODING 23138
SWIDTH 750 0
DWIDTH 6 0
BBX 5 7 0 0
BITMAP
90
B8
E8
F8
D8
78
88
ENDCHAR
STARTCHAR uni5A66
ENCODING 23142
SWIDTH 750 0
DWIDTH 6 0
BBX 5 7 0 0
BITMAP
B0
90
F8
E8
D0
78
90
ENDCHAR
STARTCHAR uni5A6A
ENCODING 23146
SWIDTH 750 0
DWIDTH 6 0
BBX 5 7 0 0
BITMAP
48
D8
48
00
F8
50
E8
ENDCHAR
STARTCHAR uni5A6C
ENCODING 23148
SWIDTH 750 0
DWIDTH 6 0
BBX 5 7 0 0
BITMAP
B8
80
E8
C0
F8
50
B8
ENDCHAR
STARTCHAR uni5A7F
ENCODING 23167
SWIDTH 750 0
DWIDTH 6 0
BBX 5 7 0 0
BITMAP
B8
98
F0
D8
E8
78
A8
ENDCHAR
STARTCHAR uni5A92
ENCODING 23186
SWIDTH 750 0
DWIDTH 6 0
BBX 5 7 0 0
BITMAP
A8
B8
E8
F8
D0
78
90
ENDCHAR
STARTCHAR uni5A9A
ENCODING 23194
SWIDTH 750 0
DWIDTH 6 0
BBX 5 7 0 0
BITMAP
B8
B8
F8
E0
D8
58
98
ENDCHAR
STARTCHAR uni5A9B
ENCODING 23195
SWIDTH 750 0
DWIDTH 6 0
BBX 5 7 0 0
BITMAP
B8
80
E8
D8
E8
50
A8
ENDCHAR
STARTCHAR uni5ABC
ENCODING 23228
SWIDTH 750 0
DWIDTH 6 0
BBX 5 7 0 0
BITMAP
B8
B8
F8
F8
C0
70
B8
ENDCHAR
STARTCHAR uni5ABD
ENCODING 23229
SWIDTH 750 0
DWIDTH 6 0
BBX 5 7 0 0
BITMAP
B8
B0
F8
F0
F8
48
A8
ENDCHAR
STARTCHAR uni5ABE
ENCODING 23230
SWIDTH 750 0
DWIDTH 6 0
BBX 5 7 0 0
BITMAP
A8
B8
E8
F8
F8
78
A8
ENDCHAR
STARTCHAR uni5AC1
ENCODING 23233
SWIDTH 750 0
DWIDTH 6 0
BBX 5 7 0 0
BITMAP
90
B8
E8
D0
E8
58
A8
ENDCHAR
STARTCHAR uni5AC2
ENCODING 23234
SWIDTH 750 0
DWIDTH 6 0
BBX 5 7 0 0
BITMAP
90
A8
E8
F8
E8
50
A8
ENDCHAR
STARTCHAR uni5AC9
ENCODING 23241
SWIDTH 750 0
DWIDTH 6 0
BBX 5 7 0 0
BITMAP
90
F8
C0
E0
F8
50
A8
ENDCHAR
STARTCHAR uni5ACB
ENCODING 23243
SWIDTH 750 0
DWIDTH 6 0
BBX 5 7 0 0
BITMAP
B8
98
F8
F0
F8
58
B8
ENDCHAR
STARTCHAR uni5ACC
ENCODING 23244
SWIDTH 750 0
DWIDTH 6 0
BBX 5 7 0 0
BITMAP
A8
B8
D8
F8
D0
78
90
ENDCHAR
STARTCHAR uni5AD0
ENCODING 23248
SWIDTH 750 0
DWIDTH 6 0
BBX 5 7 0 0
BITMAP
B0
B0
F8
D8
F8
50
A8
ENDCHAR
STARTCHAR uni5AD6
ENCODING 23254
SWIDTH 750 0
DWIDTH 6 0
BBX 5 7 0 0
BITMAP
B8
98
C0
F8
D0
78
90
ENDCHAR
STARTCHAR uni5AD7
ENCODING 23255
SWIDTH 750 0
DWIDTH 6 0
BBX 5 7 0 0
BITMAP
B8
B0
F0
E0
E8
68
B8
ENDCHAR
STARTCHAR uni5AE1
ENCODING 23265
SWIDTH 750 0
DWIDTH 6 0
BBX 5 7 0 0
BITMAP
90
B8
E8
F8
F8
78
A8
ENDCHAR
STARTCHAR uni5AE3
ENCODING 23267
SWIDTH 750 0
DWIDTH 6 0
BBX 5 7 0 0
BITMAP
B8
90
F8
E0
F8
48
A8
ENDCHAR
STARTCHAR uni5AE6
ENCODING 23270
SWIDTH 750 0
DWIDTH 6 0
BBX 5 7 0 0
BITMAP
A8
B8
E8
D0
F8
58
90
ENDCHAR
STARTCHAR uni5AE9
ENCODING 23273
SWIDTH 750 0
DWIDTH 6 0
BBX 5 7 0 0
BITMAP
90
B8
F8
F8
D8
70
A8
ENDCHAR
STARTCHAR uni5AFA
ENCODING 23290
SWIDTH 750 0
DWIDTH 6 0
BBX 5 7 0 0
BITMAP
A8
A8
C8
D8
D8
68
88
ENDCHAR
STARTCHAR uni5AFB
ENCODING 23291
SWIDTH 750 0
DWIDTH 6 0
BBX 5 7 0 0
BITMAP
A8
A8
D8
F8
D8
78
98
ENDCHAR
STARTCHAR uni5B09
ENCODING 23305
SWIDTH 750 0
DWIDTH 6 0
BBX 5 7 0 0
BITMAP
90
B8
D0
F8
E8
78
98
ENDCHAR
STARTCHAR uni5B0B
ENCODING 23307
SWIDTH 750 0
DWIDTH 6 0
BBX 5 7 0 0
BITMAP
A8
80
F8
F8
D0
78
90
ENDCHAR
STARTCHAR uni5B0C
ENCODING 23308
SWIDTH 750 0
DWIDTH 6 0
BBX 5 7 0 0
BITMAP
98
B8
D0
E8
C0
78
A8
ENDCHAR
STARTCHAR uni5B16
ENCODING 23318
SWIDTH 750 0
DWIDTH 6 0
BBX 5 7 0 0
BITMAP
D0
F8
A8
D0
F8
50
E8
ENDCHAR
STARTCHAR uni5B22
ENCODING 23330
SWIDTH 750 0
DWIDTH 6 0
BBX 5 7 0 0
BITMAP
90
B8
C0
E8
F8
70
A8
ENDCHAR
STARTCHAR uni5B2A
ENCODING 23338
SWIDTH 750 0
DWIDTH 6 0
BBX 5 7 0 0
BITMAP
90
B8
E8
D8
D8
40
A8
ENDCHAR
STARTCHAR uni5B2C
ENCODING 23340
SWIDTH 750 0
DWIDTH 6 0
BBX 5 7 0 0
BITMAP
B8
90
E8
C0
D0
78
A8
ENDCHAR
STARTCHAR uni5B30
ENCODING 23344
SWIDTH 750 0
DWIDTH 6 0
BBX 5 7 0 0
BITMAP
D8
D8
A8
40
F8
50
E8
ENDCHAR
STARTCHAR uni5B32
ENCODING 23346
SWIDTH 750 0
DWIDTH 6 0
BBX 5 7 0 0
BITMAP
D8
D8
F8
50
D8
68
98
ENDCHAR
STARTCHAR uni5B36
ENCODING 23350
SWIDTH 750 0
DWIDTH 6 0
BBX 5 7 0 0
BITMAP
90
A8
F8
C0
F8
78
A8
ENDCHAR
STARTCHAR uni5B3E
ENCODING 23358
SWIDTH 750 0
DWIDTH 6 0
BBX 5 7 0 0
BITMAP
98
A8
E0
F8
D8
60
A8
ENDCHAR
STARTCHAR uni5B40
ENCODING 23360
SWIDTH 750 0
DWIDTH 6 0
BBX 5 7 0 0
BITMAP
B8
90
E8
C0
D8
78
98
ENDCHAR
STARTCHAR uni5B43
ENCODING 23363
SWIDTH 750 0
DWIDTH 6 0
BBX 5 7 0 0
BITMAP
90
B8
E8
C0
F8
70
A8
ENDCHAR
STARTCHAR uni5B45
ENCODING 23365
SWIDTH 750 0
DWIDTH 6 0
BBX 5 7 0 0
BITMAP
90
B0
F8
D0
F8
50
A8
ENDCHAR
STARTCHAR uni5B50
ENCODING 23376
SWIDTH 750 0
DWIDTH 6 0
BBX 5 7 0 0
BITMAP
70
10
20
F8
20
20
60
ENDCHAR
STARTCHAR uni5B51
ENCODING 23377
SWIDTH 750 0
DWIDTH 6 0
BBX 5 7 0 0
BITMAP
70
10
20
38
E0
20
60
ENDCHAR
STARTCHAR uni5B54
ENCODING 23380
SWIDTH 750 0
DWIDTH 6 0
BBX 5 7 0 0
BITMAP
F0
30
50
70
D0
50
D8
ENDCHAR
STARTCHAR uni5B55
ENCODING 23381
SWIDTH 750 0
DWIDTH 6 0
BBX 5 7 0 0
BITMAP
F0
58
88
70
10
F8
20
ENDCHAR
STARTCHAR uni5B57
ENCODING 23383
SWIDTH 750 0
DWIDTH 6 0
BBX 5 7 0 0
BITMAP
20
F8
B8
10
F8
20
60
ENDCHAR
STARTCHAR uni5B58
ENCODING 23384
SWIDTH 750 0
DWIDTH 6 0
BBX 5 7 0 0
BITMAP
20
F8
58
C8
50
78
50
ENDCHAR
STARTCHAR uni5B5A
ENCODING 23386
SWIDTH 750 0
DWIDTH 6 0
BBX 5 7 0 0
BITMAP
70
A8
70
10
F8
20
60
ENDCHAR
STARTCHAR uni5B5B
ENCODING 23387
SWIDTH 750 0
DWIDTH 6 0
BBX 5 7 0 0
BITMAP
20
70
F8
B8
10
F8
20
ENDCHAR
STARTCHAR uni5B5C
ENCODING 23388
SWIDTH 750 0
DWIDTH 6 0
BBX 5 7 0 0
BITMAP
F0
38
58
78
D8
50
E8
ENDCHAR
STARTCHAR uni5B5D
ENCODING 23389
SWIDTH 750 0
DWIDTH 6 0
BBX 5 7 0 0
BITMAP
28
70
20
F8
50
B8
20
ENDCHAR
STARTCHAR uni5B5F
ENCODING 23391
SWIDTH 750 0
DWIDTH 6 0
BBX 5 7 0 0
BITMAP
70
10
F8
20
70
70
F8
ENDCHAR
STARTCHAR uni5B63
ENCODING 23395
SWIDTH 750 0
DWIDTH 6 0
BBX 5 7 0 0
BITMAP
70
F8
50
B8
10
F8
20
ENDCHAR
STARTCHAR uni5B64
ENCODING 23396
SWIDTH 750 0
DWIDTH 6 0
BBX 5 7 0 0
BITMAP
C8
70
A8
68
E8
78
E8
ENDCHAR
STARTCHAR uni5B65
ENCODING 23397
SWIDTH 750 0
DWIDTH 6 0
BBX 5 7 0 0
BITMAP
58
E8
50
B8
10
F8
20
ENDCHAR
STARTCHAR uni5B66
ENCODING 23398
SWIDTH 750 0
DWIDTH 6 0
BBX 5 7 0 0
BITMAP
A8
F8
B8
10
F8
20
60
ENDCHAR
STARTCHAR uni5B69
ENCODING 23401
SWIDTH 750 0
DWIDTH 6 0
BBX 5 7 0 0
BITMAP
D0
78
A0
50
E8
50
E8
ENDCHAR
STARTCHAR uni5B6B
ENCODING 23403
SWIDTH 750 0
DWIDTH 6 0
BBX 5 7 0 0
BITMAP
F8
50
A0
78
D0
78
D0
ENDCHAR
STARTCHAR uni5B70
ENCODING 23408
SWIDTH 750 0
DWIDTH 6 0
BBX 5 7 0 0
BITMAP
50
F0
D0
F0
50
D0
68
ENDCHAR
STARTCHAR uni5B71
ENCODING 23409
SWIDTH 750 0
DWIDTH 6 0
BBX 5 7 0 0
BITMAP
F8
F8
B0
F8
48
D8
90
ENDCHAR
STARTCHAR uni5B73
ENCODING 23411
SWIDTH 750 0
DWIDTH 6 0
BBX 5 7 0 0
BITMAP
50
F8
50
A0
70
F8
20
ENDCHAR
STARTCHAR uni5B75
ENCODING 23413
SWIDTH 750 0
DWIDTH 6 0
BBX 5 7 0 0
BITMAP
58
A8
C0
D8
C8
78
90
ENDCHAR
STARTCHAR uni5B78
ENCODING 23416
SWIDTH 750 0
DWIDTH 6 0
BBX 5 7 0 0
BITMAP
58
A8
F8
B8
10
F8
20
ENDCHAR
STARTCHAR uni5B7A
ENCODING 23418
SWIDTH 750 0
DWIDTH 6 0
BBX 5 7 0 0
BITMAP
F8
50
A8
40
D0
78
E8
ENDCHAR
STARTCHAR uni5B80
ENCODING 23424
SWIDTH 750 0
DWIDTH 6 0
BBX 5 3 0 2
BITMAP
20
F8
88
ENDCHAR
STARTCHAR uni5B83
ENCODING 23427
SWIDTH 750 0
DWIDTH 6 0
BBX 5 7 0 0
BITMAP
20
F8
88
50
60
48
78
ENDCHAR
STARTCHAR uni5B85
ENCODING 23429
SWIDTH 750 0
DWIDTH 6 0
BBX 5 7 0 0
BITMAP
20
F8
98
60
F8
20
38
ENDCHAR
STARTCHAR uni5B87
ENCODING 23431
SWIDTH 750 0
DWIDTH 6 0
BBX 5 7 0 0
BITMAP
20
F8
88
70
20
F8
20
ENDCHAR
STARTCHAR uni5B88
ENCODING 23432
SWIDTH 750 0
DWIDTH 6 0
BBX 5 7 0 0
BITMAP
20
F8
88
10
F8
50
30
ENDCHAR
STARTCHAR uni5B89
ENCODING 23433
SWIDTH 750 0
DWIDTH 6 0
BBX 5 7 0 0
BITMAP
20
F8
A8
F8
50
30
C8
ENDCHAR
STARTCHAR uni5B8B
ENCODING 23435
SWIDTH 750 0
DWIDTH 6 0
BBX 5 7 0 0
BITMAP
20
F8
A8
70
20
70
A8
ENDCHAR
STARTCHAR uni5B8C
ENCODING 23436
SWIDTH 750 0
DWIDTH 6 0
BBX 5 7 0 0
BITMAP
20
F8
88
70
F8
50
98
ENDCHAR
STARTCHAR uni5B8D
ENCODING 23437
SWIDTH 750 0
DWIDTH 6 0
BBX 5 7 0 0
BITMAP
20
F8
88
20
F8
00
88
ENDCHAR
STARTCHAR uni5B8F
ENCODING 23439
SWIDTH 750 0
DWIDTH 6 0
BBX 5 7 0 0
BITMAP
20
F8
A8
F0
40
90
38
ENDCHAR
STARTCHAR uni5B95
ENCODING 23445
SWIDTH 750 0
DWIDTH 6 0
BBX 5 7 0 0
BITMAP
20
F8
88
70
40
B0
30
ENDCHAR
STARTCHAR uni5B97
ENCODING 23447
SWIDTH 750 0
DWIDTH 6 0
BBX 5 7 0 0
BITMAP
20
F8
88
70
F8
20
A8
ENDCHAR
STARTCHAR uni5B98
ENCODING 23448
SWIDTH 750 0
DWIDTH 6 0
BBX 5 7 0 0
BITMAP
20
F8
88
70
70
48
78
ENDCHAR
STARTCHAR uni5B99
ENCODING 23449
SWIDTH 750 0
DWIDTH 6 0
BBX 5 7 0 0
BITMAP
20
F8
88
20
F8
A8
F8
ENDCHAR
STARTCHAR uni5B9A
ENCODING 23450
SWIDTH 750 0
DWIDTH 6 0
BBX 5 7 0 0
BITMAP
20
F8
B8
10
58
50
B8
ENDCHAR
STARTCHAR uni5B9B
ENCODING 23451
SWIDTH 750 0
DWIDTH 6 0
BBX 5 7 0 0
BITMAP
20
F8
88
78
A8
60
B8
ENDCHAR
STARTCHAR uni5B9C
ENCODING 23452
SWIDTH 750 0
DWIDTH 6 0
BBX 5 7 0 0
BITMAP
20
F8
88
70
70
50
F8
ENDCHAR
STARTCHAR uni5B9D
ENCODING 23453
SWIDTH 750 0
DWIDTH 6 0
BBX 5 7 0 0
BITMAP
20
F8
B8
20
70
28
F8
ENDCHAR
STARTCHAR uni5B9F
ENCODING 23455
SWIDTH 750 0
DWIDTH 6 0
BBX 5 7 0 0
BITMAP
20
F8
A8
70
F8
20
D8
ENDCHAR
STARTCHAR uni5BA2
ENCODING 23458
SWIDTH 750 0
DWIDTH 6 0
BBX 5 7 0 0
BITMAP
20
F8
B8
50
20
D8
70
ENDCHAR
STARTCHAR uni5BA3
ENCODING 23459
SWIDTH 750 0
DWIDTH 6 0
BBX 5 7 0 0
BITMAP
20
F8
B8
00
70
50
F8
ENDCHAR
STARTCHAR uni5BA4
ENCODING 23460
SWIDTH 750 0
DWIDTH 6 0
BBX 5 7 0 0
BITMAP
20
F8
A8
50
E8
20
F8
ENDCHAR
STARTCHAR uni5BA5
ENCODING 23461
SWIDTH 750 0
DWIDTH 6 0
BBX 5 7 0 0
BITMAP
20
F8
A8
70
D0
70
50
ENDCHAR
STARTCHAR uni5BA6
ENCODING 23462
SWIDTH 750 0
DWIDTH 6 0
BBX 5 7 0 0
BITMAP
20
F8
E8
50
70
60
78
ENDCHAR
STARTCHAR uni5BAE
ENCODING 23470
SWIDTH 750 0
DWIDTH 6 0
BBX 5 7 0 0
BITMAP
20
F8
D8
70
20
50
70
ENDCHAR
STARTCHAR uni5BB0
ENCODING 23472
SWIDTH 750 0
DWIDTH 6 0
BBX 5 7 0 0
BITMAP
20
F8
A8
F8
50
F8
20
ENDCHAR
STARTCHAR uni5BB3
ENCODING 23475
SWIDTH 750 0
DWIDTH 6 0
BBX 5 7 0 0
BITMAP
20
F8
A8
70
20
F8
70
ENDCHAR
STARTCHAR uni5BB4
ENCODING 23476
SWIDTH 750 0
DWIDTH 6 0
BBX 5 7 0 0
BITMAP
20
F8
B8
30
F8
50
E8
ENDCHAR
STARTCHAR uni5BB5
ENCODING 23477
SWIDTH 750 0
DWIDTH 6 0
BBX 5 7 0 0
BITMAP
20
F8
D8
70
50
70
50
ENDCHAR
STARTCHAR uni5BB6
ENCODING 23478
SWIDTH 750 0
DWIDTH 6 0
BBX 5 7 0 0
BITMAP
20
F8
88
70
68
B0
68
ENDCHAR
STARTCHAR uni5BB8
ENCODING 23480
SWIDTH 750 0
DWIDTH 6 0
BBX 5 7 0 0
BITMAP
20
F8
E8
80
F8
D0
68
ENDCHAR
STARTCHAR uni5BB9
ENCODING 23481
SWIDTH 750 0
DWIDTH 6 0
BBX 5 7 0 0
BITMAP
20
F8
D8
20
50
B8
30
ENDCHAR
STARTCHAR uni5BBF
ENCODING 23487
SWIDTH 750 0
DWIDTH 6 0
BBX 5 7 0 0
BITMAP
20
F8
88
78
D0
58
58
ENDCHAR
STARTCHAR uni5BC2
ENCODING 23490
SWIDTH 750 0
DWIDTH 6 0
BBX 5 7 0 0
BITMAP
20
F8
88
58
68
D0
68
ENDCHAR
STARTCHAR uni5BC3
ENCODING 23491
SWIDTH 750 0
DWIDTH 6 0
BBX 5 7 0 0
BITMAP
20
F8
B8
D0
70
70
98
ENDCHAR
STARTCHAR uni5BC4
ENCODING 23492
SWIDTH 750 0
DWIDTH 6 0
BBX 5 7 0 0
BITMAP
20
F8
A8
50
F8
10
50
ENDCHAR
STARTCHAR uni5BC5
ENCODING 23493
SWIDTH 750 0
DWIDTH 6 0
BBX 5 7 0 0
BITMAP
20
F8
A8
70
70
70
88
ENDCHAR
STARTCHAR uni5BC6
ENCODING 23494
SWIDTH 750 0
DWIDTH 6 0
BBX 5 7 0 0
BITMAP
20
F8
A8
50
B0
68
78
ENDCHAR
STARTCHAR uni5BC7
ENCODING 23495
SWIDTH 750 0
DWIDTH 6 0
BBX 5 7 0 0
BITMAP
20
F8
C8
18
D0
68
B8
ENDCHAR
STARTCHAR uni5BC9
ENCODING 23497
SWIDTH 750 0
DWIDTH 6 0
BBX 5 7 0 0
BITMAP
20
F8
B8
50
F8
50
78
ENDCHAR
STARTCHAR uni5BCC
ENCODING 23500
SWIDTH 750 0
DWIDTH 6 0
BBX 5 7 0 0
BITMAP
20
F8
D8
70
F8
A8
F8
ENDCHAR
STARTCHAR uni5BD0
ENCODING 23504
SWIDTH 750 0
DWIDTH 6 0
BBX 5 7 0 0
BITMAP
20
F8
D8
78
D0
F8
50
ENDCHAR
STARTCHAR uni5BD2
ENCODING 23506
SWIDTH 750 0
DWIDTH 6 0
BBX 5 7 0 0
BITMAP
20
F8
A8
70
70
88
20
ENDCHAR
STARTCHAR uni5BD3
ENCODING 23507
SWIDTH 750 0
DWIDTH 6 0
BBX 5 7 0 0
BITMAP
20
F8
88
70
70
B8
E8
ENDCHAR
STARTCHAR uni5BD4
ENCODING 23508
SWIDTH 750 0
DWIDTH 6 0
BBX 5 7 0 0
BITMAP
20
F8
A8
70
30
60
B8
ENDCHAR
STARTCHAR uni5BDB
ENCODING 23515
SWIDTH 750 0
DWIDTH 6 0
BBX 5 7 0 0
BITMAP
20
F8
A8
70
70
70
98
ENDCHAR
STARTCHAR uni5BDD
ENCODING 23517
SWIDTH 750 0
DWIDTH 6 0
BBX 5 7 0 0
BITMAP
20
F8
98
F8
68
D0
68
ENDCHAR
STARTCHAR uni5BDE
ENCODING 23518
SWIDTH 750 0
DWIDTH 6 0
BBX 5 7 0 0
BITMAP
20
F8
D8
70
F8
20
D8
ENDCHAR
STARTCHAR uni5BDF
ENCODING 23519
SWIDTH 750 0
DWIDTH 6 0
BBX 5 7 0 0
BITMAP
20
F8
A8
50
88
70
A8
ENDCHAR
STARTCHAR uni5BE1
ENCODING 23521
SWIDTH 750 0
DWIDTH 6 0
BBX 5 7 0 0
BITMAP
20
F8
B8
30
F8
50
A8
ENDCHAR
STARTCHAR uni5BE2
ENCODING 23522
SWIDTH 750 0
DWIDTH 6 0
BBX 5 7 0 0
BITMAP
20
F8
C8
78
E8
D0
68
ENDCHAR
STARTCHAR uni5BE4
ENCODING 23524
SWIDTH 750 0
DWIDTH 6 0
BBX 5 7 0 0
BITMAP
20
F8
D8
78
D0
F8
58
ENDCHAR
STARTCHAR uni5BE5
ENCODING 23525
SWIDTH 750 0
DWIDTH 6 0
BBX 5 7 0 0
BITMAP
20
F8
D8
20
D8
30
60
ENDCHAR
STARTCHAR uni5BE6
ENCODING 23526
SWIDTH 750 0
DWIDTH 6 0
BBX 5 7 0 0
BITMAP
20
F8
B8
78
70
70
88
ENDCHAR
STARTCHAR uni5BE7
ENCODING 23527
SWIDTH 750 0
DWIDTH 6 0
BBX 5 7 0 0
BITMAP
20
F8
A8
50
F8
20
60
ENDCHAR
STARTCHAR uni5BE8
ENCODING 23528
SWIDTH 750 0
DWIDTH 6 0
BBX 5 7 0 0
BITMAP
20
F8
D8
70
A8
70
A8
ENDCHAR
STARTCHAR uni5BE9
ENCODING 23529
SWIDTH 750 0
DWIDTH 6 0
BBX 5 7 0 0
BITMAP
20
F8
A8
70
F8
78
B0
ENDCHAR
STARTCHAR uni5BEB
ENCODING 23531
SWIDTH 750 0
DWIDTH 6 0
BBX 5 7 0 0
BITMAP
20
F8
A8
50
78
08
A8
ENDCHAR
STARTCHAR uni5BEE
ENCODING 23534
SWIDTH 750 0
DWIDTH 6 0
BBX 5 7 0 0
BITMAP
20
F8
A8
70
D8
70
A8
ENDCHAR
STARTCHAR uni5BF0
ENCODING 23536
SWIDTH 750 0
DWIDTH 6 0
BBX 5 7 0 0
BITMAP
20
F8
B8
70
F8
D0
68
ENDCHAR
STARTCHAR uni5BF3
ENCODING 23539
SWIDTH 750 0
DWIDTH 6 0
BBX 5 7 0 0
BITMAP
20
F8
E8
50
F8
70
88
ENDCHAR
STARTCHAR uni5BF5
ENCODING 23541
SWIDTH 750 0
DWIDTH 6 0
BBX 5 7 0 0
BITMAP
20
F8
D8
10
C8
D0
D8
ENDCHAR
STARTCHAR uni5BF6
ENCODING 23542
SWIDTH 750 0
DWIDTH 6 0
BBX 5 7 0 0
BITMAP
20
F8
D8
58
F0
70
88
ENDCHAR
STARTCHAR uni5BF8
ENCODING 23544
SWIDTH 750 0
DWIDTH 6 0
BBX 5 7 0 0
BITMAP
10
F8
10
50
30
10
30
ENDCHAR
STARTCHAR uni5BFA
ENCODING 23546
SWIDTH 750 0
DWIDTH 6 0
BBX 5 7 0 0
BITMAP
20
70
20
F8
10
F8
50
ENDCHAR
STARTCHAR uni5BFE
ENCODING 23550
SWIDTH 750 0
DWIDTH 6 0
BBX 5 7 0 0
BITMAP
48
F8
28
B8
58
48
A8
ENDCHAR
STARTCHAR uni5BFF
ENCODING 23551
SWIDTH 750 0
DWIDTH 6 0
BBX 5 7 0 0
BITMAP
20
70
F8
50
F8
90
50
ENDCHAR
STARTCHAR uni5C01
ENCODING 23553
SWIDTH 750 0
DWIDTH 6 0
BBX 5 7 0 0
BITMAP
48
F8
48
E8
58
68
C8
ENDCHAR
STARTCHAR uni5C02
ENCODING 23554
SWIDTH 750 0
DWIDTH 6 0
BBX 5 7 0 0
BITMAP
20
F8
70
70
F8
50
30
ENDCHAR
STARTCHAR uni5C04
ENCODING 23556
SWIDTH 750 0
DWIDTH 6 0
BBX 5 7 0 0
BITMAP
28
78
68
78
F8
68
A8
ENDCHAR
STARTCHAR uni5C05
ENCODING 23557
SWIDTH 750 0
DWIDTH 6 0
BBX 5 7 0 0
BITMAP
48
F8
48
A8
E8
40
B8
ENDCHAR
STARTCHAR uni5C06
ENCODING 23558
SWIDTH 750 0
DWIDTH 6 0
BBX 5 7 0 0
BITMAP
58
40
E8
40
F8
68
58
ENDCHAR
STARTCHAR uni5C07
ENCODING 23559
SWIDTH 750 0
DWIDTH 6 0
BBX 5 7 0 0
BITMAP
D8
E8
D0
78
C8
E8
58
ENDCHAR
STARTCHAR uni5C08
ENCODING 23560
SWIDTH 750 0
DWIDTH 6 0
BBX 5 7 0 0
BITMAP
20
F8
70
68
F8
50
30
ENDCHAR
STARTCHAR uni5C09
ENCODING 23561
SWIDTH 750 0
DWIDTH 6 0
BBX 5 7 0 0
BITMAP
E8
F8
88
D8
98
E8
58
ENDCHAR
STARTCHAR uni5C0A
ENCODING 23562
SWIDTH 750 0
DWIDTH 6 0
BBX 5 7 0 0
BITMAP
50
F8
D8
88
F8
50
30
ENDCHAR
STARTCHAR uni5C0B
ENCODING 23563
SWIDTH 750 0
DWIDTH 6 0
BBX 5 7 0 0
BITMAP
70
10
F8
68
F8
50
30
ENDCHAR
STARTCHAR uni5C0D
ENCODING 23565
SWIDTH 750 0
DWIDTH 6 0
BBX 5 7 0 0
BITMAP
A8
F8
A8
58
E8
68
C8
ENDCHAR
STARTCHAR uni5C0E
ENCODING 23566
SWIDTH 750 0
DWIDTH 6 0
BBX 5 7 0 0
BITMAP
A8
78
30
B0
F8
50
30
ENDCHAR
STARTCHAR uni5C0F
ENCODING 23567
SWIDTH 750 0
DWIDTH 6 0
BBX 5 7 0 0
BITMAP
20
20
70
68
A8
20
60
ENDCHAR
STARTCHAR uni5C11
ENCODING 23569
SWIDTH 750 0
DWIDTH 6 0
BBX 5 7 0 0
BITMAP
20
70
68
A0
28
10
60
ENDCHAR
STARTCHAR uni5C13
ENCODING 23571
SWIDTH 750 0
DWIDTH 6 0
BBX 5 7 0 0
BITMAP
40
78
A0
70
68
A8
60
ENDCHAR
STARTCHAR uni5C16
ENCODING 23574
SWIDTH 750 0
DWIDTH 6 0
BBX 5 7 0 0
BITMAP
20
A8
A8
60
F8
20
D8
ENDCHAR
STARTCHAR uni5C1A
ENCODING 23578
SWIDTH 750 0
DWIDTH 6 0
BBX 5 7 0 0
BITMAP
20
A8
20
F8
88
B8
B8
ENDCHAR
STARTCHAR uni5C20
ENCODING 23584
SWIDTH 750 0
DWIDTH 6 0
BBX 5 7 0 0
BITMAP
50
F0
58
50
E0
A8
F0
ENDCHAR
STARTCHAR uni5C22
ENCODING 23586
SWIDTH 750 0
DWIDTH 6 0
BBX 5 7 0 0
BITMAP
20
F8
20
30
30
50
98
ENDCHAR
STARTCHAR uni5C24
ENCODING 23588
SWIDTH 750 0
DWIDTH 6 0
BBX 5 7 0 0
BITMAP
28
F8
20
30
30
50
98
ENDCHAR
STARTCHAR uni5C28
ENCODING 23592
SWIDTH 750 0
DWIDTH 6 0
BBX 5 7 0 0
BITMAP
48
F0
48
50
48
50
B8
ENDCHAR
STARTCHAR uni5C2D
ENCODING 23597
SWIDTH 750 0
DWIDTH 6 0
BBX 5 7 0 0
BITMAP
20
70
F8
50
F8
50
98
ENDCHAR
STARTCHAR uni5C31
ENCODING 23601
SWIDTH 750 0
DWIDTH 6 0
BBX 5 7 0 0
BITMAP
58
F0
B8
F0
50
D0
68
ENDCHAR
STARTCHAR uni5C38
ENCODING 23608
SWIDTH 750 0
DWIDTH 6 0
BBX 5 7 0 0
BITMAP
78
48
78
40
40
40
80
ENDCHAR
STARTCHAR uni5C39
ENCODING 23609
SWIDTH 750 0
DWIDTH 6 0
BBX 5 7 0 0
BITMAP
78
28
F8
28
78
20
C0
ENDCHAR
STARTCHAR uni5C3A
ENCODING 23610
SWIDTH 750 0
DWIDTH 6 0
BBX 5 7 0 0
BITMAP
78
48
78
50
50
50
88
ENDCHAR
STARTCHAR uni5C3B
ENCODING 23611
SWIDTH 750 0
DWIDTH 6 0
BBX 5 7 0 0
BITMAP
F8
88
F8
A0
F0
B0
D8
ENDCHAR
STARTCHAR uni5C3C
ENCODING 23612
SWIDTH 750 0
DWIDTH 6 0
BBX 5 7 0 0
BITMAP
F8
88
F8
A0
B8
A0
B8
ENDCHAR
STARTCHAR uni5C3D
ENCODING 23613
SWIDTH 750 0
DWIDTH 6 0
BBX 5 7 0 0
BITMAP
78
48
78
50
A8
00
30
ENDCHAR
STARTCHAR uni5C3E
ENCODING 23614
SWIDTH 750 0
DWIDTH 6 0
BBX 5 7 0 0
BITMAP
F8
F8
90
E0
B8
E0
B8
ENDCHAR
STARTCHAR uni5C3F
ENCODING 23615
SWIDTH 750 0
DWIDTH 6 0
BBX 5 7 0 0
BITMAP
F8
88
F8
A0
E8
B0
68
ENDCHAR
STARTCHAR uni5C40
ENCODING 23616
SWIDTH 750 0
DWIDTH 6 0
BBX 5 7 0 0
BITMAP
F0
F0
80
F8
88
E8
E8
ENDCHAR
STARTCHAR uni5C41
ENCODING 23617
SWIDTH 750 0
DWIDTH 6 0
BBX 5 7 0 0
BITMAP
F8
88
F8
90
D8
90
D8
ENDCHAR
STARTCHAR uni5C45
ENCODING 23621
SWIDTH 750 0
DWIDTH 6 0
BBX 5 7 0 0
BITMAP
F8
F8
90
B8
90
A8
B8
ENDCHAR
STARTCHAR uni5C46
ENCODING 23622
SWIDTH 750 0
DWIDTH 6 0
BBX 5 7 0 0
BITMAP
F8
F8
80
A8
F8
A8
F8
ENDCHAR
STARTCHAR uni5C48
ENCODING 23624
SWIDTH 750 0
DWIDTH 6 0
BBX 5 7 0 0
BITMAP
F8
88
F8
B8
90
D8
F8
ENDCHAR
STARTCHAR uni5C4A
ENCODING 23626
SWIDTH 750 0
DWIDTH 6 0
BBX 5 7 0 0
BITMAP
F8
88
F8
A0
F8
A8
F8
ENDCHAR
STARTCHAR uni5C4B
ENCODING 23627
SWIDTH 750 0
DWIDTH 6 0
BBX 5 7 0 0
BITMAP
F8
F8
90
A8
B8
90
B8
ENDCHAR
STARTCHAR uni5C4D
ENCODING 23629
SWIDTH 750 0
DWIDTH 6 0
BBX 5 7 0 0
BITMAP
F8
88
F8
B0
D8
B0
D8
ENDCHAR
STARTCHAR uni5C4E
ENCODING 23630
SWIDTH 750 0
DWIDTH 6 0
BBX 5 7 0 0
BITMAP
F8
F8
A8
A0
F8
70
A8
ENDCHAR
STARTCHAR uni5C4F
ENCODING 23631
SWIDTH 750 0
DWIDTH 6 0
BBX 5 7 0 0
BITMAP
F8
F8
D0
F8
D0
F8
50
ENDCHAR
STARTCHAR uni5C50
ENCODING 23632
SWIDTH 750 0
DWIDTH 6 0
BBX 5 7 0 0
BITMAP
F8
F8
D0
B8
E8
D0
68
ENDCHAR
STARTCHAR uni5C51
ENCODING 23633
SWIDTH 750 0
DWIDTH 6 0
BBX 5 7 0 0
BITMAP
F8
F8
D0
B8
A8
B8
A8
ENDCHAR
STARTCHAR uni5C53
ENCODING 23635
SWIDTH 750 0
DWIDTH 6 0
BBX 5 7 0 0
BITMAP
F8
F8
B0
B0
B0
B0
48
ENDCHAR
STARTCHAR uni5C55
ENCODING 23637
SWIDTH 750 0
DWIDTH 6 0
BBX 5 7 0 0
BITMAP
F8
88
F8
B0
F8
D0
68
ENDCHAR
STARTCHAR uni5C5E
ENCODING 23646
SWIDTH 750 0
DWIDTH 6 0
BBX 5 7 0 0
BITMAP
F8
F8
90
E0
F8
B8
E8
ENDCHAR
STARTCHAR uni5C60
ENCODING 23648
SWIDTH 750 0
DWIDTH 6 0
BBX 5 7 0 0
BITMAP
F8
F8
B8
90
F8
B8
58
ENDCHAR
STARTCHAR uni5C61
ENCODING 23649
SWIDTH 750 0
DWIDTH 6 0
BBX 5 7 0 0
BITMAP
F8
F8
D0
A0
F8
D0
E8
ENDCHAR
STARTCHAR uni5C64
ENCODING 23652
SWIDTH 750 0
DWIDTH 6 0
BBX 5 7 0 0
BITMAP
F8
F8
D0
A8
F8
B0
B0
ENDCHAR
STARTCHAR uni5C65
ENCODING 23653
SWIDTH 750 0
DWIDTH 6 0
BBX 5 7 0 0
BITMAP
F8
F8
A0
D8
A8
F0
A8
ENDCHAR
STARTCHAR uni5C6C
ENCODING 23660
SWIDTH 750 0
DWIDTH 6 0
BBX 5 7 0 0
BITMAP
F8
F8
A8
F0
B8
B8
68
ENDCHAR
STARTCHAR uni5C6E
ENCODING 23662
SWIDTH 750 0
DWIDTH 6 0
BBX 5 7 0 0
BITMAP
20
A8
A8
A8
F8
20
C0
ENDCHAR
STARTCHAR uni5C6F
ENCODING 23663
SWIDTH 750 0
DWIDTH 6 0
BBX 5 7 0 0
BITMAP
20
F8
20
A8
F8
20
38
ENDCHAR
STARTCHAR uni5C71
ENCODING 23665
SWIDTH 750 0
DWIDTH 6 0
BBX 5 7 0 0
BITMAP
20
20
A8
A8
A8
A8
F8
ENDCHAR
STARTCHAR uni5C76
ENCODING 23670
SWIDTH 750 0
DWIDTH 6 0
BBX 5 7 0 0
BITMAP
20
A8
F8
00
F8
48
98
ENDCHAR
STARTCHAR uni5C79
ENCODING 23673
SWIDTH 750 0
DWIDTH 6 0
BBX 5 7 0 0
BITMAP
50
58
60
D8
C8
D0
18
ENDCHAR
STARTCHAR uni5C8C
ENCODING 23692
SWIDTH 750 0
DWIDTH 6 0
BBX 5 7 0 0
BITMAP
A8
F8
50
C8
68
50
A8
ENDCHAR
STARTCHAR uni5C90
ENCODING 23696
SWIDTH 750 0
DWIDTH 6 0
BBX 5 7 0 0
BITMAP
50
78
50
F8
E8
D0
28
ENDCHAR
STARTCHAR uni5C91
ENCODING 23697
SWIDTH 750 0
DWIDTH 6 0
BBX 5 7 0 0
BITMAP
A8
F8
50
88
70
10
60
ENDCHAR
STARTCHAR uni5C94
ENCODING 23700
SWIDTH 750 0
DWIDTH 6 0
BBX 5 7 0 0
BITMAP
50
88
30
50
00
A8
F8
ENDCHAR
STARTCHAR uni5CA1
ENCODING 23713
SWIDTH 750 0
DWIDTH 6 0
BBX 5 7 0 0
BITMAP
F8
88
D8
A8
D8
F8
88
ENDCHAR
STARTCHAR uni5CA8
ENCODING 23720
SWIDTH 750 0
DWIDTH 6 0
BBX 5 7 0 0
BITMAP
78
68
78
E8
F8
E8
38
ENDCHAR
STARTCHAR uni5CA9
ENCODING 23721
SWIDTH 750 0
DWIDTH 6 0
BBX 5 7 0 0
BITMAP
A8
F8
00
F8
40
B8
38
ENDCHAR
STARTCHAR uni5CAB
ENCODING 23723
SWIDTH 750 0
DWIDTH 6 0
BBX 5 7 0 0
BITMAP
50
50
78
F8
F8
F8
38
ENDCHAR
STARTCHAR uni5CAC
ENCODING 23724
SWIDTH 750 0
DWIDTH 6 0
BBX 5 7 0 0
BITMAP
78
58
78
D8
F8
D0
10
ENDCHAR
STARTCHAR uni5CB1
ENCODING 23729
SWIDTH 750 0
DWIDTH 6 0
BBX 5 7 0 0
BITMAP
50
78
D0
48
00
A8
F8
ENDCHAR
STARTCHAR uni5CB3
ENCODING 23731
SWIDTH 750 0
DWIDTH 6 0
BBX 5 7 0 0
BITMAP
10
60
50
F8
20
A8
F8
ENDCHAR
STARTCHAR uni5CB6
ENCODING 23734
SWIDTH 750 0
DWIDTH 6 0
BBX 5 7 0 0
BITMAP
50
78
68
F8
E8
E8
38
ENDCHAR
STARTCHAR uni5CB7
ENCODING 23735
SWIDTH 750 0
DWIDTH 6 0
BBX 5 7 0 0
BITMAP
78
48
78
D0
F8
D0
68
ENDCHAR
STARTCHAR uni5CB8
ENCODING 23736
SWIDTH 750 0
DWIDTH 6 0
BBX 5 7 0 0
BITMAP
A8
F8
80
B8
90
F8
90
ENDCHAR
STARTCHAR uni5CBB
ENCODING 23739
SWIDTH 750 0
DWIDTH 6 0
BBX 5 7 0 0
BITMAP
48
70
50
F8
D0
C8
78
ENDCHAR
STARTCHAR uni5CBC
ENCODING 23740
SWIDTH 750 0
DWIDTH 6 0
BBX 5 7 0 0
BITMAP
78
50
78
D0
F8
D0
10
ENDCHAR
STARTCHAR uni5CBE
ENCODING 23742
SWIDTH 750 0
DWIDTH 6 0
BBX 5 7 0 0
BITMAP
50
50
58
D0
F8
E8
38
ENDCHAR
STARTCHAR uni5CC5
ENCODING 23749
SWIDTH 750 0
DWIDTH 6 0
BBX 5 7 0 0
BITMAP
50
60
78
D8
F8
D8
28
ENDCHAR
STARTCHAR uni5CC7
ENCODING 23751
SWIDTH 750 0
DWIDTH 6 0
BBX 5 7 0 0
BITMAP
A8
F8
50
88
70
50
70
ENDCHAR
STARTCHAR uni5CD9
ENCODING 23769
SWIDTH 750 0
DWIDTH 6 0
BBX 5 7 0 0
BITMAP
50
78
50
F8
C8
E8
18
ENDCHAR
STARTCHAR uni5CE0
ENCODING 23776
SWIDTH 750 0
DWIDTH 6 0
BBX 5 7 0 0
BITMAP
50
58
50
F8
D0
D8
10
ENDCHAR
STARTCHAR uni5CE1
ENCODING 23777
SWIDTH 750 0
DWIDTH 6 0
BBX 5 7 0 0
BITMAP
50
78
50
E8
F8
D0
28
ENDCHAR
STARTCHAR uni5CE8
ENCODING 23784
SWIDTH 750 0
DWIDTH 6 0
BBX 5 7 0 0
BITMAP
78
50
78
D0
D8
F0
08
ENDCHAR
STARTCHAR uni5CE9
ENCODING 23785
SWIDTH 750 0
DWIDTH 6 0
BBX 5 7 0 0
BITMAP
A8
F8
50
F8
50
F0
48
ENDCHAR
STARTCHAR uni5CEA
ENCODING 23786
SWIDTH 750 0
DWIDTH 6 0
BBX 5 7 0 0
BITMAP
68
40
50
E8
C0
D8
18
ENDCHAR
STARTCHAR uni5CED
ENCODING 23789
SWIDTH 750 0
DWIDTH 6 0
BBX 5 7 0 0
BITMAP
68
40
50
F8
E8
F8
28
ENDCHAR
STARTCHAR uni5CEF
ENCODING 23791
SWIDTH 750 0
DWIDTH 6 0
BBX 5 7 0 0
BITMAP
A8
F8
48
70
A8
70
20
ENDCHAR
STARTCHAR uni5CF0
ENCODING 23792
SWIDTH 750 0
DWIDTH 6 0
BBX 5 7 0 0
BITMAP
58
68
50
E8
D0
F8
10
ENDCHAR
STARTCHAR uni5CF6
ENCODING 23798
SWIDTH 750 0
DWIDTH 6 0
BBX 5 7 0 0
BITMAP
20
70
70
40
78
C8
E8
ENDCHAR
STARTCHAR uni5CFA
ENCODING 23802
SWIDTH 750 0
DWIDTH 6 0
BBX 5 7 0 0
BITMAP
78
50
78
F8
F0
D0
28
ENDCHAR
STARTCHAR uni5CFB
ENCODING 23803
SWIDTH 750 0
DWIDTH 6 0
BBX 5 7 0 0
BITMAP
50
68
78
D8
E8
D0
28
ENDCHAR
STARTCHAR uni5CFD
ENCODING 23805
SWIDTH 750 0
DWIDTH 6 0
BBX 5 7 0 0
BITMAP
50
78
50
D0
E8
D0
28
ENDCHAR
STARTCHAR uni5D07
ENCODING 23815
SWIDTH 750 0
DWIDTH 6 0
BBX 5 7 0 0
BITMAP
A8
F8
88
70
F8
20
A8
ENDCHAR
STARTCHAR uni5D0B
ENCODING 23819
SWIDTH 750 0
DWIDTH 6 0
BBX 5 7 0 0
BITMAP
A8
F8
50
F8
50
F8
20
ENDCHAR
STARTCHAR uni5D0E
ENCODING 23822
SWIDTH 750 0
DWIDTH 6 0
BBX 5 7 0 0
BITMAP
50
78
50
E8
F8
C8
28
ENDCHAR
STARTCHAR uni5D11
ENCODING 23825
SWIDTH 750 0
DWIDTH 6 0
BBX 5 7 0 0
BITMAP
A8
F8
50
70
D8
90
D8
ENDCHAR
STARTCHAR uni5D14
ENCODING 23828
SWIDTH 750 0
DWIDTH 6 0
BBX 5 7 0 0
BITMAP
A8
F8
78
D0
78
50
78
ENDCHAR
STARTCHAR uni5D15
ENCODING 23829
SWIDTH 750 0
DWIDTH 6 0
BBX 5 7 0 0
BITMAP
78
50
78
D0
F8
D0
38
ENDCHAR
STARTCHAR uni5D16
ENCODING 23830
SWIDTH 750 0
DWIDTH 6 0
BBX 5 7 0 0
BITMAP
A8
F8
B8
90
B8
90
B8
ENDCHAR
STARTCHAR uni5D17
ENCODING 23831
SWIDTH 750 0
DWIDTH 6 0
BBX 5 7 0 0
BITMAP
A8
F8
D8
A8
D8
F8
88
ENDCHAR
STARTCHAR uni5D18
ENCODING 23832
SWIDTH 750 0
DWIDTH 6 0
BBX 5 7 0 0
BITMAP
50
68
58
C0
F8
F8
28
ENDCHAR
STARTCHAR uni5D19
ENCODING 23833
SWIDTH 750 0
DWIDTH 6 0
BBX 5 7 0 0
BITMAP
A8
F8
20
50
F8
F8
A8
ENDCHAR
STARTCHAR uni5D1A
ENCODING 23834
SWIDTH 750 0
DWIDTH 6 0
BBX 5 7 0 0
BITMAP
50
78
50
D8
E8
D0
28
ENDCHAR
STARTCHAR uni5D1B
ENCODING 23835
SWIDTH 750 0
DWIDTH 6 0
BBX 5 7 0 0
BITMAP
78
48
78
F8
D0
D8
78
ENDCHAR
STARTCHAR uni5D1F
ENCODING 23839
SWIDTH 750 0
DWIDTH 6 0
BBX 5 7 0 0
BITMAP
A8
F8
20
50
B8
70
F8
ENDCHAR
STARTCHAR uni5D22
ENCODING 23842
SWIDTH 750 0
DWIDTH 6 0
BBX 5 7 0 0
BITMAP
58
68
40
F8
D8
F8
10
ENDCHAR
STARTCHAR uni5D29
ENCODING 23849
SWIDTH 750 0
DWIDTH 6 0
BBX 5 7 0 0
BITMAP
A8
F8
78
68
78
68
D8
ENDCHAR
STARTCHAR uni5D4B
ENCODING 23883
SWIDTH 750 0
DWIDTH 6 0
BBX 5 7 0 0
BITMAP
78
78
40
D8
D8
D8
18
ENDCHAR
STARTCHAR uni5D4C
ENCODING 23884
SWIDTH 750 0
DWIDTH 6 0
BBX 5 7 0 0
BITMAP
A8
F8
18
B0
F0
B0
E8
ENDCHAR
STARTCHAR uni5D4E
ENCODING 23886
SWIDTH 750 0
DWIDTH 6 0
BBX 5 7 0 0
BITMAP
78
78
50
F8
F8
E8
28
ENDCHAR
STARTCHAR uni5D50
ENCODING 23888
SWIDTH 750 0
DWIDTH 6 0
BBX 5 7 0 0
BITMAP
A8
F8
A8
F8
F8
B8
E8
ENDCHAR
STARTCHAR uni5D52
ENCODING 23890
SWIDTH 750 0
DWIDTH 6 0
BBX 5 7 0 0
BITMAP
70
70
D8
D8
00
A8
F8
ENDCHAR
STARTCHAR uni5D5C
ENCODING 23900
SWIDTH 750 0
DWIDTH 6 0
BBX 5 7 0 0
BITMAP
A8
F8
50
F8
08
68
68
ENDCHAR
STARTCHAR uni5D69
ENCODING 23913
SWIDTH 750 0
DWIDTH 6 0
BBX 5 7 0 0
BITMAP
A8
F8
50
70
F8
88
A8
ENDCHAR
STARTCHAR uni5D6C
ENCODING 23916
SWIDTH 750 0
DWIDTH 6 0
BBX 5 7 0 0
BITMAP
A8
F8
20
F8
F8
50
98
ENDCHAR
STARTCHAR uni5D6F
ENCODING 23919
SWIDTH 750 0
DWIDTH 6 0
BBX 5 7 0 0
BITMAP
68
78
50
F8
F8
D0
38
ENDCHAR
STARTCHAR uni5D73
ENCODING 23923
SWIDTH 750 0
DWIDTH 6 0
BBX 5 7 0 0
BITMAP
A8
F8
20
F8
78
50
B8
ENDCHAR
STARTCHAR uni5D76
ENCODING 23926
SWIDTH 750 0
DWIDTH 6 0
BBX 5 7 0 0
BITMAP
78
58
78
F0
F8
D8
38
ENDCHAR
STARTCHAR uni5D82
ENCODING 23938
SWIDTH 750 0
DWIDTH 6 0
BBX 5 7 0 0
BITMAP
50
78
68
F8
F0
F8
10
ENDCHAR
STARTCHAR uni5D84
ENCODING 23940
SWIDTH 750 0
DWIDTH 6 0
BBX 5 7 0 0
BITMAP
A8
F8
58
F0
78
E8
48
ENDCHAR
STARTCHAR uni5D87
ENCODING 23943
SWIDTH 750 0
DWIDTH 6 0
BBX 5 7 0 0
BITMAP
78
70
70
C0
E8
E8
78
ENDCHAR
STARTCHAR uni5D8B
ENCODING 23947
SWIDTH 750 0
DWIDTH 6 0
BBX 5 7 0 0
BITMAP
50
78
78
E0
F8
C8
28
ENDCHAR
STARTCHAR uni5D8C
ENCODING 23948
SWIDTH 750 0
DWIDTH 6 0
BBX 5 7 0 0
BITMAP
A8
F8
70
40
78
08
A8
ENDCHAR
STARTCHAR uni5D90
ENCODING 23952
SWIDTH 750 0
DWIDTH 6 0
BBX 5 7 0 0
BITMAP
A8
F8
E8
90
E8
D0
B8
ENDCHAR
STARTCHAR uni5D9D
ENCODING 23965
SWIDTH 750 0
DWIDTH 6 0
BBX 5 7 0 0
BITMAP
68
50
68
F8
E8
D0
38
ENDCHAR
STARTCHAR uni5DA2
ENCODING 23970
SWIDTH 750 0
DWIDTH 6 0
BBX 5 7 0 0
BITMAP
50
78
78
E8
F8
D0
28
ENDCHAR
STARTCHAR uni5DAC
ENCODING 23980
SWIDTH 750 0
DWIDTH 6 0
BBX 5 7 0 0
BITMAP
68
78
50
F8
D8
F0
08
ENDCHAR
STARTCHAR uni5DAE
ENCODING 23982
SWIDTH 750 0
DWIDTH 6 0
BBX 5 7 0 0
BITMAP
50
68
40
F8
F8
D0
28
ENDCHAR
STARTCHAR uni5DB7
ENCODING 23991
SWIDTH 750 0
DWIDTH 6 0
BBX 5 7 0 0
BITMAP
A8
F8
B8
D8
F8
50
A8
ENDCHAR
ENDFONT
